<svg xmlns="http://www.w3.org/2000/svg" viewBox="0 0 32 32">
    <path style="text-indent:0;text-align:start;line-height:normal;text-transform:none;block-progression:tb;-inkscape-font-specification:Bitstream Vera Sans" d="M 20 3 C 15.054545 3 11 7.0545455 11 12 C 11 12.519086 11.08466 12.978272 11.15625 13.4375 L 3.28125 21.28125 L 3 21.59375 L 3 22 L 3 28 L 3 29 L 4 29 L 9 29 L 10 29 L 10 28 L 10 26 L 12 26 L 13 26 L 13 25 L 13 23 L 15 23 L 16 23 L 16 22 L 16 20.03125 C 17.181148 20.608598 18.555233 21 20 21 C 24.945455 21 29 16.945455 29 12 C 29 7.0545455 24.945455 3 20 3 z M 20 5 C 23.854545 5 27 8.1454545 27 12 C 27 15.854545 23.854545 19 20 19 C 18.790476 19 17.544638 18.643666 16.59375 18.125 L 16.34375 18 L 16.09375 18 L 15 18 L 14 18 L 14 19 L 14 21 L 12 21 L 11 21 L 11 22 L 11 24 L 9 24 L 8 24 L 8 25 L 8 27 L 5 27 L 5 22.4375 L 12.90625 14.5 L 13.28125 14.15625 L 13.1875 13.625 C 13.0875 13.025 13 12.488889 13 12 C 13 8.1454545 16.145455 5 20 5 z M 22 8 C 20.895431 8 20 8.8954305 20 10 C 20 11.104569 20.895431 12 22 12 C 23.104569 12 24 11.104569 24 10 C 24 8.8954305 23.104569 8 22 8 z" color="#000" overflow="visible" font-family="Bitstream Vera Sans"></path>
</svg>
