<?xml version="1.0" encoding="iso-8859-1"?>
<!-- Generator: Adobe Illustrator 16.0.0, SVG Export Plug-In . SVG Version: 6.00 Build 0)  -->
<!DOCTYPE svg PUBLIC "-//W3C//DTD SVG 1.1//EN" "http://www.w3.org/Graphics/SVG/1.1/DTD/svg11.dtd">
<svg version="1.1"
	 id="svg2" inkscape:version="0.48.5 r10040" sodipodi:docname="windows.svg" xmlns:inkscape="http://www.inkscape.org/namespaces/inkscape" xmlns:sodipodi="http://sodipodi.sourceforge.net/DTD/sodipodi-0.dtd" xmlns:svg="http://www.w3.org/2000/svg" xmlns:rdf="http://www.w3.org/1999/02/22-rdf-syntax-ns#" xmlns:cc="http://creativecommons.org/ns#" xmlns:dc="http://purl.org/dc/elements/1.1/"
	 xmlns="http://www.w3.org/2000/svg" xmlns:xlink="http://www.w3.org/1999/xlink" x="0px" y="0px" width="760.825px"
	 height="105.942px" viewBox="0.501 0.498 760.825 105.942" style="enable-background:new 0.501 0.498 760.825 105.942;"
	 xml:space="preserve">
<sodipodi:namedview  fit-margin-bottom="0.5" fit-margin-right="0.5" inkscape:pageshadow="2" inkscape:window-y="-8" inkscape:window-height="716" inkscape:window-x="-8" inkscape:current-layer="g3000" inkscape:pageopacity="0" inkscape:window-maximized="1" inkscape:window-width="1366" gridtolerance="10" showgrid="false" inkscape:cx="398.69968" inkscape:cy="92.560761" bordercolor="#666666" pagecolor="#ffffff" objecttolerance="10" guidetolerance="10" inkscape:zoom="1.1441038" id="namedview21" borderopacity="1" fit-margin-left="0.5" fit-margin-top="0.5">
	</sodipodi:namedview>
<g id="Livello_x0020_1" transform="translate(9.0774947,-38070.588)">
	<g id="g3000" transform="matrix(0.04824549,0,0,0.04824549,0,38079.698)">
		<path id="path13" inkscape:connector-curvature="0" style="fill:#0DADEA;" d="M-177.77,123.629L722.723-0.149v868.978h-900.434
			L-177.77,123.629z M722.723,980.036v859.14l-900.371-123.596l-0.062-735.504h900.434V980.036z M822.332-13.812l1198.23-164.707
			V868.828H822.332V-13.812z M2020.562,980.036v1037.368l-1198.23-164.565V980.036H2020.562z"/>
		<g id="flowRoot2989" transform="matrix(89.561227,0,0,88.070452,150957.32,17842.049)">
			<path id="path3031" inkscape:connector-curvature="0" style="fill:#00ADEF;" d="M-1640.247-184.778h-2.324v-9.139
				c0-0.749,0.046-1.664,0.138-2.748h-0.039c-0.145,0.617-0.273,1.06-0.384,1.33l-4.215,10.557h-1.615l-4.225-10.478
				c-0.118-0.308-0.243-0.778-0.374-1.408h-0.039c0.053,0.565,0.079,1.487,0.079,2.767v9.119h-2.167V-198.9h3.299l3.713,9.405
				c0.282,0.722,0.466,1.261,0.551,1.615h0.049c0.243-0.742,0.44-1.294,0.591-1.655l3.782-9.365h3.181L-1640.247-184.778z"/>
			<path id="path3033" inkscape:connector-curvature="0" style="fill:#00ADEF;" d="M-1635.884-196.98
				c-0.374,0-0.695-0.121-0.96-0.364c-0.266-0.243-0.399-0.552-0.399-0.926s0.133-0.686,0.399-0.936
				c0.266-0.249,0.586-0.374,0.96-0.374c0.387,0,0.716,0.125,0.985,0.374c0.269,0.25,0.404,0.561,0.404,0.936
				c0,0.354-0.135,0.658-0.404,0.911C-1635.169-197.106-1635.497-196.98-1635.884-196.98z M-1634.752-184.778h-2.284v-10.085h2.284
				V-184.778z"/>
			<path id="path3035" inkscape:connector-curvature="0" style="fill:#00ADEF;" d="M-1624.539-185.241
				c-0.807,0.466-1.763,0.699-2.866,0.699c-1.497,0-2.705-0.468-3.624-1.403c-0.919-0.935-1.379-2.148-1.379-3.639
				c0-1.661,0.494-2.995,1.482-4.003c0.988-1.008,2.309-1.512,3.964-1.512c0.919,0,1.73,0.161,2.432,0.483v2.127
				c-0.703-0.525-1.451-0.788-2.245-0.788c-0.965,0-1.756,0.327-2.373,0.98c-0.617,0.653-0.926,1.508-0.926,2.565
				c0,1.044,0.29,1.868,0.871,2.472c0.581,0.604,1.361,0.906,2.339,0.906c0.821,0,1.595-0.292,2.324-0.876L-1624.539-185.241z"/>
			<path id="path3037" inkscape:connector-curvature="0" style="fill:#00ADEF;" d="M-1616.415-192.686
				c-0.276-0.217-0.673-0.325-1.192-0.325c-0.676,0-1.241,0.305-1.694,0.916c-0.453,0.61-0.68,1.441-0.68,2.491v4.826h-2.285
				v-10.085h2.285v2.078h0.039c0.223-0.709,0.566-1.262,1.029-1.659c0.463-0.397,0.98-0.596,1.551-0.596
				c0.414,0,0.729,0.063,0.946,0.187L-1616.415-192.686z"/>
			<path id="path3039" inkscape:connector-curvature="0" style="fill:#00ADEF;" d="M-1610.309-184.542
				c-1.556,0-2.798-0.471-3.728-1.413c-0.929-0.942-1.394-2.191-1.394-3.747c0-1.694,0.484-3.017,1.453-3.969
				c0.969-0.952,2.273-1.428,3.915-1.428c1.576,0,2.803,0.463,3.683,1.389c0.88,0.926,1.319,2.209,1.319,3.85
				c0,1.609-0.474,2.897-1.423,3.865C-1607.432-185.026-1608.707-184.542-1610.309-184.542L-1610.309-184.542z M-1610.201-193.277
				c-0.893,0-1.599,0.312-2.117,0.935c-0.519,0.624-0.778,1.484-0.778,2.58c0,1.057,0.263,1.889,0.788,2.496
				c0.525,0.607,1.228,0.911,2.108,0.911c0.9,0,1.591-0.299,2.073-0.896c0.482-0.598,0.724-1.448,0.724-2.551
				c0-1.109-0.241-1.966-0.724-2.57C-1608.61-192.975-1609.301-193.277-1610.201-193.277L-1610.201-193.277z"/>
			<path id="path3041" inkscape:connector-curvature="0" style="fill:#00ADEF;" d="M-1603.356-185.093v-2.117
				c0.854,0.65,1.796,0.975,2.826,0.975c1.379,0,2.068-0.407,2.068-1.221c0-0.23-0.059-0.425-0.177-0.586
				c-0.118-0.161-0.277-0.304-0.478-0.428s-0.437-0.236-0.709-0.335c-0.273-0.099-0.576-0.21-0.911-0.335
				c-0.414-0.164-0.786-0.338-1.118-0.522c-0.332-0.184-0.607-0.392-0.827-0.625c-0.22-0.233-0.386-0.497-0.497-0.793
				c-0.112-0.295-0.167-0.64-0.167-1.034c0-0.486,0.115-0.914,0.345-1.285c0.23-0.371,0.538-0.683,0.925-0.935
				c0.388-0.253,0.827-0.443,1.32-0.571c0.492-0.128,1.001-0.192,1.526-0.192c0.932,0,1.766,0.141,2.501,0.423v1.999
				c-0.709-0.486-1.523-0.729-2.442-0.729c-0.289,0-0.55,0.03-0.783,0.088c-0.233,0.059-0.432,0.141-0.596,0.246
				c-0.164,0.105-0.292,0.231-0.384,0.379c-0.092,0.148-0.138,0.31-0.138,0.487c0,0.217,0.046,0.401,0.138,0.552
				c0.092,0.151,0.228,0.284,0.409,0.399c0.18,0.115,0.397,0.22,0.65,0.315c0.253,0.095,0.543,0.199,0.872,0.31
				c0.433,0.177,0.822,0.358,1.167,0.542c0.345,0.184,0.639,0.392,0.882,0.625c0.243,0.233,0.43,0.502,0.561,0.808
				c0.131,0.305,0.197,0.668,0.197,1.088c0,0.512-0.118,0.958-0.355,1.339c-0.236,0.381-0.552,0.696-0.945,0.945
				c-0.394,0.25-0.849,0.435-1.364,0.556c-0.516,0.122-1.059,0.182-1.63,0.182C-1601.594-184.542-1602.549-184.725-1603.356-185.093
				z"/>
			<path id="path3043" inkscape:connector-curvature="0" style="fill:#00ADEF;" d="M-1589.549-184.542
				c-1.556,0-2.799-0.471-3.728-1.413c-0.929-0.942-1.393-2.191-1.393-3.747c0-1.694,0.484-3.017,1.453-3.969
				c0.968-0.952,2.273-1.428,3.914-1.428c1.576,0,2.803,0.463,3.683,1.389c0.88,0.926,1.32,2.209,1.32,3.85
				c0,1.609-0.474,2.897-1.423,3.865C-1586.672-185.026-1587.948-184.542-1589.549-184.542L-1589.549-184.542z M-1589.441-193.277
				c-0.893,0-1.599,0.312-2.118,0.935c-0.519,0.624-0.778,1.484-0.778,2.58c0,1.057,0.263,1.889,0.788,2.496
				c0.525,0.607,1.228,0.911,2.108,0.911c0.899,0,1.59-0.299,2.073-0.896c0.483-0.598,0.724-1.448,0.724-2.551
				c0-1.109-0.241-1.966-0.724-2.57C-1587.851-192.975-1588.542-193.277-1589.441-193.277z"/>
			<path id="path3045" inkscape:connector-curvature="0" style="fill:#00ADEF;" d="M-1576.264-197.846
				c-0.308-0.177-0.66-0.266-1.054-0.266c-1.11,0-1.664,0.627-1.664,1.881v1.369h2.344v1.792h-2.334v8.292h-2.285v-8.292h-1.723
				v-1.792h1.723v-1.635c0-1.064,0.348-1.902,1.044-2.516c0.696-0.614,1.566-0.921,2.61-0.921c0.565,0,1.011,0.062,1.339,0.187
				V-197.846z"/>
			<path id="path3047" inkscape:connector-curvature="0" style="fill:#00ADEF;" d="M-1569.676-184.886
				c-0.446,0.223-1.034,0.335-1.763,0.335c-1.956,0-2.934-0.939-2.934-2.816v-5.702h-1.684v-1.792h1.684v-2.334l2.285-0.65v2.984
				h2.413v1.792h-2.413v5.042c0,0.597,0.108,1.024,0.325,1.28c0.217,0.256,0.578,0.384,1.083,0.384c0.387,0,0.722-0.111,1.004-0.335
				V-184.886z"/>
			<path id="path3049" inkscape:connector-curvature="0" style="fill:#00ADEF;" d="M-1550.295-184.778h-2.57l-1.27-3.595h-5.554
				l-1.221,3.595h-2.561l5.288-14.122h2.639L-1550.295-184.778z M-1554.756-190.283l-1.959-5.633
				c-0.059-0.184-0.122-0.479-0.187-0.886h-0.039c-0.059,0.374-0.125,0.67-0.197,0.886l-1.94,5.633H-1554.756z"/>
			<path id="path3051" inkscape:connector-curvature="0" style="fill:#00ADEF;" d="M-1541.156-193.907l-5.446,7.346h5.426v1.783
				h-8.627v-0.857l5.564-7.445h-5.032v-1.783h8.115L-1541.156-193.907z"/>
			<path id="path3053" inkscape:connector-curvature="0" style="fill:#00ADEF;" d="M-1530.432-184.778h-2.284v-1.596h-0.039
				c-0.663,1.221-1.694,1.832-3.092,1.832c-2.383,0-3.575-1.431-3.575-4.294v-6.027h2.285v5.791c0,1.812,0.699,2.718,2.098,2.718
				c0.676,0,1.232-0.249,1.669-0.748c0.437-0.499,0.655-1.152,0.655-1.96v-5.801h2.285L-1530.432-184.778z"/>
			<path id="path3055" inkscape:connector-curvature="0" style="fill:#00ADEF;" d="M-1521.598-192.686
				c-0.276-0.217-0.673-0.325-1.192-0.325c-0.676,0-1.241,0.305-1.694,0.916c-0.453,0.61-0.68,1.441-0.68,2.491v4.826h-2.284
				v-10.085h2.284v2.078h0.039c0.223-0.709,0.566-1.262,1.029-1.659c0.463-0.397,0.98-0.596,1.551-0.596
				c0.413,0,0.729,0.063,0.945,0.187L-1521.598-192.686z"/>
			<path id="path3057" inkscape:connector-curvature="0" style="fill:#00ADEF;" d="M-1511.425-189.2h-6.874
				c0.026,0.932,0.313,1.651,0.862,2.157c0.548,0.505,1.301,0.758,2.26,0.758c1.077,0,2.065-0.322,2.964-0.965v1.841
				c-0.919,0.578-2.134,0.867-3.644,0.867c-1.484,0-2.647-0.458-3.491-1.374c-0.844-0.916-1.265-2.204-1.265-3.865
				c0-1.569,0.464-2.848,1.394-3.836c0.929-0.988,2.083-1.482,3.462-1.482c1.379,0,2.445,0.443,3.2,1.329
				c0.755,0.886,1.133,2.117,1.133,3.693L-1511.425-189.2z M-1513.631-190.815c-0.01-0.821-0.2-1.459-0.581-1.915
				c-0.381-0.456-0.906-0.684-1.576-0.684c-0.656,0-1.213,0.24-1.669,0.719s-0.737,1.106-0.842,1.881H-1513.631z"/>
		</g>
	</g>
</g>
</svg>
