<svg xmlns="http://www.w3.org/2000/svg" viewBox="0 0 26 26">
    <path d="M21.125,0H4.875C2.182,0,0,2.182,0,4.875v16.25C0,23.818,2.182,26,4.875,26h16.25 C23.818,26,26,23.818,26,21.125V4.875C26,2.182,23.818,0,21.125,0z M8.468,15.221c0.433,0,0.881-0.087,1.169-0.226 c0.062-0.031,0.146-0.033,0.214-0.003c0.066,0.03,0.116,0.09,0.136,0.162l0.163,0.623c0.03,0.115-0.026,0.235-0.132,0.286 c-0.301,0.152-0.911,0.315-1.713,0.315c-1.973,0-3.248-1.304-3.248-3.32c0-2.024,1.406-3.438,3.419-3.438 c0.909,0,1.421,0.229,1.556,0.299c0.106,0.056,0.158,0.179,0.124,0.294l-0.189,0.638c-0.021,0.071-0.073,0.131-0.141,0.158 c-0.057,0.026-0.145,0.027-0.211-0.007c-0.298-0.144-0.694-0.224-1.112-0.224c-1.326,0-2.118,0.842-2.118,2.252 C6.386,14.402,7.165,15.221,8.468,15.221z M13.13,16.379c-0.614,0-1.308-0.177-1.688-0.429c-0.093-0.063-0.133-0.177-0.101-0.281 l0.198-0.656c0.022-0.075,0.079-0.136,0.15-0.163c0.087-0.029,0.158-0.018,0.222,0.023c0.363,0.224,0.839,0.357,1.271,0.357 c0.638,0,1.019-0.294,1.019-0.785c0-0.385-0.156-0.654-0.983-0.974c-1.202-0.425-1.763-1.046-1.763-1.952 c0-1.118,0.91-1.898,2.213-1.898c0.765,0,1.246,0.207,1.464,0.331c0.104,0.058,0.152,0.183,0.114,0.297l-0.216,0.639 c-0.024,0.07-0.078,0.125-0.146,0.152c-0.068,0.026-0.148,0.021-0.211-0.013c-0.215-0.117-0.567-0.258-1.032-0.258 c-0.66,0-0.894,0.355-0.894,0.66c0,0.359,0.157,0.592,1.046,0.937c1.198,0.463,1.708,1.065,1.708,2.017 C15.505,15.304,14.883,16.379,13.13,16.379z M18.567,16.379c-0.614,0-1.308-0.177-1.688-0.429c-0.093-0.063-0.133-0.177-0.101-0.281 l0.198-0.656c0.022-0.075,0.079-0.136,0.15-0.163c0.089-0.03,0.16-0.017,0.222,0.024c0.363,0.223,0.838,0.356,1.271,0.356 c0.639,0,1.02-0.294,1.02-0.785c0-0.385-0.156-0.654-0.983-0.974c-1.201-0.425-1.763-1.046-1.763-1.952 c0-1.118,0.91-1.898,2.213-1.898c0.765,0,1.246,0.207,1.465,0.331c0.104,0.058,0.152,0.183,0.113,0.297l-0.215,0.639 c-0.025,0.07-0.078,0.125-0.146,0.152c-0.067,0.027-0.147,0.023-0.211-0.013c-0.215-0.117-0.568-0.258-1.033-0.258 c-0.659,0-0.893,0.355-0.893,0.66c0,0.359,0.156,0.592,1.046,0.937c1.198,0.463,1.708,1.065,1.708,2.017 C20.941,15.304,20.32,16.379,18.567,16.379z"></path>
</svg>
