<svg xmlns="http://www.w3.org/2000/svg" width="50" height="50" viewBox="0 0 50 50">
    <path d="M 29 4.53125 C 23.991 4.53125 19.41475 7.439 17.21875 11.875 C 16.08375 11.124 14.73575 10.71875 13.34375 10.71875 C 9.63975 10.71875 6.622 13.609 6.375 17.25 C 2.592 18.628 1.1842379e-15 22.27175 0 26.34375 C 0 31.67475 4.32425 36 9.65625 36 L 24 36 L 24 25.40625 L 20.71875 28.71875 C 20.32775 29.10975 19.67225 29.10975 19.28125 28.71875 C 18.89025 28.32775 18.89025 27.67225 19.28125 27.28125 L 25 21.59375 L 30.71875 27.28125 C 31.10975 27.67225 31.10975 28.32775 30.71875 28.71875 C 30.52375 28.91375 30.256 29 30 29 C 29.744 29 29.47625 28.91375 29.28125 28.71875 L 26 25.40625 L 26 36 L 41.09375 36 C 46.00275 36 50 32.00075 50 27.09375 C 50 22.54875 46.574 18.78 42.125 18.25 C 42.135 18.055 42.15625 17.8715 42.15625 17.6875 C 42.15625 10.4365 36.251 4.53125 29 4.53125 z M 26 36 L 24 36 L 24 43 C 24 43.553 24.448 44 25 44 C 25.552 44 26 43.553 26 43 L 26 36 z"></path>
</svg>
