<?xml version="1.0" encoding="utf-8"?>
<!-- Generator: Adobe Illustrator 15.0.2, SVG Export Plug-In . SVG Version: 6.00 Build 0)  -->
<!DOCTYPE svg PUBLIC "-//W3C//DTD SVG 1.1//EN" "http://www.w3.org/Graphics/SVG/1.1/DTD/svg11.dtd">
<svg version="1.1" id="Layer_1" xmlns="http://www.w3.org/2000/svg" xmlns:xlink="http://www.w3.org/1999/xlink" x="0px" y="0px"
	 width="1024px" height="1024px" viewBox="0 0 1024 1024" enable-background="new 0 0 1024 1024" xml:space="preserve">
<g>
	<path d="M512,16L0,398.2v608h1024v-608L512,16z M370.4,288.8c15-27.4,35.8-48.2,62-61.8c26.199-13.8,56.199-20.8,90-20.8
		c28.6,0,54,5.6,76.199,16.6c22.2,11.2,39.2,27,51,47.4c11.601,20.6,17.601,43,17.601,67.2c0,29-9,55-26.8,78.6
		c-22.4,29.4-51,44.2-86,44.2c-9.4,0-16.4-1.601-21.2-5c-4.8-3.4-8-8.2-9.601-14.601C510.2,453.6,494.8,460,477.2,460
		c-18.8,0-34.4-6.6-46.8-19.4C418,427.6,411.8,410.2,411.8,388.8c0-26.8,7.4-51,22.4-73c18.2-26.8,41.399-40.2,69.8-40.2
		c20.2,0,35.2,7.8,44.8,23.2l4.4-19h45L572.4,402c-1.601,7.8-2.4,12.6-2.4,15c0,3,0.6,5,2,6.4c1.2,1.399,2.8,2.199,4.6,2.199
		c5.601,0,12.601-3.199,21.2-9.8c11.601-8.6,21-20.2,28-34.6c7.2-14.6,10.8-29.6,10.8-45.2c0-27.8-10-51.2-30.199-70.2
		c-20.2-18.6-48.601-28.2-84.801-28.2c-30.8,0-56.8,6.2-78.199,19C422,269,406,286.8,395,309.6c-10.8,22.6-16.2,46.4-16.2,71
		c0,23.8,6.2,45.8,18.2,65.4c12.2,19.8,29.2,34,51,43s46.8,13.4,75,13.4c27,0,50.4-3.801,70-11.4s35.2-18.8,47.2-34h36.2
		c-11.4,23-28.801,41-52.2,54.2c-27,15-59.8,22.399-98.4,22.399c-37.6,0-69.8-6.199-97-19C401.4,502,381.2,483.2,368,458.6
		C354.8,434,348.2,407,348.2,378C347.8,346.2,355.2,316.4,370.4,288.8z M36.2,410.4L414,663.8L36.2,956.2V410.4z M64.8,975.6
		L512,629.4L959.2,975.6H64.8z M987.8,956.2L610,663.8L987.8,410.4V956.2z"/>
	<path d="M508,306c-9.6,0-18.6,3.8-27,11.4s-14.6,18.2-18.8,32.2S456,376,456,386.8c0,14.4,2.8,25,8.6,31.8
		c6,6.801,13.2,10.2,21.801,10.2c6.6,0,12.6-1.6,18.199-4.8c4.2-2.2,8.601-5.8,12.801-10.6c6-7,11.199-17,15.6-30.4
		c4.4-13.2,6.6-25.6,6.6-37c0-12.8-3-22.6-9-29.4C524.6,309.8,517,306.2,508,306z"/>
</g>
</svg>
