<?xml version="1.0" encoding="utf-8"?>
<!-- Generator: Adobe Illustrator 17.0.0, SVG Export Plug-In . SVG Version: 6.00 Build 0)  -->
<!DOCTYPE svg PUBLIC "-//W3C//DTD SVG 1.1//EN" "http://www.w3.org/Graphics/SVG/1.1/DTD/svg11.dtd">
<svg version="1.1" id="Layer_1" xmlns="http://www.w3.org/2000/svg" xmlns:xlink="http://www.w3.org/1999/xlink" x="0px" y="0px"
	 width="250px" height="250px" viewBox="0 0 250 250" enable-background="new 0 0 250 250" xml:space="preserve">
<path opacity="0.5" fill="#CCCCCC" enable-background="new    " d="M236.333,228.297c0,9.595-50.118,17.374-111.942,17.374
	S12.45,237.892,12.45,228.297c0-9.597,58.791-17.374,111.942-17.374C187.661,210.923,236.333,218.699,236.333,228.297z"/>
<g>
	<path fill="#028CB9" d="M18.048,186.303l29.291-38.109c14.488,13.543,34.33,20.787,54.487,20.787
		c22.992,0,34.33-11.339,34.33-24.252c0-14.173-11.023-24.252-32.755-24.252c-16.693,0-29.921,4.725-41.574,15.748l-37.479-9.134V3
		h152.438v47.243H78.519v40.629c10.079-9.764,26.456-16.693,45.038-16.693c35.905,0,67.715,25.826,67.715,68.345
		c0,45.354-34.33,74.329-88.817,74.329C65.291,216.853,37.26,205.2,18.048,186.303z"/>
</g>
<g opacity="0.05">
	<g>
		<g>
			<path d="M219.827,180.35c-1.866,0-3.876-0.861-5.311-7.464c-1.436-6.603-3.588-13.349-3.588-13.349
				c2.297,0,3.588-1.005,3.588-1.005c-1.579-0.718-5.024-3.158-7.32-6.172s-8.182-7.895-8.182-7.895s0-3.157,0-9.76
				s4.235-11.77,4.235-11.77c-2.87,0-4.235,2.583-4.235,2.583s0-0.143,0-13.923s6.961-19.951,6.961-19.951
				c-2.153-0.143-3.588,0.861-3.588,0.861c1.005-10.191,4.127-13.206,4.127-13.206c-11.483-3.014-17.889,3.732-17.889,3.732
				c-1.292-6.172,3.759-9.762,3.759-9.762c-5.885-1.292-10.752,0.431-10.752,0.431c0-9.043,3.595-12.059,3.595-12.059
				c-17.942,0-28.13,13.491-28.13,13.491c-0.717-5.742,0.863-10.77,0.863-10.77C140.592,71.682,136,87.894,136,87.894
				c-1.148-2.727-1.291-8.918-1.291-8.918s-7.177,12.022-8.469,20.346c-1.292,8.326,1.148,32.225,1.148,32.225
				s-1.148-1.435-3.588-1.722c0,0,2.584,2.871,2.584,9.33c0,0-1.005-0.861-2.728-0.431c0,0,2.727,2.44,3.014,6.603
				c0,0-3.158,2.153-4.88,4.306c0,0-2.728,0.143-4.163,0.574c0,0,2.297,1.292,2.728,2.44c0,0-6.746,6.89-10.191,12.488
				c0,0,3.014-1.866,5.167-1.292c0,0-4.737,5.741-6.316,15.215c0,0,2.296-1.148,3.301-0.574c0,0-2.871,6.028-3.014,12.344
				l-3.158,1.866l2.44,1.722c0,0-1.866,7.751-2.297,12.201c0,0,1.435-1.435,2.584-1.866c0,0,1.579,3.732,3.732,6.603
				s7.034,5.311,9.904,5.311l5.396-0.211c-0.669,2.888-1.99,5.336-4.772,5.465l-0.309,0.495c-0.058-0.004-0.116-0.007-0.172-0.008
				c-0.055,0.843-1.757,0.995-2.225,1.579c-1.423,1.775-2.507,4.213-3.23,6.387c-0.529,1.593-0.279,1.593-0.646,3.23
				c-0.12,0.536-0.676,1.108-0.861,1.651c1.55-0.521,5.845-0.868,8.108-1.035l0.038,2.003c0,0,0.373,0.347,0.991,0.598
				c0.021-0.004,0.042-0.01,0.068-0.008c0.21,0.017,0.413,0.048,0.611,0.097c3.395-0.304,5.759,0.269,9.694-0.058
				c0.766-0.091,1.484-0.199,2.154-0.58c0.191-0.569,0.216-0.604,0.306-1.34c0.019-0.131,0.019-0.266,0.051-0.426
				c0.062-0.011,0.122-0.019,0.182-0.028c0.023-0.009,0.06-0.016,0.14-0.019c0.017-0.005,0.031-0.013,0.05-0.015
				c0.062-0.005,0.124-0.011,0.187-0.016c0.043-0.016,0.084-0.021,0.121-0.011c0.712-0.064,1.856-0.124,2.568-0.162
				c2.315-0.004,5.36,0.263,5.36,0.263c0.188-2.595,0.377-6.621,4.575-18.355l1.041-0.645c0,0,12.895,4.544,24.861-0.184
				c0.947,2.331,4.011,10.164,4.492,15.102c0.412,0.579,0.366,1.313,0.38,2.091c0.012,0.659,0.067,1.317,0.085,1.974
				c0.43-0.058,1.984-0.249,3.945-0.246c0.712,0.039,1.855,0.099,2.568,0.162c0.037-0.01,0.078-0.005,0.121,0.011
				c0.062,0.005,0.124,0.01,0.187,0.016c0.019,0.002,0.033,0.01,0.05,0.015c0.081,0.003,0.117,0.01,0.14,0.019
				c0.06,0.009,0.12,0.018,0.182,0.028c0.032,0.16,0.032,0.294,0.051,0.426c0.09,0.735,0.115,0.77,0.306,1.34
				c0.061,0.035,0.124,0.065,0.186,0.096c2.143-0.272,4.314-0.322,6.47-0.219c1.696,0.08,3.362,0.399,5.031,0.702
				c0,0.016,0.002,0.032,0.002,0.048c0.168,0.018,0.333,0.03,0.497,0.041c0.896,0.16,1.794,0.309,2.697,0.407
				c0.017-1.13,0.011-2.119-0.013-2.987c1.798,0.086,4.4,0.444,5.492,0.603c0.433,0.104,0.784,0.168,1.154,0.247
				c0.05,0.015,0.103,0.03,0.148,0.045c-0.002-0.004-0.004-0.009-0.005-0.013c0.37,0.083,0.77,0.188,1.297,0.372
				c-0.08-0.971-0.073-0.951-0.201-2.168c-0.099-0.942-0.774-3.802-2.037-4.982c0,0,1.376,0.595,1.796,0.832
				c-1.357-1.838-2.016-4.466-6.279-6.278c0,0,0.778-0.367,1.49-0.46c-0.744-0.458-1.312-0.639-2.065-0.584
				c0.256-0.727,1.382-2.559,2.326-2.795c0,0-0.58-0.403-1.528-0.091c-0.352,0.185-0.694,0.383-1.027,0.617
				c-0.126,0.089-0.309-0.003-0.346-0.141c-0.298-1.102-0.492-2.222-0.668-3.347c8.59-0.311,9.794-4.718,9.794-4.718
				c0.718,0.574,0.717,1.866,0.717,1.866c3.732-4.88,3.302-9.761,3.302-9.761c0.861,0.143,1.579,0.718,1.579,0.718
				c0.431-7.464-1.866-20.239-1.866-20.239c1.148,0.574,1.866-0.143,1.866-0.143c-1.292-0.574-1.435-2.01-1.435-2.01
				C219.54,182.073,219.827,180.35,219.827,180.35z"/>
		</g>
		<path d="M137.709,234.506c0,0,0.336-3.63-0.847-6.25c0,0,2.242,0.152,2.619,6.073
			C139.481,234.329,137.911,234.512,137.709,234.506z"/>
		<path d="M126.455,222.264l0.014-0.111C126.477,222.207,126.476,222.25,126.455,222.264z"/>
		<path d="M128.554,234.225c-0.013-0.003-0.02-0.005-0.02-0.005s0.009-0.025,0.026-0.068L128.554,234.225z"/>
		<path d="M157.098,75.132c-0.717-5.742,0.863-10.77,0.863-10.77C140.593,71.682,136,87.894,136,87.894
			c-1.148-2.727-1.291-8.918-1.291-8.918s-7.177,12.022-8.469,20.346c-1.292,8.326,1.148,32.225,1.148,32.225
			s-1.148-1.435-3.588-1.722c0,0,2.584,2.871,2.584,9.33c0,0-1.005-0.861-2.728-0.431c0,0,2.727,2.44,3.014,6.603
			c0,0-3.158,2.153-4.88,4.306c0,0-2.728,0.143-4.163,0.574c0,0,2.297,1.292,2.728,2.44c0,0-6.746,6.89-10.191,12.488
			c0,0,3.014-1.866,5.167-1.292c0,0-4.737,5.741-6.316,15.215c0,0,2.296-1.148,3.301-0.574c0,0-2.871,6.028-3.014,12.344
			l-3.158,1.866l2.44,1.722c0,0-1.866,7.751-2.297,12.201c0,0,1.435-1.435,2.584-1.866c0,0,1.579,3.732,3.732,6.603
			s7.034,5.311,9.904,5.311l0.363-0.05c-0.16,0.99-0.34,1.976-0.603,2.947c-0.037,0.137-0.22,0.23-0.346,0.141
			c-0.333-0.235-0.675-0.433-1.027-0.617c-0.948-0.312-1.528,0.091-1.528,0.091c0.945,0.236,2.07,2.068,2.326,2.795
			c-0.753-0.055-1.321,0.126-2.065,0.584c0.712,0.092,1.49,0.46,1.49,0.46c-4.262,1.812-4.922,4.44-6.279,6.278
			c0.42-0.237,1.796-0.832,1.796-0.832c-1.263,1.18-1.938,4.04-2.037,4.982c-0.128,1.217-0.121,1.197-0.201,2.168
			c1.13-0.393,1.679-0.431,2.594-0.651c1.413-0.206,5.363-0.575,6.814-0.424l-0.229,2.963c0,0,0.029,0,0.071,0
			c0.745-0.973,1.352-0.358,2.016-0.429c0.01-0.769,0.05-1.624,0.113-2.39c-0.045-1.31,0.118-2.545,0.386-3.875
			c0.009-0.045,0.02-0.113,0.029-0.158c0.527-1.815,1.444-2.859,2.039-3.494c0.198-0.211,0.369-0.466,0.516-0.722
			c0.355-0.473,0.725-1.092,1.01-1.869c0.59-1.61,0.337-5.149-0.849-8.601c1.251,1.799,2.389,3.377,2.929,3.917l-0.036-4.396
			c0,0,2.296,2.295,4.352,4.029c0.99,0.864,2.21,1.897,3.077,2.344c0.063,0.04,0.119,0.161,0.188,0.161l0,0
			c0.009,0,0.017-0.033,0.026-0.028c1.164,0.653,2.362,1.217,3.483,1.943c0.12,0.077,0.243,0.138,0.36,0.219
			c0.519,0.357,1.432,0.766,2.253,1.199l0.776,9.173c0.7-9.635,6.19-18.858,6.19-18.858l-0.201-0.06
			c-1.699-0.525-14.129-4.825-21.473-20.18c-0.484-1.011,2.727,1.148,2.727,1.148c-3.014-7.32-4.163-19.091-4.163-19.091
			c1.005,0.861,2.01,1.005,2.01,1.005c-2.153-6.029-3.014-13.493-3.014-20.239c-0.574-36.315,12.847-44.64,12.847-44.64
			c-2.296-0.861-4.737-0.789-4.737-0.789c2.656-6.387,11.483-15.287,11.483-15.287c-2.368,0.144-11.627,2.655-11.627,2.655
			c7.679-20.024,15.431-25.334,15.431-25.334c-0.574,4.808,1.292,9.904,1.292,9.904c16.651-20.598,30.028-19.637,30.028-19.637
			c0.992-2.066,2.119-3.475,2.119-3.475C167.287,61.641,157.098,75.132,157.098,75.132z"/>
		<path d="M204.163,234.393c0,0-0.162-5.204-1.346-7.823c0,0,3.086,1.902,3.069,7.912
			C205.886,234.482,204.365,234.398,204.163,234.393z"/>
		<path d="M123.869,207.63c2.033-19.91,2.586-58.859,2.586-58.859c-4.414,8.72-7.966,24.545-7.966,24.545l0.861,3.445l-1.938-0.861
			c-3.114,10.809-1.007,25.278-0.309,29.354C119.084,206.822,121.444,207.351,123.869,207.63z"/>
		<path d="M119.705,207.2c0.631,3.187,1.286,6.255,2.013,9.421c0.538,0.081,1.144,0.04,1.144,0.04
			c0.494-1.925,0.576-4.905,0.96-8.569C122.407,207.926,121.018,207.674,119.705,207.2z"/>
		<path d="M187.163,224.356c-0.116,0.034-0.204-0.018-0.251-0.097c-0.223,0.044-0.394,0.084-0.509,0.114l0,0
			c2.961-2.155,3.233-4.434,3.233-4.434c-1.964,0.886-4.05,1.217-5.064,1.333c6.845-5.933,7.982-16.95,7.982-16.95
			c-2.804,3.442-6.782,6.35-9.857,8.302l0.007-0.013c0,0-2.06,1.152-3.964,2.049c-0.084-0.013-0.167,0.01-0.23,0.107
			c-0.978,0.453-1.89,0.823-2.427,0.912c0,0,1.585,2.927,2.247,4.506l-0.13,0.105c0,0,2.294,5.421,3.128,10.672
			c0.088,0.887,0.156,1.665,0.204,2.259c0.04,0.768,0.095,1.298,0.095,1.298c3.032-0.449,7.316-0.012,7.316-0.012
			c-0.021,0.494,0.251,1.68,0.301,1.895c1.44-0.194,2.893-0.279,4.346-0.291C193.571,231.02,193.347,222.563,187.163,224.356z"/>
		<path d="M123.71,209.166c-4.756-0.804-9.071-6.27-9.071-6.27c3.467,3.687,7.784,4.181,7.784,4.181
			c0.57-4.211-2.91-13.848-2.91-13.848c2.577,3.21,3.987,6.923,4.758,9.961L123.71,209.166z"/>
		<path d="M134.502,201.71c0,0,3.741,6.594,7.024,9.447c3.543,3.079,6.836,7.428,8.236,10.066c0,0,1.776-4.126,2.745-5.562
			C152.507,215.661,142.011,212.583,134.502,201.71z"/>
		<path d="M183.331,214.571c0.52-0.732,1.116-1.412,1.684-2.107c0.931-1.14,1.995-2.246,2.776-3.487
			c-1.349,1.01-2.851,1.884-4.387,2.808c-4.457,3.02-7.563,3.876-7.563,3.876c0.969,1.436,2.745,5.562,2.745,5.562
			c0.847-1.596,2.39-3.82,4.26-6.009C183.003,214.995,183.178,214.786,183.331,214.571z"/>
		<path d="M133.083,103.517c-0.408,0.029-1.714,0.063-1.714,0.063c-11.835,0.826-20.534-8.345-20.534-8.345
			s-0.778,7.159,4.363,13.432c5.143,6.273,15.563,7.347,15.563,7.347c0.339,1.467-0.395,4.738-0.395,4.738s3.047-3.371,3.821-9.757
			C134.731,106.519,133.336,103.499,133.083,103.517"/>
		<path d="M133.083,103.517c-0.392,0.022-1.714,0.063-1.714,0.063c-11.835,0.826-20.534-8.345-20.534-8.345
			s5.407,15.646,23.463,14.41C134.298,109.645,134.797,106.751,133.083,103.517"/>
		<path d="M192.171,103.517c0.408,0.029,1.714,0.063,1.714,0.063c11.835,0.826,20.534-8.345,20.534-8.345s0.778,7.159-4.363,13.432
			c-5.143,6.273-15.563,7.347-15.563,7.347c-0.339,1.467,0.395,4.738,0.395,4.738s-3.047-3.371-3.821-9.757
			C190.523,106.519,191.918,103.499,192.171,103.517"/>
		<path d="M192.171,103.517c0.392,0.022,1.714,0.063,1.714,0.063c11.835,0.826,20.534-8.345,20.534-8.345
			s-5.407,15.646-23.463,14.41C190.956,109.645,190.457,106.751,192.171,103.517"/>
		<path d="M127,156.522c0,0-9,30.574,0,50.167V156.522z"/>
		<path d="M211.609,204.885c-4.199,3.204-8.567,3.407-8.567,3.407c-0.195-4.186,4.381-13.337,4.381-13.337
			c-1.041,0.615-1.878,1.358-2.566,2.174l-0.03-3.071l3.301-2.727l-2.655-2.153l3.373-13.564l-3.23,2.153
			c0,0-1.004-19.305-0.287-27.631c0,0-4.091-4.091-6.101-5.742c0,0,0.38,5.944,0.813,15.442c1.833,7.619,4.681,23.385,1.139,37.252
			c0.041,2.811,0.071,5.665,0.088,8.547c0,0,1.765,6.133,2.339,10.439c0,0,0.574,0.161,1.435,0.018l-0.065-6.595
			C209.412,208.157,211.609,204.885,211.609,204.885z"/>
		<ellipse cx="176.478" cy="145.684" rx="4.665" ry="5.904"/>
		<ellipse cx="176.55" cy="144.107" rx="4.593" ry="5.813"/>
		<path d="M175.33,141.109c-0.037,0.143-0.062,0.291-0.062,0.449c0,0.819,0.534,1.482,1.192,1.482c0.585,0,1.069-0.524,1.17-1.215
			c0.375,0.492,0.606,1.155,0.606,1.886c0,1.516-0.988,2.745-2.207,2.745s-2.207-1.229-2.207-2.745
			C173.823,142.5,174.454,141.474,175.33,141.109z"/>
		<ellipse cx="154.086" cy="145.684" rx="4.665" ry="5.904"/>
		<ellipse cx="154.158" cy="144.107" rx="4.593" ry="5.813"/>
		<path d="M153.799,141.109c-0.037,0.143-0.062,0.291-0.062,0.449c0,0.819,0.534,1.482,1.192,1.482c0.585,0,1.069-0.524,1.17-1.215
			c0.375,0.492,0.606,1.155,0.606,1.886c0,1.516-0.988,2.745-2.207,2.745s-2.207-1.229-2.207-2.745
			C152.292,142.5,152.924,141.474,153.799,141.109z"/>
		<path d="M192.258,138.594c-2.08-0.304-5.711-0.649-10.069-0.426c-5.672,0.292-10.531,1.079-13.434,1.549
			c-0.867,0.14-1.548,0.251-2.067,0.32l-0.567,0.077c-0.637,0.088-1.054,0.143-1.41,0.161c-0.356-0.018-0.773-0.073-1.41-0.161
			l-0.567-0.077c-0.519-0.069-1.2-0.18-2.067-0.32c-2.903-0.47-7.762-1.257-13.434-1.549c-4.358-0.222-7.989,0.122-10.069,0.426
			c0,0-2.22,0.283-4.119,1.086l0.362,2.413c0,0,2.006-0.478,3.966-0.739c0.364,3.403,1.073,7.776,1.073,7.776l0.011,0.135
			c0.054,0.22,0.104,0.434,0.158,0.668c0.404,1.72,0.804,2.73,2.417,3.336c1.584,0.598,5.331,1.151,9.11,1.346
			c1.405,0.073,3-0.014,4.613-0.249c2.392-0.349,4.556-0.993,5.383-1.605c1.203-0.889,1.847-3.126,2.273-4.606l0.127-0.437
			c0.151-0.505,0.281-1.035,0.408-1.549c0.182-0.738,0.369-1.501,0.529-1.764c0.029-0.046,0.164-0.205,0.69-0.282
			c0.163-0.024,0.346-0.036,0.547-0.039c0.201,0.003,0.384,0.015,0.547,0.039c0.526,0.077,0.661,0.236,0.69,0.282
			c0.16,0.263,0.348,1.026,0.529,1.764c0.127,0.514,0.257,1.044,0.408,1.549l0.127,0.437c0.426,1.48,1.069,3.717,2.272,4.606
			c0.827,0.611,2.99,1.255,5.383,1.605c1.613,0.235,3.208,0.321,4.613,0.249c3.779-0.195,7.526-0.748,9.11-1.346
			c1.612-0.606,2.013-1.617,2.417-3.336c0.054-0.233,0.104-0.447,0.158-0.668l0.011-0.135c0,0,0.709-4.373,1.073-7.776
			c1.96,0.262,3.966,0.739,3.966,0.739l0.362-2.413C194.478,138.876,192.258,138.594,192.258,138.594z M160.969,143.834l-0.005,0.04
			c-0.095,0.782-0.609,4.749-1.445,6.1c-0.81,1.305-1.097,1.631-3.615,2.057c-0.108,0.018-0.221,0.035-0.338,0.052
			c-2.717,0.397-7.678,0.466-10.453-0.066l-0.193-0.037c-2.832-0.548-3.826-0.782-4.119-1.663c-0.396-1.191-1.155-6.694-1.211-7.874
			c-0.043-0.896,0.799-1.305,1.028-1.366c0.143-0.038,0.373-0.08,0.685-0.126c1.988-0.291,6.336-0.576,8.387-0.486
			c2.598,0.117,8.938,1.012,10.367,1.652C161.119,142.593,161.07,143.007,160.969,143.834z M188.622,150.316
			c-0.293,0.881-1.287,1.115-4.119,1.663l-0.193,0.037c-2.775,0.533-7.736,0.463-10.453,0.066c-0.117-0.017-0.23-0.034-0.338-0.052
			c-2.519-0.426-2.805-0.752-3.615-2.057c-0.836-1.351-1.351-5.318-1.445-6.1l-0.005-0.04c-0.101-0.827-0.15-1.241,0.912-1.716
			c1.429-0.641,7.769-1.535,10.367-1.652c2.051-0.09,6.399,0.195,8.387,0.486c0.312,0.046,0.542,0.088,0.685,0.126
			c0.229,0.061,1.071,0.47,1.028,1.366C189.777,143.623,189.018,149.125,188.622,150.316z"/>
		<path d="M155.526,132.483c0,0-5.189-2.475-8.159,2.12c0,0-0.307-4.569,3.884-5.08
			C155.442,129.012,155.526,132.483,155.526,132.483z"/>
		<path d="M153.58,125.769c0,0-4.81-2.27-7.002,2.093c0,0-0.716-3.812,2.717-4.732C152.728,122.209,153.58,125.769,153.58,125.769z"
			/>
		<path d="M174.113,135.284c0,0,4.03-1.922,6.336,1.647c0,0,0.238-3.549-3.016-3.946
			C174.178,132.589,174.113,135.284,174.113,135.284z"/>
		<path d="M176.978,128.929c0,0,4.078-0.66,4.776,3.067c0,0,1.354-2.691-1.01-4.115C178.38,126.455,176.978,128.929,176.978,128.929
			z"/>
		<path d="M155.165,168.682c0,0,2.847-1.913,4.528-2.177c0,0,0.367,3.611,2.037,5.39c0,0,3.604-3.249,7.168-3.48
			c0,0,0.92,1.98,2.414,2.714l-0.008,0.023c0.539,0.336,1.199,0.677,1.839,0.819c0,0,2.045-1.238,2.638-3.499
			c0,0,0.197,4.773-2.799,7.374c0,0-2.285-1.115-3.931-2.9c-0.494-0.482-1.008-1.041-1.258-1.497c0,0-5.286,3.739-5.479,5.872
			c0,0-3.815-3.72-5.117-6.586c0,0-2.546,0.804-3.253,1.322c0,0-2.047-3.347-2.462-6.368
			C151.482,165.689,153.943,168.04,155.165,168.682z"/>
	</g>
	<path d="M157.697,162.091c0,0,3.04-1.18,3.629-2.27c0,0,7.828,0.564,12.864-3.204C174.191,156.617,169.045,169.121,157.697,162.091
		z"/>
</g>
<g>
	<g>
		<g>
			<path fill="#EAF7FE" d="M222.745,179.378c-1.866,0-3.876-0.861-5.311-7.464c-1.436-6.603-3.588-13.349-3.588-13.349
				c2.297,0,3.588-1.005,3.588-1.005c-1.579-0.718-5.024-3.158-7.32-6.172s-8.182-7.895-8.182-7.895s0-3.157,0-9.76
				s4.235-11.77,4.235-11.77c-2.87,0-4.235,2.583-4.235,2.583s0-0.143,0-13.923s6.961-19.951,6.961-19.951
				c-2.153-0.143-3.588,0.861-3.588,0.861c1.005-10.191,4.127-13.206,4.127-13.206c-11.483-3.014-17.889,3.732-17.889,3.732
				c-1.292-6.172,3.759-9.762,3.759-9.762c-5.885-1.292-10.752,0.431-10.752,0.431c0-9.043,3.595-12.059,3.595-12.059
				c-17.942,0-28.13,13.491-28.13,13.491c-0.717-5.742,0.863-10.77,0.863-10.77c-17.368,7.32-21.96,23.532-21.96,23.532
				c-1.148-2.727-1.291-8.918-1.291-8.918s-7.177,12.022-8.469,20.346c-1.292,8.326,1.148,32.225,1.148,32.225
				s-1.148-1.435-3.588-1.722c0,0,2.584,2.871,2.584,9.33c0,0-1.005-0.861-2.728-0.431c0,0,2.727,2.44,3.014,6.603
				c0,0-3.158,2.153-4.88,4.306c0,0-2.728,0.143-4.163,0.574c0,0,2.297,1.292,2.728,2.44c0,0-6.746,6.89-10.191,12.488
				c0,0,3.014-1.866,5.167-1.292c0,0-4.737,5.741-6.316,15.215c0,0,2.296-1.148,3.301-0.574c0,0-2.871,6.028-3.014,12.344
				l-3.158,1.866l2.44,1.722c0,0-1.866,7.751-2.297,12.201c0,0,1.435-1.435,2.584-1.866c0,0,1.579,3.732,3.732,6.603
				s7.034,5.311,9.904,5.311l5.396-0.211c-0.669,2.888-1.99,5.336-4.772,5.465l-0.309,0.495c-0.058-0.004-0.116-0.007-0.172-0.008
				c-0.055,0.843-1.757,0.995-2.225,1.579c-1.423,1.775-2.507,4.213-3.23,6.387c-0.529,1.593-0.279,1.593-0.646,3.23
				c-0.12,0.536-0.676,1.108-0.861,1.651c1.55-0.521,5.845-0.868,8.108-1.035l0.038,2.003c0,0,0.373,0.347,0.991,0.598
				c0.021-0.004,0.042-0.01,0.068-0.008c0.21,0.017,0.413,0.048,0.611,0.097c3.395-0.304,5.759,0.269,9.694-0.058
				c0.766-0.091,1.484-0.199,2.154-0.58c0.191-0.569,0.216-0.604,0.306-1.34c0.019-0.131,0.019-0.266,0.051-0.426
				c0.062-0.011,0.122-0.019,0.182-0.028c0.023-0.009,0.06-0.016,0.14-0.019c0.017-0.005,0.031-0.013,0.05-0.015
				c0.062-0.005,0.124-0.011,0.187-0.016c0.043-0.016,0.084-0.021,0.121-0.011c0.712-0.064,1.856-0.124,2.568-0.162
				c2.315-0.004,5.36,0.263,5.36,0.263c0.188-2.595,0.377-6.621,4.575-18.355l1.041-0.645c0,0,12.895,4.544,24.861-0.184
				c0.947,2.331,4.011,10.164,4.492,15.102c0.412,0.579,0.366,1.313,0.38,2.091c0.012,0.659,0.067,1.317,0.085,1.974
				c0.43-0.058,1.984-0.249,3.945-0.246c0.712,0.039,1.855,0.099,2.568,0.162c0.037-0.01,0.078-0.005,0.121,0.011
				c0.062,0.005,0.124,0.01,0.187,0.016c0.019,0.002,0.033,0.01,0.05,0.015c0.081,0.003,0.117,0.01,0.14,0.019
				c0.06,0.009,0.12,0.018,0.182,0.028c0.032,0.16,0.032,0.294,0.051,0.426c0.09,0.736,0.115,0.77,0.306,1.34
				c0.061,0.035,0.124,0.065,0.186,0.096c2.143-0.272,4.314-0.322,6.47-0.219c1.696,0.08,3.362,0.399,5.031,0.702
				c0,0.016,0.002,0.032,0.002,0.048c0.168,0.018,0.333,0.03,0.497,0.041c0.896,0.16,1.794,0.309,2.697,0.407
				c0.017-1.13,0.011-2.119-0.013-2.987c1.798,0.086,4.4,0.444,5.492,0.603c0.433,0.104,0.784,0.168,1.153,0.247
				c0.05,0.015,0.103,0.03,0.148,0.045c-0.002-0.004-0.004-0.009-0.005-0.013c0.371,0.083,0.77,0.188,1.297,0.372
				c-0.08-0.971-0.073-0.951-0.201-2.168c-0.099-0.942-0.774-3.802-2.037-4.982c0,0,1.376,0.595,1.796,0.832
				c-1.357-1.838-2.016-4.466-6.279-6.278c0,0,0.778-0.367,1.49-0.46c-0.744-0.458-1.312-0.639-2.065-0.584
				c0.256-0.727,1.382-2.559,2.326-2.795c0,0-0.58-0.403-1.528-0.091c-0.352,0.185-0.694,0.383-1.027,0.617
				c-0.126,0.089-0.309-0.003-0.346-0.141c-0.298-1.102-0.492-2.222-0.668-3.347c8.59-0.311,9.794-4.718,9.794-4.718
				c0.718,0.574,0.717,1.866,0.717,1.866c3.732-4.88,3.302-9.761,3.302-9.761c0.861,0.143,1.579,0.718,1.579,0.718
				c0.431-7.464-1.866-20.239-1.866-20.239c1.148,0.574,1.866-0.143,1.866-0.143c-1.292-0.574-1.435-2.01-1.435-2.01
				C222.458,181.1,222.745,179.378,222.745,179.378z"/>
		</g>
		<path fill="#CDEAF5" d="M140.627,233.534c0,0,0.336-3.63-0.847-6.25c0,0,2.242,0.152,2.619,6.073
			C142.399,233.357,140.829,233.539,140.627,233.534z"/>
		<path fill="#CDEAF5" d="M129.373,221.291l0.014-0.111C129.395,221.235,129.393,221.277,129.373,221.291z"/>
		<path fill="#CDEAF5" d="M131.472,233.252c-0.013-0.003-0.02-0.005-0.02-0.005s0.009-0.025,0.026-0.068L131.472,233.252z"/>
		<path fill="#CDEAF5" d="M160.016,74.16c-0.717-5.742,0.863-10.77,0.863-10.77c-17.368,7.32-21.961,23.532-21.961,23.532
			c-1.148-2.727-1.291-8.918-1.291-8.918s-7.177,12.022-8.469,20.346c-1.292,8.326,1.148,32.225,1.148,32.225
			s-1.148-1.435-3.588-1.722c0,0,2.584,2.871,2.584,9.33c0,0-1.005-0.861-2.728-0.431c0,0,2.727,2.44,3.014,6.603
			c0,0-3.158,2.153-4.88,4.306c0,0-2.728,0.143-4.163,0.574c0,0,2.297,1.292,2.728,2.44c0,0-6.746,6.89-10.191,12.488
			c0,0,3.014-1.866,5.167-1.292c0,0-4.737,5.741-6.316,15.215c0,0,2.296-1.148,3.301-0.574c0,0-2.871,6.028-3.014,12.344
			l-3.158,1.866l2.44,1.722c0,0-1.866,7.751-2.297,12.201c0,0,1.435-1.435,2.584-1.866c0,0,1.579,3.732,3.732,6.603
			s7.034,5.311,9.904,5.311l0.363-0.05c-0.16,0.99-0.34,1.976-0.603,2.947c-0.037,0.137-0.22,0.23-0.346,0.141
			c-0.333-0.235-0.675-0.433-1.027-0.617c-0.948-0.312-1.528,0.091-1.528,0.091c0.945,0.236,2.07,2.068,2.326,2.795
			c-0.753-0.055-1.321,0.126-2.065,0.584c0.712,0.092,1.49,0.46,1.49,0.46c-4.262,1.812-4.922,4.44-6.279,6.278
			c0.42-0.237,1.796-0.832,1.796-0.832c-1.263,1.18-1.938,4.04-2.037,4.982c-0.128,1.217-0.121,1.197-0.201,2.168
			c1.13-0.393,1.679-0.431,2.594-0.651c1.413-0.206,5.363-0.589,6.814-0.438l-0.229,2.949c0,0,0.029,0,0.071,0
			c0.745-1,1.352-0.344,2.016-0.416c0.01-0.769,0.05-1.617,0.113-2.383c-0.045-1.31,0.118-2.542,0.386-3.871
			c0.009-0.045,0.02-0.111,0.029-0.156c0.527-1.815,1.444-2.858,2.039-3.493c0.198-0.211,0.369-0.466,0.516-0.722
			c0.355-0.473,0.725-1.092,1.01-1.869c0.59-1.61,0.337-5.149-0.849-8.601c1.251,1.799,2.389,3.377,2.929,3.917l-0.036-4.396
			c0,0,2.296,2.295,4.352,4.029c0.99,0.864,2.21,1.897,3.077,2.344c0.063,0.04,0.119,0.161,0.188,0.161l0,0
			c0.009,0,0.017-0.033,0.026-0.028c1.164,0.653,2.362,1.217,3.483,1.943c0.12,0.077,0.243,0.138,0.36,0.219
			c0.519,0.357,1.432,0.766,2.253,1.199l0.776,9.173c0.7-9.635,6.19-18.858,6.19-18.858l-0.201-0.06
			c-1.699-0.525-14.129-4.825-21.473-20.18c-0.484-1.011,2.727,1.148,2.727,1.148c-3.014-7.32-4.163-19.091-4.163-19.091
			c1.005,0.861,2.01,1.005,2.01,1.005c-2.153-6.029-3.014-13.493-3.014-20.239c-0.574-36.315,12.847-44.64,12.847-44.64
			c-2.296-0.861-4.737-0.789-4.737-0.789c2.656-6.387,11.483-15.287,11.483-15.287c-2.368,0.144-11.627,2.655-11.627,2.655
			c7.679-20.024,15.431-25.334,15.431-25.334c-0.574,4.808,1.292,9.904,1.292,9.904c16.651-20.598,30.028-19.637,30.028-19.637
			c0.992-2.066,2.119-3.475,2.119-3.475C170.204,60.669,160.016,74.16,160.016,74.16z"/>
		<path fill="#CDEAF5" d="M207.081,233.42c0,0-0.162-5.204-1.346-7.823c0,0,3.086,1.902,3.069,7.912
			C208.804,233.509,207.282,233.426,207.081,233.42z"/>
		<path fill="#ACDBE3" d="M126.786,206.657c2.033-19.91,2.586-58.859,2.586-58.859c-4.414,8.72-7.966,24.545-7.966,24.545
			l0.861,3.445l-1.938-0.861c-3.114,10.809-1.007,25.278-0.309,29.354C122.002,205.85,124.361,206.379,126.786,206.657z"/>
		<path fill="#ACDBE3" d="M122.623,206.227c0.631,3.187,1.286,6.255,2.013,9.421c0.538,0.081,1.144,0.04,1.144,0.04
			c0.494-1.925,0.576-4.905,0.96-8.569C125.325,206.953,123.936,206.702,122.623,206.227z"/>
		<path fill="#CDEAF5" d="M190.081,223.384c-0.116,0.034-0.204-0.018-0.251-0.097c-0.223,0.044-0.394,0.084-0.509,0.114l0,0
			c2.961-2.155,3.233-4.434,3.233-4.434c-1.964,0.886-4.05,1.217-5.064,1.333c6.845-5.933,7.982-16.95,7.982-16.95
			c-2.804,3.442-6.782,6.35-9.857,8.302l0.007-0.013c0,0-2.06,1.152-3.964,2.049c-0.084-0.013-0.167,0.01-0.23,0.107
			c-0.978,0.453-1.89,0.823-2.427,0.912c0,0,1.585,2.927,2.247,4.506l-0.13,0.105c0,0,2.294,5.421,3.128,10.672
			c0.088,0.887,0.156,1.665,0.204,2.259c0.04,0.768,0.095,1.298,0.095,1.298c3.032-0.449,7.316-0.012,7.316-0.012
			c-0.021,0.494,0.251,1.68,0.301,1.895c1.44-0.194,2.893-0.279,4.346-0.291C196.489,230.047,196.265,221.591,190.081,223.384z"/>
		<path fill="#85C1CE" d="M126.628,208.193c-4.756-0.804-9.071-6.27-9.071-6.27c3.467,3.687,7.784,4.181,7.784,4.181
			c0.57-4.211-2.91-13.848-2.91-13.848c2.577,3.21,3.987,6.923,4.758,9.961L126.628,208.193z"/>
		<path fill="#ACDBE3" d="M137.42,200.738c0,0,3.741,6.594,7.024,9.447c3.543,3.079,6.836,7.428,8.236,10.066
			c0,0,1.776-4.126,2.745-5.562C155.425,214.688,144.929,211.611,137.42,200.738z"/>
		<path fill="#ACDBE3" d="M186.249,213.598c0.52-0.732,1.116-1.412,1.684-2.107c0.931-1.14,1.995-2.246,2.776-3.487
			c-1.349,1.01-2.851,1.884-4.387,2.808c-4.457,3.02-7.563,3.876-7.563,3.876c0.969,1.436,2.745,5.562,2.745,5.562
			c0.847-1.596,2.39-3.82,4.26-6.009C185.921,214.023,186.095,213.814,186.249,213.598z"/>
		<path fill="#5C5B5D" d="M136.001,102.545c-0.408,0.029-1.714,0.063-1.714,0.063c-11.835,0.826-20.534-8.345-20.534-8.345
			s-0.778,7.159,4.363,13.432c5.143,6.273,15.563,7.347,15.563,7.347c0.339,1.467-0.395,4.738-0.395,4.738s3.047-3.371,3.821-9.757
			C137.649,105.546,136.253,102.526,136.001,102.545"/>
		<path fill="#747F83" d="M136.001,102.545c-0.392,0.022-1.714,0.063-1.714,0.063c-11.835,0.826-20.534-8.345-20.534-8.345
			s5.407,15.646,23.463,14.41C137.215,108.672,137.715,105.778,136.001,102.545"/>
		<path fill="#5C5B5D" d="M195.088,102.545c0.408,0.029,1.714,0.063,1.714,0.063c11.835,0.826,20.534-8.345,20.534-8.345
			s0.778,7.159-4.363,13.432c-5.143,6.273-15.563,7.347-15.563,7.347c-0.339,1.467,0.395,4.738,0.395,4.738
			s-3.047-3.371-3.821-9.757C193.44,105.546,194.836,102.526,195.088,102.545"/>
		<path fill="#747F83" d="M195.088,102.545c0.392,0.022,1.714,0.063,1.714,0.063c11.835,0.826,20.534-8.345,20.534-8.345
			s-5.407,15.646-23.463,14.41C193.873,108.672,193.374,105.778,195.088,102.545"/>
		<path fill="#CDEAF5" d="M130,155.55c0,0-9,30.574,0,50.167V155.55z"/>
		<path fill="#CDEAF5" d="M214.527,203.912c-4.199,3.204-8.567,3.407-8.567,3.407c-0.195-4.186,4.381-13.337,4.381-13.337
			c-1.041,0.615-1.878,1.358-2.566,2.174l-0.03-3.071l3.301-2.727l-2.655-2.153l3.373-13.564l-3.23,2.153
			c0,0-1.004-19.305-0.287-27.631c0,0-4.091-4.091-6.101-5.742c0,0,0.38,5.944,0.813,15.442c1.833,7.619,4.681,23.385,1.139,37.252
			c0.041,2.811,0.071,5.665,0.087,8.547c0,0,1.765,6.133,2.339,10.439c0,0,0.574,0.161,1.435,0.018l-0.065-6.595
			C212.33,207.184,214.527,203.912,214.527,203.912z"/>
		<ellipse fill="#CDEAF5" cx="179.396" cy="144.711" rx="4.665" ry="5.904"/>
		<ellipse fill="#FFFFFF" cx="179.468" cy="143.134" rx="4.593" ry="5.813"/>
		<path fill="#4F4E51" d="M178.248,140.137c-0.037,0.143-0.062,0.291-0.062,0.449c0,0.819,0.534,1.482,1.192,1.482
			c0.585,0,1.069-0.524,1.17-1.215c0.375,0.492,0.606,1.155,0.606,1.886c0,1.516-0.988,2.745-2.207,2.745s-2.207-1.229-2.207-2.745
			C176.741,141.527,177.372,140.501,178.248,140.137z"/>
		<ellipse fill="#CDEAF5" cx="157.004" cy="144.711" rx="4.665" ry="5.904"/>
		<ellipse fill="#FFFFFF" cx="157.076" cy="143.134" rx="4.593" ry="5.813"/>
		<path fill="#4F4E51" d="M156.717,140.137c-0.037,0.143-0.062,0.291-0.062,0.449c0,0.819,0.534,1.482,1.192,1.482
			c0.585,0,1.069-0.524,1.17-1.215c0.375,0.492,0.606,1.155,0.606,1.886c0,1.516-0.988,2.745-2.207,2.745s-2.207-1.229-2.207-2.745
			C155.21,141.527,155.841,140.501,156.717,140.137z"/>
		<path fill="#5C5B5D" d="M195.176,137.621c-2.08-0.304-5.711-0.649-10.069-0.426c-5.672,0.292-10.531,1.079-13.434,1.549
			c-0.867,0.14-1.548,0.251-2.067,0.32l-0.567,0.077c-0.637,0.088-1.054,0.143-1.41,0.161c-0.356-0.018-0.773-0.073-1.41-0.161
			l-0.567-0.077c-0.519-0.069-1.2-0.18-2.067-0.32c-2.903-0.47-7.762-1.257-13.434-1.549c-4.358-0.222-7.989,0.122-10.069,0.426
			c0,0-2.22,0.283-4.119,1.086l0.362,2.413c0,0,2.006-0.478,3.966-0.739c0.364,3.403,1.073,7.776,1.073,7.776l0.011,0.135
			c0.054,0.22,0.104,0.434,0.158,0.668c0.404,1.72,0.804,2.73,2.417,3.336c1.584,0.598,5.331,1.151,9.11,1.346
			c1.405,0.073,3-0.014,4.613-0.249c2.392-0.349,4.556-0.993,5.383-1.605c1.203-0.889,1.847-3.126,2.273-4.606l0.127-0.437
			c0.151-0.505,0.281-1.035,0.408-1.549c0.182-0.738,0.369-1.501,0.529-1.764c0.029-0.046,0.164-0.205,0.69-0.282
			c0.163-0.024,0.346-0.036,0.547-0.039c0.201,0.003,0.384,0.015,0.547,0.039c0.526,0.077,0.661,0.236,0.69,0.282
			c0.16,0.263,0.348,1.026,0.529,1.764c0.127,0.514,0.257,1.044,0.408,1.549l0.127,0.437c0.426,1.48,1.069,3.717,2.272,4.606
			c0.827,0.611,2.99,1.255,5.383,1.605c1.613,0.235,3.208,0.321,4.613,0.249c3.779-0.195,7.526-0.748,9.11-1.346
			c1.612-0.606,2.013-1.617,2.417-3.336c0.054-0.233,0.104-0.447,0.158-0.668l0.011-0.135c0,0,0.709-4.373,1.073-7.776
			c1.96,0.262,3.966,0.739,3.966,0.739l0.362-2.413C197.396,137.904,195.176,137.621,195.176,137.621z M163.887,142.861l-0.005,0.04
			c-0.095,0.782-0.609,4.749-1.445,6.1c-0.81,1.305-1.097,1.631-3.615,2.057c-0.108,0.018-0.221,0.035-0.338,0.052
			c-2.717,0.397-7.678,0.466-10.453-0.066l-0.193-0.037c-2.832-0.548-3.826-0.782-4.119-1.663c-0.396-1.191-1.155-6.694-1.211-7.874
			c-0.043-0.896,0.799-1.305,1.028-1.366c0.143-0.038,0.373-0.08,0.685-0.126c1.988-0.291,6.336-0.576,8.387-0.486
			c2.598,0.117,8.938,1.012,10.367,1.652C164.037,141.62,163.987,142.034,163.887,142.861z M191.54,149.344
			c-0.293,0.881-1.287,1.115-4.119,1.663l-0.193,0.037c-2.775,0.533-7.736,0.463-10.453,0.066c-0.117-0.017-0.23-0.034-0.338-0.052
			c-2.518-0.426-2.805-0.752-3.615-2.057c-0.836-1.351-1.351-5.318-1.445-6.1l-0.005-0.04c-0.1-0.827-0.15-1.241,0.912-1.716
			c1.429-0.64,7.769-1.535,10.367-1.652c2.051-0.09,6.399,0.195,8.387,0.486c0.312,0.046,0.542,0.088,0.685,0.126
			c0.229,0.061,1.071,0.47,1.028,1.366C192.695,142.65,191.935,148.153,191.54,149.344z"/>
		<path fill="#A1D4E9" d="M158.444,131.51c0,0-5.189-2.475-8.159,2.12c0,0-0.307-4.569,3.884-5.08
			C158.359,128.039,158.444,131.51,158.444,131.51z"/>
		<path fill="#A1D4E9" d="M156.497,124.796c0,0-4.81-2.27-7.002,2.093c0,0-0.716-3.812,2.717-4.732
			C155.645,121.237,156.497,124.796,156.497,124.796z"/>
		<path fill="#A1D4E9" d="M177.031,134.312c0,0,4.03-1.922,6.336,1.647c0,0,0.238-3.549-3.016-3.946
			C177.096,131.616,177.031,134.312,177.031,134.312z"/>
		<path fill="#A1D4E9" d="M179.896,127.956c0,0,4.078-0.66,4.776,3.067c0,0,1.354-2.691-1.01-4.115
			C181.297,125.482,179.896,127.956,179.896,127.956z"/>
		<path fill="#B2DEEF" d="M158.083,167.709c0,0,2.847-1.913,4.528-2.177c0,0,0.367,3.611,2.037,5.39c0,0,3.604-3.249,7.168-3.48
			c0,0,0.92,1.98,2.414,2.714l-0.008,0.023c0.539,0.336,1.199,0.677,1.839,0.819c0,0,2.045-1.238,2.638-3.499
			c0,0,0.197,4.773-2.799,7.374c0,0-2.285-1.115-3.931-2.9c-0.494-0.482-1.008-1.041-1.258-1.497c0,0-5.286,3.739-5.479,5.872
			c0,0-3.815-3.72-5.117-6.586c0,0-2.546,0.804-3.253,1.322c0,0-2.047-3.347-2.462-6.368
			C154.399,164.717,156.861,167.068,158.083,167.709z"/>
	</g>
	<path fill="#5C5B5D" d="M160.615,161.118c0,0,3.04-1.18,3.629-2.27c0,0,7.828,0.564,12.864-3.204
		C177.108,155.645,171.963,168.148,160.615,161.118z"/>
</g>
</svg>
