<?xml version="1.0" encoding="utf-8"?>
<!-- Generator: Adobe Illustrator 16.0.4, SVG Export Plug-In . SVG Version: 6.00 Build 0)  -->
<!DOCTYPE svg PUBLIC "-//W3C//DTD SVG 1.1//EN" "http://www.w3.org/Graphics/SVG/1.1/DTD/svg11.dtd">
<svg version="1.1" id="Layer_1" xmlns="http://www.w3.org/2000/svg" xmlns:xlink="http://www.w3.org/1999/xlink" x="0px" y="0px"
	 width="252.536px" height="153.165px" viewBox="0 0 252.536 153.165" enable-background="new 0 0 252.536 153.165"
	 xml:space="preserve">
<g>
	<path fill="#DA4648" stroke="#DA4648" stroke-miterlimit="10" d="M67.533,79.118c-0.176,0.26-0.494,1.079-0.955,2.456
		c-0.461,1.379-1.021,3.107-1.68,5.188c-0.658,2.079-1.373,4.405-2.14,6.979c-0.769,2.573-1.559,5.199-2.371,7.877
		c-0.812,2.68-1.591,5.304-2.337,7.878c-0.748,2.573-1.416,4.899-2.008,6.98c-0.593,2.078-1.086,3.821-1.482,5.226
		c-0.395,1.403-0.637,2.234-0.724,2.496c-0.22,0.831-0.571,1.754-1.053,2.769c-0.484,1.013-1.054,1.976-1.712,2.886
		c-0.659,0.909-1.382,1.663-2.173,2.262c-0.791,0.597-1.603,0.896-2.436,0.896c-1.406,0-2.426-0.468-3.062-1.403
		c-0.638-0.937-0.955-2.651-0.955-5.147c0-0.365,0-0.729,0-1.093c0-0.364,0.021-0.754,0.066-1.169
		c0.043-0.832,0.373-2.394,0.988-4.681c0.614-2.288,1.35-4.874,2.206-7.76c0.856-2.886,1.778-5.875,2.766-8.969
		s1.876-5.862,2.667-8.308c-2.328,2.602-4.851,5.188-7.572,7.761c-2.723,2.574-5.51,4.888-8.363,6.941
		c-2.854,2.056-5.729,3.732-8.626,5.031c-2.897,1.298-5.686,1.95-8.363,1.95c-3.073,0-5.718-0.677-7.935-2.028
		c-2.217-1.353-4.049-3.12-5.498-5.304s-2.525-4.653-3.227-7.409C0.851,98.667,0.5,95.912,0.5,93.156c0-0.362,0-0.702,0-1.015
		c0-0.311,0.021-0.623,0.066-0.935c0.263-4.992,0.976-10.113,2.14-15.365c1.163-5.252,2.688-10.478,4.577-15.677
		c1.887-5.198,4.071-10.282,6.552-15.248c2.479-4.965,5.179-9.658,8.099-14.078c2.919-4.418,6.025-8.487,9.317-12.206
		c3.292-3.717,6.672-6.915,10.141-9.593c3.467-2.677,6.968-4.77,10.502-6.278C55.427,1.254,58.929,0.5,62.396,0.5
		c3.994,0,7.858,1.092,11.589,3.275c3.73,2.184,7.22,5.721,10.47,10.607c0.745,1.092,1.218,2.197,1.415,3.314
		c0.197,1.119,0.296,2.171,0.296,3.159c0,2.339-0.56,4.187-1.679,5.538c-1.119,1.353-2.447,2.028-3.984,2.028
		c-1.405,0-2.71-0.741-3.918-2.223c-1.208-1.482-2.558-3.6-4.05-6.356c-1.405-2.496-2.953-4.302-4.642-5.42
		c-1.69-1.118-3.523-1.677-5.499-1.677c-3.073,0-6.354,1.275-9.844,3.822c-3.49,2.548-6.947,5.916-10.371,10.101
		c-3.425,4.186-6.706,8.968-9.845,14.35c-3.138,5.382-5.916,10.893-8.33,16.535c-2.415,5.642-4.335,11.206-5.761,16.689
		c-1.427,5.486-2.14,10.412-2.14,14.781c0,1.455,0.099,2.951,0.296,4.483c0.198,1.534,0.57,2.926,1.12,4.173
		c0.548,1.248,1.294,2.275,2.239,3.08c0.944,0.809,2.14,1.209,3.589,1.209c1.624,0,3.468-0.545,5.531-1.638
		c2.062-1.091,4.203-2.521,6.42-4.289c2.216-1.768,4.444-3.769,6.684-6.006c2.239-2.234,4.323-4.496,6.255-6.785
		c1.931-2.287,3.644-4.485,5.136-6.591c1.492-2.105,2.611-3.938,3.358-5.498l6.124-18.329c0.746-1.975,1.722-3.378,2.93-4.211
		c1.207-0.831,2.447-1.248,3.721-1.248c0.614,0,1.228,0.105,1.843,0.312c0.614,0.208,1.163,0.533,1.646,0.975
		c0.483,0.442,0.866,1.014,1.152,1.716c0.285,0.702,0.428,1.521,0.428,2.456c0,2.496-0.22,4.836-0.658,7.02
		c-0.439,2.186-0.999,4.316-1.679,6.396c-0.681,2.079-1.438,4.173-2.271,6.278C69.134,74.632,68.322,76.83,67.533,79.118z"/>
	<path fill="#DA4648" stroke="#DA4648" stroke-miterlimit="10" d="M150.565,94.405c-1.933,2.6-4.182,5.134-6.749,7.604
		c-2.568,2.47-5.214,4.667-7.935,6.591c-2.723,1.923-5.4,3.47-8.033,4.64c-2.634,1.17-5.004,1.755-7.111,1.755
		s-3.819-0.702-5.137-2.105c-1.316-1.403-1.975-3.795-1.975-7.176c0-2.392,0.351-5.174,1.053-8.346
		c-1.142,2.029-2.567,4.083-4.279,6.162c-1.713,2.08-3.666,3.978-5.861,5.694c-2.195,1.716-4.653,3.106-7.375,4.171
		c-2.722,1.065-5.686,1.6-8.889,1.6c-1.448,0-2.843-0.183-4.182-0.547c-1.34-0.363-2.513-0.986-3.522-1.871
		c-1.011-0.883-1.822-2.065-2.437-3.549c-0.615-1.48-0.922-3.34-0.922-5.576c0-0.052,0.088-0.845,0.264-2.379
		c0.174-1.533,0.734-3.951,1.679-7.254c0.943-3.3,2.404-7.577,4.379-12.829c1.976-5.252,4.763-11.62,8.362-19.107
		c0.922-1.976,1.986-3.393,3.193-4.251c1.208-0.858,2.513-1.287,3.918-1.287c0.615,0,1.251,0.092,1.91,0.272
		c0.659,0.184,1.272,0.468,1.844,0.858c0.57,0.39,1.031,0.885,1.383,1.481c0.352,0.598,0.527,1.286,0.527,2.067
		c0,0.52-0.066,1.015-0.198,1.48c-0.22,0.887-0.691,2.042-1.416,3.471c-0.725,1.431-1.569,3.07-2.534,4.915
		c-0.967,1.846-1.987,3.835-3.062,5.967c-1.076,2.132-2.074,4.341-2.996,6.629c-0.922,2.289-1.712,4.615-2.37,6.98
		c-0.659,2.366-1.032,4.667-1.119,6.901c0,0.937,0.219,1.795,0.658,2.574c0.438,0.78,1.162,1.171,2.173,1.171
		c2.853,0,5.574-0.937,8.165-2.809c2.59-1.871,4.981-4.198,7.178-6.98c2.194-2.78,4.181-5.771,5.958-8.969
		c1.778-3.198,3.261-6.122,4.445-8.774c0.834-1.768,1.568-3.666,2.206-5.694c0.636-2.027,1.327-3.898,2.074-5.615
		c0.746-1.716,1.602-3.145,2.567-4.289c0.965-1.144,2.173-1.716,3.622-1.716c1.58,0,2.83,0.599,3.753,1.793
		c0.922,1.197,1.382,2.626,1.382,4.29c0,0.937-0.295,2.223-0.888,3.86c-0.594,1.639-1.34,3.511-2.24,5.616
		c-0.899,2.105-1.876,4.354-2.929,6.746c-1.054,2.393-2.032,4.823-2.93,7.292c-0.901,2.471-1.646,4.889-2.239,7.255
		c-0.593,2.365-0.889,4.562-0.889,6.589c0,1.873,0.965,2.808,2.896,2.808c1.36,0,3.051-0.468,5.069-1.402
		c2.021-0.937,4.138-2.25,6.355-3.939c2.216-1.689,4.433-3.679,6.65-5.966c2.216-2.288,4.182-4.758,5.893-7.41L150.565,94.405z"/>
	<path fill="#DA4648" stroke="#DA4648" stroke-miterlimit="10" d="M152.607,90.503c-0.483,1.197-0.955,2.588-1.416,4.174
		c-0.462,1.586-0.691,3.002-0.691,4.25c0,0.779,0.132,1.403,0.395,1.872c0.264,0.468,0.769,0.702,1.516,0.702
		c0.921,0,2.073-0.324,3.456-0.975c1.382-0.65,2.874-1.509,4.478-2.574c1.603-1.064,3.271-2.287,5.004-3.666
		c1.733-1.377,3.457-2.808,5.169-4.289c1.713-1.483,3.347-2.964,4.906-4.445c1.558-1.483,2.952-2.848,4.182-4.095
		c0.351-0.364,0.767-0.625,1.251-0.78c0.481-0.156,0.899-0.234,1.251-0.234c0.877,0,1.603,0.364,2.173,1.093
		c0.569,0.728,0.855,1.688,0.855,2.886c0,1.091-0.308,2.313-0.921,3.665c-0.615,1.353-1.69,2.679-3.228,3.977
		c-2.81,3.069-5.64,5.98-8.494,8.736c-2.854,2.756-5.695,5.186-8.526,7.291c-2.832,2.107-5.642,3.783-8.429,5.032
		c-2.788,1.247-5.498,1.871-8.133,1.871c-1.8,0-3.304-0.286-4.51-0.857c-1.209-0.573-2.173-1.353-2.897-2.339
		c-0.725-0.989-1.241-2.158-1.548-3.511c-0.308-1.352-0.46-2.78-0.46-4.289c0-2.548,0.318-5.16,0.954-7.84
		c0.636-2.676,1.393-5.134,2.271-7.369c1.536-4.057,3.096-8.084,4.676-12.089c1.579-4.003,3.028-7.669,4.347-10.998l19.95-50.305
		c0.79-2.028,1.854-3.458,3.194-4.29c1.339-0.831,2.688-1.248,4.05-1.248c1.359,0,2.601,0.442,3.721,1.326
		c1.118,0.885,1.679,2.314,1.679,4.29c0,0.936-0.188,1.924-0.561,2.963c-0.373,1.042-0.845,2.158-1.415,3.354
		c-1.098,2.444-2.403,5.434-3.918,8.968c-1.515,3.537-3.14,7.384-4.874,11.543c-1.733,4.161-3.512,8.489-5.332,12.986
		c-1.823,4.497-3.601,8.878-5.335,13.142c-1.733,4.265-3.357,8.306-4.872,12.128C155.01,84.381,153.704,87.696,152.607,90.503z"/>
	<path fill="#DA4648" stroke="#DA4648" stroke-miterlimit="10" d="M245.912,76.387c0.615-0.416,1.187-0.753,1.713-1.015
		c0.526-0.258,1.031-0.39,1.515-0.39c0.964,0,1.689,0.43,2.173,1.287c0.482,0.858,0.724,1.911,0.724,3.159
		c0,1.354-0.295,2.729-0.889,4.134c-0.592,1.403-1.481,2.573-2.667,3.509c-4.698,4.16-8.89,7.955-12.575,11.388
		c-3.688,3.431-7.168,6.383-10.438,8.853c-3.27,2.47-6.463,4.381-9.58,5.732c-3.117,1.351-6.453,2.027-10.01,2.027
		c-3.336,0-5.915-0.729-7.736-2.184c-1.822-1.455-2.733-3.457-2.733-6.006c0-0.207,0-0.401,0-0.585c0-0.181,0.021-0.402,0.066-0.663
		c0.174-1.559,0.856-3.354,2.041-5.381c1.186-2.028,2.612-4.134,4.28-6.317s3.445-4.394,5.334-6.63
		c1.887-2.234,3.631-4.354,5.235-6.357c1.602-2,2.93-3.833,3.982-5.498c1.055-1.663,1.581-3.014,1.581-4.055
		c0-0.624-0.221-1.117-0.658-1.482c-0.438-0.363-1.164-0.545-2.173-0.545c-1.757,0-3.566,0.454-5.432,1.365
		c-1.867,0.908-3.711,2.131-5.532,3.664c-1.822,1.535-3.601,3.29-5.334,5.265c-1.734,1.977-3.357,4.03-4.873,6.162
		c-1.515,2.133-2.896,4.276-4.148,6.435c-1.251,2.157-2.316,4.146-3.193,5.966c-0.263,0.572-0.637,1.379-1.12,2.418
		c-0.483,1.041-1.01,2.211-1.579,3.511c-0.572,1.299-1.175,2.64-1.812,4.015c-0.637,1.379-1.218,2.68-1.744,3.9
		c-0.527,1.222-1,2.312-1.416,3.276c-0.418,0.961-0.715,1.624-0.889,1.988c-0.221,0.468-0.583,1.351-1.087,2.651
		c-0.505,1.3-1.086,2.82-1.746,4.563c-0.657,1.741-1.35,3.574-2.073,5.498s-1.404,3.744-2.041,5.46
		c-0.637,1.715-1.197,3.223-1.679,4.523c-0.483,1.299-0.791,2.184-0.923,2.651c-0.438,1.352-0.955,2.625-1.547,3.822
		c-0.593,1.195-1.273,2.248-2.041,3.159c-0.768,0.908-1.647,1.637-2.634,2.184c-0.989,0.546-2.097,0.818-3.325,0.818
		c-1.581,0-2.886-0.378-3.919-1.131c-1.03-0.754-1.547-2.197-1.547-4.329c0-1.04,0.131-2.105,0.395-3.196
		c0.265-1.093,0.594-2.173,0.988-3.238c0.395-1.066,0.802-2.105,1.218-3.118c0.418-1.015,0.803-1.989,1.152-2.926
		c2.371-5.2,4.785-10.412,7.243-15.638c2.459-5.226,4.818-10.397,7.078-15.521c2.261-5.121,4.357-10.152,6.29-15.092
		c1.931-4.939,3.533-9.671,4.806-14.194c0.351-0.937,0.834-2.262,1.449-3.979c0.614-1.715,1.316-3.404,2.107-5.069
		c0.79-1.663,1.679-3.106,2.666-4.327c0.988-1.222,2.052-1.834,3.193-1.834c1.757,0,3.029,0.402,3.819,1.209
		c0.791,0.807,1.186,1.988,1.186,3.549c0,0.312-0.044,0.807-0.131,1.481c-0.089,0.676-0.198,1.393-0.329,2.146
		c-0.132,0.754-0.275,1.469-0.429,2.146c-0.154,0.676-0.297,1.169-0.429,1.48c1.624-1.768,3.38-3.522,5.269-5.264
		c1.887-1.741,3.841-3.316,5.861-4.719c2.018-1.403,4.082-2.547,6.189-3.433c2.107-0.883,4.214-1.325,6.321-1.325
		c1.447,0,2.886,0.208,4.312,0.624c1.426,0.416,2.7,1.027,3.819,1.832c1.12,0.808,2.03,1.821,2.732,3.042
		c0.701,1.223,1.053,2.64,1.053,4.251c0,2.133-0.537,4.407-1.612,6.825c-1.076,2.417-2.426,4.848-4.049,7.291
		c-1.626,2.445-3.382,4.823-5.269,7.137c-1.889,2.314-3.654,4.42-5.301,6.317c-1.646,1.898-3.028,3.51-4.148,4.835
		c-1.119,1.327-1.702,2.224-1.745,2.691c0,0.625,0.198,1.131,0.593,1.521s1.054,0.585,1.976,0.585c0.746,0,1.844-0.417,3.293-1.249
		c1.447-0.831,3.478-2.274,6.09-4.327c2.61-2.054,5.927-4.81,9.943-8.269C235.081,85.995,240.03,81.639,245.912,76.387z"/>
</g>
<g>
</g>
<g>
</g>
<g>
</g>
<g>
</g>
<g>
</g>
<g>
</g>
</svg>
