<?xml version="1.0" encoding="UTF-8" ?>
<!DOCTYPE svg PUBLIC "-//W3C//DTD SVG 1.1//EN" "http://www.w3.org/Graphics/SVG/1.1/DTD/svg11.dtd">
<svg width="480" height="300" viewBox="0 0 480 300" version="1.1" xmlns="http://www.w3.org/2000/svg">
  <path fill="#ffffff" d=" M 0.00 0.00 L 480.00 0.00 L 480.00 300.00 L 0.00 300.00 L 0.00 0.00 Z" />
  <path fill="#423426" d=" M 131.02 19.82 C 145.16 10.34 161.82 3.93 179.01 4.01 C 195.08 3.94 211.56 8.55 224.05 18.94 C 230.45 24.12 235.62 30.62 240.01 37.54 C 247.91 24.77 259.45 13.92 273.68 8.69 C 291.02 2.18 310.62 2.63 327.93 9.01 C 343.05 14.53 356.27 24.15 368.26 34.73 C 377.64 43.01 386.32 52.07 395.98 60.04 C 401.07 64.17 406.54 68.04 412.80 70.18 C 421.12 73.02 430.96 70.34 436.91 63.93 C 442.42 57.93 442.08 47.56 436.01 42.08 C 432.15 38.75 425.55 39.42 422.82 43.86 C 420.43 47.38 421.77 51.77 423.64 55.18 C 418.67 51.55 413.69 46.49 413.71 39.89 C 412.68 32.26 418.34 25.53 425.12 22.86 C 438.35 17.57 454.94 22.13 463.29 33.78 C 471.32 44.65 471.96 58.94 470.56 71.89 C 468.87 84.19 461.99 95.67 451.79 102.79 C 437.47 113.01 419.32 116.18 402.05 115.96 C 385.45 115.51 369.02 111.76 353.64 105.56 C 327.92 95.22 303.85 80.93 277.29 72.67 C 268.48 69.25 259.11 67.40 249.69 66.83 C 249.71 122.23 249.59 177.64 249.68 233.05 C 249.61 251.51 249.85 269.99 249.57 288.44 C 249.43 286.29 249.30 284.14 249.25 282.00 C 249.41 210.22 249.32 138.45 249.29 66.67 C 242.19 66.78 235.08 66.43 228.00 66.91 C 219.36 67.74 210.77 69.51 202.68 72.68 C 175.67 81.08 151.24 95.73 125.03 106.09 C 102.90 114.70 78.38 118.70 54.89 113.92 C 41.75 111.26 28.67 105.45 19.80 95.10 C 12.21 86.30 8.57 74.52 8.93 62.98 C 8.51 52.09 10.90 40.52 18.10 32.04 C 24.80 24.00 35.59 19.92 45.95 20.82 C 52.62 21.13 59.38 24.04 63.50 29.41 C 66.74 33.66 66.94 39.48 65.52 44.45 C 63.79 48.92 60.22 52.41 56.34 55.09 C 58.32 51.75 59.52 47.34 57.18 43.85 C 54.30 39.20 47.21 38.73 43.46 42.55 C 38.84 47.30 37.87 55.06 40.97 60.88 C 44.33 66.98 51.28 70.46 58.01 71.17 C 68.19 72.05 77.02 65.74 84.49 59.62 C 99.95 46.31 113.87 31.08 131.02 19.82 Z" />
  <path fill="#bab4b1" d=" M 228.00 66.91 C 235.08 66.43 242.19 66.78 249.29 66.67 C 249.32 138.45 249.41 210.22 249.25 282.00 C 249.30 284.14 249.43 286.29 249.57 288.44 C 249.62 289.75 248.61 290.74 247.88 291.70 C 247.84 291.75 247.77 291.84 247.73 291.89 C 244.40 297.35 236.10 297.46 231.65 293.39 C 228.63 290.49 227.91 286.01 227.97 282.01 C 228.01 233.01 228.55 184.00 228.14 135.00 C 228.01 112.30 227.98 89.60 228.00 66.91 Z" />
  <path fill="#423426" d=" M 247.73 291.89 C 247.77 291.84 247.84 291.75 247.88 291.70 C 247.84 291.75 247.77 291.84 247.73 291.89 Z" />
</svg>
