<svg version="1.0" id="Layer_1" xmlns="http://www.w3.org/2000/svg" xmlns:xlink="http://www.w3.org/1999/xlink" x="0px" y="0px" viewBox="0 0 48 48" enable-background="new 0 0 48 48" xml:space="preserve">
<rect x="7" y="31" fill="#00BCD4" width="10" height="10"></rect>
<g>
	<path fill="#00BCD4" d="M35.3,19.3l-5.6-5.6c-0.4-0.4-0.4-1,0-1.4l5.6-5.6c0.4-0.4,1-0.4,1.4,0l5.6,5.6c0.4,0.4,0.4,1,0,1.4
		l-5.6,5.6C36.3,19.7,35.7,19.7,35.3,19.3z"></path>
	<circle fill="#3F51B5" cx="12" cy="13" r="6"></circle>
	<circle fill="#448AFF" cx="36" cy="36" r="6"></circle>
</g>
<g>
	<rect x="11" y="24" fill="#90A4AE" width="2" height="5"></rect>
	<polygon fill="#90A4AE" points="12,21 9,25 15,25 	"></polygon>
</g>
<g>
	<rect x="20" y="12" fill="#90A4AE" width="5" height="2"></rect>
	<polygon fill="#90A4AE" points="28,13 24,10 24,16 	"></polygon>
</g>
<g>
	<rect x="35" y="21" fill="#90A4AE" width="2" height="5"></rect>
	<polygon fill="#90A4AE" points="36,29 39,25 33,25 	"></polygon>
</g>
</svg>
