<?xml version="1.0" encoding="UTF-8" standalone="no"?>
<!-- Created with Inkscape (http://www.inkscape.org/) -->

<svg
   xmlns:dc="http://purl.org/dc/elements/1.1/"
   xmlns:cc="http://creativecommons.org/ns#"
   xmlns:rdf="http://www.w3.org/1999/02/22-rdf-syntax-ns#"
   xmlns:svg="http://www.w3.org/2000/svg"
   xmlns="http://www.w3.org/2000/svg"
   xmlns:sodipodi="http://sodipodi.sourceforge.net/DTD/sodipodi-0.dtd"
   xmlns:inkscape="http://www.inkscape.org/namespaces/inkscape"
   id="svg2"
   version="1.1"
   inkscape:version="0.91 r13725"
   xml:space="preserve"
   width="526.8125"
   height="143.21249"
   viewBox="0 0 526.8125 143.21249"
   sodipodi:docname="MongoDB-Logo.svg"><metadata
     id="metadata8"><rdf:RDF><cc:Work
         rdf:about=""><dc:format>image/svg+xml</dc:format><dc:type
           rdf:resource="http://purl.org/dc/dcmitype/StillImage" /><dc:title></dc:title></cc:Work></rdf:RDF></metadata><defs
     id="defs6"><clipPath
       clipPathUnits="userSpaceOnUse"
       id="clipPath18"><path
         d="m 275.945,28.6719 -29.961,9.9179 c 0,0 3.821,151.6402 -50.867,162.2582 -36.062,41.785 5.551,1784.892 136.559,5.972 0,0 -44.84,-22.515 -53.328,-60.75 -8.485,-38.261 -2.403,-117.3981 -2.403,-117.3981 z"
         id="path20"
         inkscape:connector-curvature="0" /></clipPath><linearGradient
       x1="0"
       y1="0"
       x2="1"
       y2="0"
       gradientUnits="userSpaceOnUse"
       gradientTransform="matrix(344.394,-116.194,-104.815,-309.067,77.7619,575.995)"
       spreadMethod="pad"
       id="linearGradient22"><stop
         style="stop-opacity:1;stop-color:#929669"
         offset="0"
         id="stop24" /><stop
         style="stop-opacity:1;stop-color:#929669"
         offset="0.230769"
         id="stop26" /><stop
         style="stop-opacity:1;stop-color:#fdfcf1"
         offset="1"
         id="stop28" /></linearGradient><clipPath
       clipPathUnits="userSpaceOnUse"
       id="clipPath36"><path
         d="m 292.098,175.105 c 0,0 260.343,171.469 199.351,527.575 -58.738,258.718 -197.418,343.77 -212.32,376.24 -16.406,22.98 -32.93,63.71 -32.93,63.71 l 11.074,-720.864 c 0,0 -22.906,-220.11 34.825,-246.661 z"
         id="path38"
         inkscape:connector-curvature="0" /></clipPath><linearGradient
       x1="0"
       y1="0"
       x2="1"
       y2="0"
       gradientUnits="userSpaceOnUse"
       gradientTransform="matrix(241.166,-936.211,-1007.33,-161.502,203.932,1135.85)"
       spreadMethod="pad"
       id="linearGradient40"><stop
         style="stop-opacity:1;stop-color:#45aa3a"
         offset="0"
         id="stop42" /><stop
         style="stop-opacity:1;stop-color:#3d9439"
         offset="1"
         id="stop44" /></linearGradient><clipPath
       clipPathUnits="userSpaceOnUse"
       id="clipPath52"><path
         d="m 230.742,165.523 c 0,0 -244.2108,166.598 -230.159969,460.543 C 14.6367,920.02 187.121,1064.55 220.715,1090.77 c 21.719,23.15 22.617,32.07 24.297,54.91 15.222,-32.7 12.691,-488.422 14.304,-541.688 6.258,-207.351 -11.484,-399.328 -28.574,-438.469 z"
         id="path54"
         inkscape:connector-curvature="0" /></clipPath><linearGradient
       x1="0"
       y1="0"
       x2="1"
       y2="0"
       gradientUnits="userSpaceOnUse"
       gradientTransform="matrix(422.095,95.9042,131.897,-394.11,-25.0834,595.855)"
       spreadMethod="pad"
       id="linearGradient56"><stop
         style="stop-opacity:1;stop-color:#41a83b"
         offset="0"
         id="stop58" /><stop
         style="stop-opacity:1;stop-color:#5ebc44"
         offset="1"
         id="stop60" /></linearGradient></defs><sodipodi:namedview
     pagecolor="#ffffff"
     bordercolor="#666666"
     borderopacity="1"
     objecttolerance="10"
     gridtolerance="10"
     guidetolerance="10"
     inkscape:pageopacity="0"
     inkscape:pageshadow="2"
     inkscape:window-width="1920"
     inkscape:window-height="1145"
     id="namedview4"
     showgrid="false"
     inkscape:zoom="2.0079853"
     inkscape:cx="210.82244"
     inkscape:cy="57.558266"
     inkscape:window-x="0"
     inkscape:window-y="0"
     inkscape:window-maximized="1"
     inkscape:current-layer="g10" /><g
     id="g10"
     inkscape:groupmode="layer"
     inkscape:label="ink_ext_XXXXXX"
     transform="matrix(1.25,0,0,-1.25,0,143.2125)"><g
       id="g12"
       transform="scale(0.1,0.1)"><g
         id="g14"><g
           id="g16"
           clip-path="url(#clipPath18)"><path
             d="m 275.945,28.6719 -29.961,9.9179 c 0,0 3.821,151.6402 -50.867,162.2582 -36.062,41.785 5.551,1784.892 136.559,5.972 0,0 -44.84,-22.515 -53.328,-60.75 -8.485,-38.261 -2.403,-117.3981 -2.403,-117.3981"
             style="fill:url(#linearGradient22);fill-opacity:1;fill-rule:nonzero;stroke:none"
             id="path30"
             inkscape:connector-curvature="0" /></g></g><g
         id="g32"><g
           id="g34"
           clip-path="url(#clipPath36)"><path
             d="m 292.098,175.105 c 0,0 260.343,171.469 199.351,527.575 -58.738,258.718 -197.418,343.77 -212.32,376.24 -16.406,22.98 -32.93,63.71 -32.93,63.71 l 11.074,-720.864 c 0,0 -22.906,-220.11 34.825,-246.661"
             style="fill:url(#linearGradient40);fill-opacity:1;fill-rule:nonzero;stroke:none"
             id="path46"
             inkscape:connector-curvature="0" /></g></g><g
         id="g48"><g
           id="g50"
           clip-path="url(#clipPath52)"><path
             d="m 230.742,165.523 c 0,0 -244.2108,166.598 -230.159969,460.543 C 14.6367,920.02 187.121,1064.55 220.715,1090.77 c 21.719,23.15 22.617,32.07 24.297,54.91 15.222,-32.7 12.691,-488.422 14.304,-541.688 6.258,-207.351 -11.484,-399.328 -28.574,-438.469"
             style="fill:url(#linearGradient56);fill-opacity:1;fill-rule:nonzero;stroke:none"
             id="path62"
             inkscape:connector-curvature="0" /></g></g><path
         d="m 3181.61,260.406 c 17.27,-13.812 51.81,-19.5 82.26,-19.5 39.48,0 78.14,7.324 115.97,41.426 38.65,34.945 64.98,88.555 64.98,173.848 0,82.047 -31.26,148.66 -95.41,187.652 -36.2,22.742 -83.07,31.672 -136.54,31.672 -15.63,0 -31.26,-0.809 -40.31,-4.867 -2.47,-1.625 -7.41,-8.125 -7.41,-11.383 -1.64,-14.617 -1.64,-125.902 -1.64,-191.699 0,-67.422 0,-161.653 1.64,-173.035 0.84,-9.743 5.76,-26.801 16.46,-34.114 z m -164.18,451.657 c 13.98,0 67.11,-2.434 91.8,-2.434 46.06,0 78.13,2.434 164.49,2.434 72.39,0 133.27,-19.497 176.86,-56.86 52.65,-45.496 80.61,-108.855 80.61,-186.023 0,-109.668 -50.17,-173.028 -100.34,-208.774 -50.19,-37.359 -115.17,-58.484 -208.11,-58.484 -49.36,0 -134.09,1.625 -204.83,2.426 l -0.97,0 c -3.28,6.511 6.06,31.84 11.85,32.5 19.12,2.164 24.3,2.898 33.18,6.554 14.93,6.145 18.46,13.754 20.12,40.567 2.45,50.355 1.64,110.469 1.64,178.711 0,48.734 0.81,143.781 -0.83,173.84 -2.47,25.179 -13.14,31.671 -34.54,36.554 -10.7,2.43 -25.5,4.871 -46.06,7.309 -1.65,4.871 11.02,26.812 15.13,31.68"
         style="fill:#c0bdba;fill-opacity:1;fill-rule:nonzero;stroke:none"
         id="path64"
         inkscape:connector-curvature="0" /><path
         d="m 3749.01,672.254 c -3.28,-0.813 -7.4,-8.938 -7.4,-13 -0.81,-29.234 -1.63,-105.594 -1.63,-158.391 0,-1.625 2.45,-4.062 4.11,-4.062 10.69,-0.821 37,-1.633 59.21,-1.633 31.26,0 49.37,4.07 59.23,8.945 26.32,12.989 38.65,41.422 38.65,72.289 0,70.672 -49.35,97.485 -122.54,97.485 -4.94,0 -18.93,0 -29.63,-1.633 z m 186.72,-324.93 c 0,71.485 -52.63,112.098 -148.88,112.098 -4.11,0 -34.55,0.82 -41.95,-0.813 -2.47,-0.804 -4.92,-2.429 -4.92,-4.054 0,-51.184 -0.84,-133.227 1.63,-165.711 1.65,-13.813 11.53,-33.313 23.86,-38.996 13.17,-7.317 42.76,-8.942 63.33,-8.942 56.76,0 106.93,31.688 106.93,106.418 z m -335.27,364.739 c 7.4,0 29.3,-2.434 85.22,-2.434 52.65,0 95.41,1.617 146.41,1.617 63.33,0 150.52,-22.742 150.52,-116.973 0,-46.3 -32.89,-83.671 -75.66,-101.543 -2.47,-0.812 -2.47,-2.437 0,-3.25 60.87,-15.425 114.33,-52.796 114.33,-124.281 0,-69.859 -43.59,-113.73 -106.93,-141.351 -38.66,-17.051 -86.36,-22.739 -134.91,-22.739 -37.01,0 -136.19,4.063 -191.31,3.239 -5.77,2.449 5.28,28.445 10.2,32.5 13.17,0.808 23.32,1.757 37.31,5.82 19.73,4.875 22.07,11.238 24.54,40.484 1.66,25.176 1.66,115.348 1.66,179.528 0,87.73 0.81,147.027 0,176.269 -0.84,22.75 -9.06,30.063 -24.69,34.125 -12.33,2.43 -32.89,4.871 -49.34,7.309 -4.13,4.062 8.54,28.43 12.65,31.68"
         style="fill:#c0bdba;fill-opacity:1;fill-rule:nonzero;stroke:none"
         id="path66"
         inkscape:connector-curvature="0" /><path
         d="m 657.82,202.277 c -1.371,2.188 -2.82,8.649 -2.515,16.422 0.226,5.91 1.398,9.664 2.508,10.949 15.511,2.45 22.855,4.102 31.574,6.434 14.543,3.606 20.023,11.461 20.879,30.059 2.386,43.812 2.527,125.964 1.652,183.742 l 0.012,1.703 c 0.066,6.195 0.164,14.672 -7.621,20.648 -11.407,7.516 -25.629,13.731 -43.625,19.129 -6.887,2.039 -10.696,5.66 -10.493,9.895 0.215,4.07 4.536,9.246 13.516,10.976 23.816,2.457 86.27,17.325 110.773,28.629 1.45,-1.761 3.739,-5.582 3.297,-11.672 -0.183,-2.562 -0.41,-5.242 -0.632,-8.019 -0.7,-8.164 -1.481,-17.418 -1.481,-26.645 0,-2.718 2.945,-5.293 6.07,-5.293 1.59,0 3.059,0.621 4.254,1.801 46.703,36.551 88.473,49.598 109.977,49.598 35.336,0 62.832,-16.867 84.086,-51.543 1.246,-1.836 2.918,-2.805 4.789,-2.805 1.781,0 3.465,0.918 4.453,2.391 42.947,32.535 85.507,51.957 113.957,51.957 67.34,0 107.56,-50.352 107.56,-134.66 0,-24.227 -0.25,-54.934 -0.46,-83.602 -0.21,-25.148 -0.38,-48.726 -0.38,-65.039 0,-3.957 5.29,-14.926 13.28,-17.121 9.84,-4.789 24.07,-7.234 42.03,-10.332 l 0.69,-0.113 c 1.37,-4.828 -1.49,-23.629 -4.23,-27.477 -4.45,0.035 -10.63,0.356 -18.32,0.742 -13.98,0.719 -33.14,1.684 -55.45,1.684 -44.74,0 -68.12,-0.879 -90.45,-2.32 -1.68,5.578 -2.27,23.57 -0.22,27.32 13.02,2.437 19.46,4.082 27.28,6.394 14.24,4.692 18.34,11.141 19.17,30.032 0.33,13.445 2.91,131.679 -1.67,159.754 -4.22,29.093 -26.18,63.148 -74.19,63.148 -17.81,0 -46.59,-7.398 -74.023,-28.176 -1.703,-1.652 -2.683,-4.863 -2.683,-6.972 l 0.05,-0.54 c 3.231,-15.156 3.231,-32.828 3.231,-59.57 0,-15.238 -0.098,-31.41 -0.184,-47.465 -0.187,-32.597 -0.363,-63.379 0.184,-86.632 0,-15.852 9.595,-19.633 17.315,-22.688 4.19,-0.93 7.52,-1.73 10.85,-2.523 6.47,-1.559 13.15,-3.164 23.06,-4.75 1.35,-3.125 1.47,-12.457 -0.39,-20.438 -1.04,-4.41 -2.23,-6.351 -2.86,-6.984 -24.88,0.851 -50.413,1.597 -87.245,1.597 -11.164,0 -29.398,-0.48 -45.48,-0.91 -13.035,-0.347 -25.383,-0.687 -32.399,-0.715 -1.015,1.606 -2.437,6.75 -2.437,14.161 0,6.886 1.266,11.742 2.566,13.238 3.457,0.64 6.75,1.222 9.891,1.781 8.641,1.539 16.102,2.852 23.262,4.613 12.191,3.715 16.765,10.485 17.656,25.969 2.379,36.152 4.238,140.289 -0.883,166.371 -8.715,41.852 -32.57,63.059 -70.883,63.059 -22.465,0 -50.816,-10.793 -74,-28.153 -3.886,-2.863 -6.824,-10.07 -6.824,-16.722 0,-12.399 -0.039,-27.168 -0.09,-43 -0.156,-52.305 -0.34,-117.403 0.934,-145.578 0.781,-8.657 3.797,-18.965 20.144,-22.766 3.563,-0.996 9.743,-2.031 16.903,-3.211 4.121,-0.687 8.629,-1.434 13.261,-2.266 1.664,-4.476 0.645,-22.031 -2.207,-27.496 -7.144,0.047 -15.941,0.457 -26.031,0.899 -15.414,0.679 -34.578,1.539 -56.426,1.539 -25.707,0 -43.609,-0.86 -57.984,-1.539 -9.641,-0.453 -18.004,-0.86 -26.348,-0.899 l 0,0"
         style="fill:#414044;fill-opacity:1;fill-rule:nonzero;stroke:none"
         id="path68"
         inkscape:connector-curvature="0" /><path
         d="m 1473.84,506.094 c -14.97,0 -28.95,-3.918 -39.35,-11.035 -28.56,-17.352 -43.1,-51.996 -43.1,-102.887 0,-95.305 47.78,-161.856 116.17,-161.856 20.18,0 36.63,5.793 50.3,17.719 21.02,17.129 32.16,52.11 32.16,101.09 0,93.891 -46.69,156.969 -116.18,156.969 l 0,0 z m 13.17,-311.129 c -123.58,0 -167.61,90.547 -167.61,175.269 0,59.184 24.23,105.461 72.04,137.532 33.98,20.863 74.55,32.867 111.2,32.867 94.31,0 160.19,-67.731 160.19,-164.719 0,-65.941 -26.33,-117.984 -76.12,-150.512 -23.88,-14.632 -65.31,-30.437 -99.7,-30.437 l 0,0"
         style="fill:#414044;fill-opacity:1;fill-rule:nonzero;stroke:none"
         id="path70"
         inkscape:connector-curvature="0" /><path
         d="m 2753.57,506.094 c -14.99,0 -28.98,-3.918 -39.37,-11.035 -28.55,-17.352 -43.09,-51.985 -43.09,-102.887 0,-95.305 47.76,-161.856 116.17,-161.856 20.18,0 36.63,5.793 50.3,17.727 21.01,17.121 32.16,52.094 32.16,101.07 0,93.895 -46.69,156.981 -116.17,156.981 l 0,0 z m 13.16,-311.129 c -123.59,0 -167.62,90.539 -167.62,175.262 0,59.199 24.25,105.48 72.06,137.55 33.97,20.86 74.54,32.856 111.18,32.856 94.32,0 160.2,-67.742 160.2,-164.711 0,-65.957 -26.33,-118 -76.12,-150.508 -23.88,-14.644 -65.3,-30.449 -99.7,-30.449 l 0,0"
         style="fill:#414044;fill-opacity:1;fill-rule:nonzero;stroke:none"
         id="path72"
         inkscape:connector-curvature="0" /><path
         d="m 2340.02,509.336 c -38.09,0 -62.71,-30.051 -62.71,-76.555 0,-46.933 21.17,-101.734 80.82,-101.734 10.24,0 28.81,4.547 38.01,14.68 13.86,12.718 22.91,39 22.91,66.753 0,60.653 -29.55,96.856 -79.03,96.856 l 0,0 z m -4.92,-320.859 c -14.31,0 -24.72,-4.161 -30.94,-7.649 -30.15,-19.308 -44.13,-38.59 -44.13,-60.789 0,-20.9374 8.14,-37.5702 25.62,-52.3593 21.17,-17.918 49.72,-26.6406 87.28,-26.6406 73.86,0 106.98,39.6797 106.98,78.9999 0,27.363 -13.75,45.707 -42.03,56.078 -21.8,7.957 -58.21,12.36 -102.78,12.36 l 0,0 z M 2340.02,0 c -44.36,0 -76.33,9.35156 -103.64,30.3398 -26.56,20.4805 -38.46,50.8516 -38.46,71.8402 0,6.031 1.43,21.629 14.55,36.531 7.74,8.777 25.64,25.199 67,53.613 1.27,0.477 2.15,1.731 2.15,3.25 0,1.696 -1.09,3.067 -2.59,3.387 -34.09,13.039 -44.37,34.43 -47.47,46.039 -0.05,0.414 -0.19,1.082 -0.34,1.789 -0.98,4.555 -1.89,8.859 4.27,13.277 4.77,3.403 12.44,7.942 20.56,12.727 11.98,7.07 25.56,15.082 33.08,21.52 1.19,1.16 1.67,2.863 1.39,4.566 -0.29,1.723 -1.29,3.133 -2.76,3.859 -50.45,16.934 -75.85,54.364 -75.85,111.367 0,36.801 16.99,70.063 46.6,91.274 20.29,16.016 71.22,35.273 104.21,35.273 l 1.92,-0.019 c 33.95,-0.805 53.08,-7.903 79.56,-17.699 14.38,-5.321 27.99,-7.477 47.03,-7.477 28.1,0 40.37,8.895 50.9,19.109 0.6,-1.265 2.04,-5.281 2.68,-14.527 0.67,-9.43 -1.91,-23.402 -9.13,-33.375 -5.75,-7.949 -19.06,-13.715 -31.63,-13.715 -1.26,0 -2.5,0.059 -3.69,0.184 -12.94,1.269 -19.02,3.152 -19.08,3.183 l -3.17,-1.105 c -1,-1.457 -0.35,-3.082 0.47,-5.133 0.2,-0.492 0.4,-0.961 0.47,-1.269 1.65,-6.575 4.58,-25.774 4.58,-31.153 0,-59.777 -23.61,-85.851 -49.13,-105.129 -24.35,-18.355 -52.81,-29.394 -84.89,-32.777 l -0.03,0 c -0.65,0 -3.69,-0.273 -9.82,-0.812 -3.95,-0.36 -8.87,-0.805 -9.6,-0.805 l -0.72,-0.094 c -5.58,-1.578 -20.04,-8.445 -20.04,-21.23 0,-10.641 6.56,-23.821 37.83,-26.18 6.34,-0.477 13.14,-0.949 20.24,-1.434 41.29,-2.871 92.85,-6.449 117.12,-14.672 33.38,-12.148 54.15,-42.011 54.15,-77.933 0,-53.649 -38.19,-104.09 -102.14,-134.9103 C 2405.58,7.08984 2374.08,0 2340.02,0 l 0,0"
         style="fill:#414044;fill-opacity:1;fill-rule:nonzero;stroke:none"
         id="path74"
         inkscape:connector-curvature="0" /><path
         d="m 2137.12,230.887 c -18.09,2.437 -31.26,4.875 -46.88,12.183 -2.47,1.625 -5.77,8.938 -5.77,11.375 -1.65,25.184 -1.65,98.293 -1.65,146.215 0,38.996 -6.57,73.11 -23.02,97.492 -19.74,27.614 -47.7,43.86 -83.9,43.86 -32.07,0 -74.85,-21.934 -110.21,-51.992 -0.83,-0.813 -6.26,-5.961 -6.14,2.039 0.12,7.988 1.36,24.25 2.1,34.488 0.75,10.234 -5.39,15.058 -5.39,15.058 -23.03,-11.371 -87.89,-26.769 -111.84,-29.246 -17.51,-3.367 -21.92,-20.179 -3.28,-25.984 l 0,-0.004 c 0,-0.027 0.18,-0.058 0.28,-0.09 19.51,-5.863 32.65,-12.129 42.46,-18.593 7.41,-5.688 6.58,-13.813 6.58,-20.313 0.82,-54.422 0.82,-138.102 -1.65,-183.586 -0.82,-17.875 -5.76,-24.363 -18.92,-27.621 l 1.2,0.402 c -9.87,-2.425 -18.1,-4.058 -30.43,-5.683 -4.12,-4.055 -4.12,-27.614 -0.01,-32.496 8.23,0 50.19,2.445 84.73,2.445 47.7,0 72.38,-2.445 84.72,-2.445 4.93,5.695 6.58,27.629 3.29,32.496 -13.99,0.812 -23.86,2.437 -33.73,4.875 -13.16,3.25 -16.45,9.746 -17.26,24.371 -1.65,38.176 -1.65,119.406 -1.65,174.652 0,15.434 4.11,22.746 9.05,26.809 16.44,14.625 43.59,24.359 67.45,24.359 23.02,0 38.65,-7.308 50.17,-17.047 15.63,-13 21.38,-31.683 23.03,-45.496 3.29,-30.875 2.46,-92.605 2.46,-146.219 0,-29.246 -2.46,-36.558 -13.15,-39.804 -4.94,-2.442 -18.1,-4.875 -33.73,-6.5 -4.93,-4.867 -3.29,-27.614 0,-32.496 21.39,0 46.07,2.445 82.25,2.445 45.25,0 74.03,-2.445 85.55,-2.445 4.93,5.695 6.57,26.82 3.29,32.496"
         style="fill:#414044;fill-opacity:1;fill-rule:nonzero;stroke:none"
         id="path76"
         inkscape:connector-curvature="0" /><path
         d="m 4137.01,270.969 13.92,0 c 11.25,0 15.53,3.926 15.53,14.097 0,10.344 -4.11,13.747 -16.78,13.747 l -12.67,0 0,-27.844 z m 29.63,-43.727 -16.42,35.344 -13.21,0 0,-35.344 -9.64,0 0,80.317 23.75,0 c 17.66,0 24.98,-7.86 24.98,-22.493 0,-11.769 -5.54,-19.269 -15.88,-21.421 l 16.95,-36.403 -10.53,0 z m -15.52,97.973 c -32.32,0 -58.01,-25.516 -58.01,-57.992 0,-31.942 25.69,-57.649 57.82,-57.649 31.95,0 57.65,25.707 57.65,57.649 0,32.652 -24.98,57.992 -57.46,57.992 z m -0.19,-121.352 c -35.69,0 -63.53,27.844 -63.53,63.532 0,35.878 27.84,63.531 63.72,63.531 34.98,0 63.34,-28.016 63.34,-62.629 0,-36.227 -27.83,-64.434 -63.53,-64.434"
         style="fill:#c0bdba;fill-opacity:1;fill-rule:nonzero;stroke:none"
         id="path78"
         inkscape:connector-curvature="0" /></g></g></svg>