<?xml version="1.0" encoding="UTF-8" standalone="no"?>
<!-- Created with Inkscape (http://www.inkscape.org/) -->

<svg
   xmlns:dc="http://purl.org/dc/elements/1.1/"
   xmlns:cc="http://creativecommons.org/ns#"
   xmlns:rdf="http://www.w3.org/1999/02/22-rdf-syntax-ns#"
   xmlns:svg="http://www.w3.org/2000/svg"
   xmlns="http://www.w3.org/2000/svg"
   xmlns:inkscape="http://www.inkscape.org/namespaces/inkscape"
   version="1.1"
   width="232.97501"
   height="62.700001"
   id="svg2"
   xml:space="preserve"><metadata
     id="metadata8"><rdf:RDF><cc:Work
         rdf:about=""><dc:format>image/svg+xml</dc:format><dc:type
           rdf:resource="http://purl.org/dc/dcmitype/StillImage" /></cc:Work></rdf:RDF></metadata><defs
     id="defs6"><clipPath
       id="clipPath18"><path
         d="M 0,501.602 0,0 l 1863.85,0 0,501.602 -1863.85,0 z"
         inkscape:connector-curvature="0"
         id="path20" /></clipPath></defs><g
     transform="matrix(1.25,0,0,-1.25,0,62.7)"
     id="g10"><g
       transform="scale(0.1,0.1)"
       id="g12"><g
         id="g14"><g
           clip-path="url(#clipPath18)"
           id="g16"><path
             d="m 279.48,235.035 c 0,5.418 -2.847,10.399 -7.527,13.086 l -124.687,71.758 c -2.11,1.238 -4.473,1.883 -6.868,1.98 -0.21,0 -1.113,0 -1.289,0 -2.379,-0.097 -4.746,-0.742 -6.882,-1.98 L 7.53906,248.121 C 2.89062,245.434 0,240.453 0,235.035 L 0.273438,41.8125 c 0,-2.6875 1.394532,-5.1875 3.757812,-6.5039 2.31641,-1.3867 5.17578,-1.3867 7.48435,0 l 74.0977,42.4297 c 4.6875,2.7851 7.5429,7.6953 7.5429,13.0664 l 0,90.2733 c 0,5.383 2.8516,10.363 7.5198,13.039 l 31.551,18.172 c 2.351,1.359 4.921,2.023 7.546,2.023 2.571,0 5.207,-0.664 7.493,-2.023 l 31.543,-18.172 c 4.668,-2.676 7.531,-7.656 7.531,-13.039 l 0,-90.2733 c 0,-5.3711 2.89,-10.3125 7.547,-13.0664 l 74.082,-42.4297 c 2.324,-1.3867 5.222,-1.3867 7.527,0 2.297,1.3164 3.742,3.8164 3.742,6.5039 l 0.242,193.2225"
             inkscape:connector-curvature="0"
             id="path22"
             style="fill:#404137;fill-opacity:1;fill-rule:evenodd;stroke:none" /><path
             d="m 933.711,134.426 c 0,-1.344 -0.719,-2.59 -1.887,-3.258 L 889,106.48 c -1.164,-0.668 -2.598,-0.668 -3.762,0 l -42.828,24.688 c -1.164,0.668 -1.883,1.914 -1.883,3.258 l 0,49.453 c 0,1.34 0.719,2.586 1.879,3.262 l 42.828,24.734 c 1.168,0.676 2.602,0.676 3.77,0 l 42.828,-24.734 c 1.16,-0.676 1.879,-1.922 1.879,-3.262 l 0,-49.453 z m 11.57,366.222 c -2.332,1.301 -5.179,1.27 -7.484,-0.082 -2.301,-1.351 -3.715,-3.824 -3.715,-6.492 l 0,-191.355 c 0,-1.879 -1.008,-3.621 -2.633,-4.563 -1.629,-0.945 -3.64,-0.945 -5.273,0 l -31.231,17.992 c -4.656,2.684 -10.39,2.68 -15.047,-0.003 L 755.16,244.156 c -4.664,-2.691 -7.531,-7.66 -7.531,-13.043 l 0,-144.0036 c 0,-5.3789 2.867,-10.3516 7.527,-13.0469 L 879.887,2.02344 c 4.664,-2.691409 10.406,-2.691409 15.07,0 L 1019.71,74.0625 c 4.66,2.6953 7.53,7.668 7.53,13.0469 l 0,358.9646 c 0,5.461 -2.96,10.492 -7.73,13.156 l -74.229,41.418"
             inkscape:connector-curvature="0"
             id="path24"
             style="fill:#404137;fill-opacity:1;fill-rule:evenodd;stroke:none" /><path
             d="m 1391.55,185.172 c 4.64,2.695 7.49,7.656 7.49,13.023 l 0,34.895 c 0,5.367 -2.85,10.332 -7.5,13.027 l -123.93,71.961 c -4.67,2.707 -10.42,2.711 -15.1,0.02 l -124.69,-71.989 c -4.66,-2.691 -7.53,-7.66 -7.53,-13.043 l 0,-143.9644 c 0,-5.4141 2.91,-10.4102 7.61,-13.086 L 1251.82,5.40625 c 4.57,-2.60937 10.17,-2.63672 14.77,-0.08203 l 74.95,41.66018 c 2.38,1.3203 3.86,3.8164 3.87,6.5312 0.02,2.7149 -1.43,5.2305 -3.78,6.5821 l -125.48,72.0233 c -2.35,1.34 -3.79,3.836 -3.79,6.531 l 0,45.118 c 0,2.691 1.44,5.179 3.77,6.523 l 39.06,22.516 c 2.32,1.343 5.19,1.343 7.52,0 l 39.07,-22.516 c 2.33,-1.344 3.77,-3.832 3.77,-6.523 l 0,-35.497 c 0,-2.695 1.44,-5.187 3.77,-6.531 2.34,-1.347 5.21,-1.336 7.54,0.016 l 74.69,43.414"
             inkscape:connector-curvature="0"
             id="path26"
             style="fill:#404137;fill-opacity:1;fill-rule:evenodd;stroke:none" /><path
             d="m 506.301,318.852 c 4.656,2.691 10.398,2.691 15.054,0 l 124.723,-71.973 c 4.664,-2.688 7.535,-7.66 7.535,-13.047 l 0,-144.0547 c 0,-5.3828 -2.871,-10.3515 -7.527,-13.0468 L 521.363,4.69922 c -4.664,-2.69141 -10.406,-2.69141 -15.07,0 L 381.602,76.7305 c -4.661,2.6953 -7.532,7.664 -7.532,13.0468 l 0,144.0627 c 0,5.379 2.871,10.351 7.535,13.039 l 124.696,71.973"
             inkscape:connector-curvature="0"
             id="path28"
             style="fill:#83cd29;fill-opacity:1;fill-rule:evenodd;stroke:none" /><path
             d="m 1633.71,2.64062 c -4.3,0 -8.57,1.125 -12.33,3.30079 l -39.27,23.23439 c -5.86,3.2812 -3,4.4414 -1.07,5.1172 7.83,2.7148 9.41,3.3398 17.76,8.0742 0.87,0.4883 2.02,0.3047 2.92,-0.2227 l 30.16,-17.9101 c 1.1,-0.6055 2.64,-0.6055 3.65,0 l 117.6,67.8789 c 1.1,0.625 1.8,1.8867 1.8,3.1836 l 0,135.7231 c 0,1.328 -0.7,2.57 -1.82,3.242 l -117.56,67.824 c -1.09,0.633 -2.53,0.633 -3.63,0 l -117.53,-67.844 c -1.14,-0.652 -1.86,-1.933 -1.86,-3.222 l 0,-135.7231 c 0,-1.2969 0.72,-2.5274 1.85,-3.1446 l 32.22,-18.6132 c 17.48,-8.7383 28.19,1.5547 28.19,11.8945 l 0,134.0044 c 0,1.894 1.52,3.39 3.41,3.39 l 14.92,0 c 1.86,0 3.4,-1.496 3.4,-3.39 l 0,-134.0044 c 0,-23.3281 -12.7,-36.707 -34.82,-36.707 -6.8,0 -12.15,0 -27.09,7.3632 l -30.84,17.754 c -7.62,4.4023 -12.33,12.6367 -12.33,21.4531 l 0,135.7231 c 0,8.82 4.71,17.05 12.33,21.437 l 117.61,67.957 c 7.44,4.211 17.33,4.211 24.71,0 l 117.6,-67.957 c 7.62,-4.406 12.35,-12.617 12.35,-21.437 l 0,-135.7231 c 0,-8.8164 -4.73,-17.0196 -12.35,-21.4531 L 1646.09,5.94141 c -3.76,-2.17579 -8.02,-3.30079 -12.38,-3.30079"
             inkscape:connector-curvature="0"
             id="path30"
             style="fill:#83cd29;fill-opacity:1;fill-rule:nonzero;stroke:none" /><path
             d="m 1670.04,96.1484 c -51.47,0 -62.25,23.6216 -62.25,43.4376 0,1.883 1.52,3.387 3.4,3.387 l 15.21,0 c 1.7,0 3.11,-1.219 3.38,-2.879 2.29,-15.481 9.14,-23.293 40.26,-23.293 24.77,0 35.32,5.605 35.32,18.75 0,7.578 -2.99,13.203 -41.49,16.972 -32.18,3.184 -52.08,10.293 -52.08,36.036 0,23.73 20,37.882 53.53,37.882 37.68,0 56.32,-13.078 58.68,-41.132 0.09,-0.969 -0.25,-1.895 -0.89,-2.618 -0.65,-0.675 -1.55,-1.086 -2.49,-1.086 l -15.27,0 c -1.58,0 -2.98,1.125 -3.3,2.657 -3.66,16.289 -12.57,21.496 -36.73,21.496 -27.05,0 -30.19,-9.426 -30.19,-16.485 0,-8.554 3.71,-11.046 40.23,-15.878 36.14,-4.778 53.31,-11.543 53.31,-36.946 0,-25.625 -21.37,-40.3006 -58.63,-40.3006"
             inkscape:connector-curvature="0"
             id="path32"
             style="fill:#83cd29;fill-opacity:1;fill-rule:nonzero;stroke:none" /><path
             d="m 1832.21,320.102 0,-3.485 -9.9,0 0,-25.793 -3.99,0 0,25.793 -9.86,0 0,3.485 23.75,0"
             inkscape:connector-curvature="0"
             id="path34"
             style="fill:#83cd29;fill-opacity:1;fill-rule:nonzero;stroke:none" /><path
             d="m 1835.74,320.102 5.69,0 8.4,-24.747 8.37,24.747 5.65,0 0,-29.278 -3.79,0 0,17.278 c 0,0.605 0.01,1.589 0.03,2.957 0.04,1.406 0.06,2.89 0.06,4.464 l -8.37,-24.699 -3.93,0 -8.44,24.699 0,-0.878 c 0,-0.723 0,-1.817 0.05,-3.301 0.03,-1.457 0.07,-2.539 0.07,-3.242 l 0,-17.278 -3.79,0 0,29.278"
             inkscape:connector-curvature="0"
             id="path36"
             style="fill:#83cd29;fill-opacity:1;fill-rule:nonzero;stroke:none" /><path
             d="m 1258.22,191.914 c 0.9,0.52 2,0.52 2.89,0 l 23.94,-13.809 c 0.89,-0.515 1.44,-1.468 1.44,-2.503 l 0,-27.637 c 0,-1.035 -0.55,-1.988 -1.44,-2.504 l -23.94,-13.809 c -0.89,-0.519 -1.99,-0.519 -2.89,0 l -23.91,13.809 c -0.9,0.516 -1.45,1.469 -1.45,2.504 l 0,27.637 c 0,1.035 0.55,1.988 1.45,2.503 l 23.91,13.809"
             inkscape:connector-curvature="0"
             id="path38"
             style="fill:#83cd29;fill-opacity:1;fill-rule:evenodd;stroke:none" /></g></g></g></g></svg>