<svg xmlns="http://www.w3.org/2000/svg" viewBox="0 0 32 32">
    <path style="text-indent:0;text-align:start;line-height:normal;text-transform:none;block-progression:tb;-inkscape-font-specification:Bitstream Vera Sans" d="M 5 6 L 5 7 L 5 14 L 4 14 L 4 18 L 5 18 L 5 25 L 5 26 L 6 26 L 26 26 L 27 26 L 27 25 L 27 18 L 28 18 L 28 14 L 27 14 L 27 7 L 27 6 L 26 6 L 6 6 L 5 6 z M 7 8 L 25 8 L 25 14 L 24 14 L 24 18 L 25 18 L 25 24 L 7 24 L 7 18 L 8 18 L 8 14 L 7 14 L 7 8 z M 12 11 L 12 13 L 15 13 L 15 21 L 17 21 L 17 13 L 20 13 L 20 11 L 12 11 z" color="#000" overflow="visible" font-family="Bitstream Vera Sans"></path>
</svg>
