<?xml version="1.0" encoding="utf-8"?>
<svg version="1.1" id="Layer_1" xmlns="http://www.w3.org/2000/svg" xmlns:xlink="http://www.w3.org/1999/xlink"
	 width="695px" height="185px" viewBox="-3.5 -3.5 695 185" enable-background="new -3.5 -3.5 695 185" xml:space="preserve">
<filter id="googleDropShadow">
	<feOffset  result="offOut" in="SourceGraphic" dx="0.3" dy="0.5"/>
	<feGaussianBlur  stdDeviation="0.25" result="blurOut" in="offOut"/>
	<feColorMatrix  type="matrix" result="blurTransOut" in="blurOut" values="1 0 0 0 0 0 1 0 0 0 0 0 1 0 0 0 0 0 .8 0"/>
	<feBlend  in="SourceGraphic" mode="normal" in2="blurTransOut"/>
</filter>
<g>
	<polygon fill="#CCCCCC" points="177.248,128.516 177.248,57.715 186.407,57.715 229.733,114.75 229.733,57.715 238.394,57.715 
		238.394,128.516 229.236,128.516 185.914,70.98 185.914,128.516 	"/>
	<path fill="#CCCCCC" d="M308.698,125.743c-5.708,2.182-11.867,3.269-18.468,3.269c-25.643,0-38.47-12.294-38.47-36.886
		c0-23.271,12.378-34.908,37.13-34.908c7.102,0,13.705,0.993,19.807,2.976v7.921c-6.103-2.311-12.378-3.468-18.817-3.468
		c-19.306,0-28.957,9.163-28.957,27.479c0,19.638,9.5,29.462,28.518,29.462c3.033,0,6.399-0.398,10.099-1.193v-24.06h9.158
		L308.698,125.743L308.698,125.743z"/>
	<path fill="#CCCCCC" d="M323.305,101.186V57.718h9.153v43.467c0,13.599,6.769,20.406,20.304,20.406
		c13.531,0,20.3-6.808,20.3-20.406V57.718h9.158v43.467c0,18.557-9.819,27.83-29.458,27.83
		C333.124,129.016,323.305,119.742,323.305,101.186z"/>
	<polygon fill="#CCCCCC" points="407.717,57.715 407.717,121.092 444.758,121.092 444.758,128.516 398.563,128.516 398.563,57.715 	
		"/>
	<polygon fill="#CCCCCC" points="457.973,128.518 448.469,128.518 483.669,48.376 518.87,128.518 508.723,128.518 499.56,106.234 
		476.148,106.234 478.671,98.816 496.495,98.816 483.275,66.728 	"/>
	<path fill="#CCCCCC" d="M528.526,128.516V57.715h30.203c13.469,0,20.201,5.663,20.201,16.981c0,9.212-6.581,16.029-19.754,20.447
		l24.309,33.373h-12.081L548.88,96.682v-5.986c13.53-2.151,20.295-7.349,20.295-15.598c0-6.533-3.762-9.806-11.283-9.806h-20.206
		v63.227h-9.159L528.526,128.516L528.526,128.516z"/>
	<path fill="#CCCCCC" d="M617.798,57.715v50.404c0,13.598-8.005,20.396-24.017,20.396v-7.425c9.904,0,14.857-4.329,14.857-12.972
		V57.715H617.798z"/>
	<path fill="#CCCCCC" d="M634.137,126.04v-8.418c7.429,2.64,15.447,3.965,24.063,3.965c12.18,0,18.272-4.457,18.272-13.376
		c0-7.58-4.493-11.385-13.47-11.385h-9.113c-14.817,0-22.233-6.432-22.233-19.306c0-13.531,9.495-20.304,28.479-20.304
		c8.249,0,15.922,0.998,23.021,2.976v8.417c-7.101-2.643-14.772-3.964-23.021-3.964c-12.875,0-19.311,4.293-19.311,12.875
		c0,7.588,4.354,11.385,13.065,11.385h9.113c15.08,0,22.628,6.441,22.628,19.306c0,13.868-9.142,20.801-27.432,20.801
		C649.584,129.012,641.566,128.018,634.137,126.04z"/>
	<polygon points="179.565,126.203 179.565,55.402 188.723,55.402 232.045,112.438 232.045,55.402 240.711,55.402 240.711,126.203 
		231.552,126.203 188.227,68.667 188.227,126.203 	"/>
	<path d="M311.015,123.43c-5.708,2.182-11.864,3.268-18.467,3.268c-25.645,0-38.47-12.293-38.47-36.885
		c0-23.271,12.378-34.909,37.135-34.909c7.096,0,13.7,0.994,19.802,2.976v7.92c-6.103-2.311-12.378-3.468-18.813-3.468
		c-19.307,0-28.96,9.163-28.96,27.479c0,19.639,9.504,29.463,28.517,29.463c3.034,0,6.404-0.396,10.103-1.193V94.02h9.154
		L311.015,123.43L311.015,123.43z"/>
	<path d="M325.621,98.871V55.398h9.153V98.87c0,13.598,6.769,20.401,20.305,20.401c13.53,0,20.299-6.804,20.299-20.401V55.398h9.158
		V98.87c0,18.556-9.819,27.825-29.457,27.825C335.44,126.695,325.621,117.428,325.621,98.871z"/>
	<polygon points="410.034,55.398 410.034,118.775 447.071,118.775 447.071,126.199 400.88,126.199 400.88,55.398 	"/>
	<polygon points="460.29,126.202 450.785,126.202 485.987,46.056 521.188,126.202 511.035,126.202 501.877,103.92 478.46,103.92 
		480.989,96.496 498.808,96.496 485.592,64.408 	"/>
	<path d="M530.843,126.203V55.402h30.202c13.47,0,20.196,5.659,20.196,16.982c0,9.207-6.577,16.028-19.749,20.445l24.31,33.374
		h-12.086l-22.521-31.835v-5.992c13.531-2.151,20.299-7.344,20.299-15.598c0-6.533-3.766-9.801-11.292-9.801h-20.2v63.226
		C540.002,126.203,530.843,126.203,530.843,126.203z"/>
	<path fill="#A6120D" d="M620.115,55.398v50.405c0,13.602-8.005,20.396-24.016,20.396v-7.424c9.903,0,14.856-4.33,14.856-12.973
		V55.398H620.115z"/>
	<path fill="#A6120D" d="M636.45,123.723v-8.416c7.43,2.639,15.447,3.965,24.064,3.965c12.179,0,18.271-4.459,18.271-13.373
		c0-7.584-4.492-11.385-13.47-11.385h-9.113c-14.817,0-22.232-6.436-22.232-19.311c0-13.531,9.491-20.303,28.478-20.303
		c8.249,0,15.923,0.998,23.022,2.976v8.418c-7.102-2.644-14.773-3.965-23.022-3.965c-12.875,0-19.311,4.293-19.311,12.875
		c0,7.588,4.351,11.385,13.065,11.385h9.113c15.079,0,22.628,6.438,22.628,19.31c0,13.865-9.141,20.797-27.431,20.797
		C651.898,126.695,643.879,125.701,636.45,123.723z"/>
	<path d="M551.851,163.994l-3.363-10.225h-2.391l4.641,12.92c-0.108,0.281-0.285,0.709-0.525,1.287
		c-0.242,0.578-0.384,0.896-0.421,0.959c-0.125,0.188-0.279,0.346-0.464,0.475c-0.184,0.129-0.47,0.193-0.858,0.193
		c-0.125,0-0.271-0.013-0.435-0.035c-0.163-0.023-0.429-0.086-0.795-0.188v1.923c0.234,0.063,0.433,0.104,0.591,0.129
		c0.16,0.022,0.39,0.034,0.687,0.034c1.218,0,2.076-0.351,2.575-1.054c0.5-0.703,1.357-2.654,2.576-5.855
		c0.516-1.359,1.155-3.119,1.922-5.275c1.022-2.869,1.684-4.706,1.979-5.512h-2.332L551.851,163.994z M539.364,164.855
		c-1.521,0-2.56-0.69-3.116-2.074c-0.298-0.733-0.445-1.69-0.445-2.87c0-1.632,0.361-2.804,1.088-3.517
		c0.725-0.709,1.569-1.065,2.533-1.065c1.104,0,1.941,0.435,2.511,1.301c0.569,0.867,0.853,1.961,0.853,3.281
		c0,1.485-0.283,2.68-0.853,3.586C541.365,164.402,540.508,164.855,539.364,164.855z M533.867,166.32h1.945v-1.604
		c0.446,0.603,0.866,1.04,1.259,1.313c0.658,0.461,1.466,0.691,2.423,0.691c1.71,0,3.047-0.656,4.013-1.97
		c0.965-1.313,1.446-2.96,1.446-4.944c0-2.094-0.487-3.678-1.465-4.752c-0.977-1.074-2.249-1.611-3.816-1.611
		c-0.754,0-1.451,0.158-2.096,0.475c-0.643,0.316-1.194,0.775-1.658,1.377v-6.246h-2.051L533.867,166.32L533.867,166.32z"/>
</g>
<g>
	<polygon fill="#B3B3B3" points="83.243,0.875 0.554,29.975 13.621,138.311 83.331,176.625 153.4,137.792 166.462,29.46 	"/>
	<polygon fill="#A6120D" points="158.214,35.721 83.05,10.089 83.05,167.471 146.041,132.609 	"/>
	<polygon fill="#DD1B16" points="9.833,36.183 21.03,133.072 83.049,167.471 83.049,10.086 	"/>
	<path fill="#F2F2F2" d="M103.74,93.871l-20.69,9.675H61.243l-10.251,25.64l-19.067,0.353L83.05,15.804L103.74,93.871z M101.74,89
		L83.187,52.271L67.969,88.368h15.08L101.74,89z"/>
	<polygon fill="#B3B3B3" points="83.049,15.804 83.186,52.271 100.454,88.396 83.088,88.396 83.049,103.523 107.062,103.546 
		118.285,129.543 136.529,129.881 	"/>
</g>
<path filter="url(#googleDropShadow)" d="M653.174,148.84c0.912,0.755,2.817,2.341,2.817,5.36c0,2.937-1.667,4.328-3.335,5.637
	c-0.516,0.515-1.111,1.072-1.111,1.946c0,0.872,0.595,1.349,1.031,1.707l1.431,1.109c1.746,1.469,3.333,2.82,3.333,5.56
	c0,3.731-3.613,7.502-10.44,7.502c-5.757,0-8.535-2.738-8.535-5.678c0-1.43,0.713-3.452,3.058-4.843
	c2.459-1.508,5.795-1.705,7.581-1.827c-0.557-0.714-1.192-1.468-1.192-2.698c0-0.674,0.2-1.072,0.398-1.549
	c-0.438,0.04-0.873,0.079-1.271,0.079c-4.207,0-6.589-3.137-6.589-6.232c0-1.826,0.835-3.852,2.54-5.32
	c2.264-1.866,4.962-2.184,7.107-2.184h8.177l-2.541,1.429H653.174 M650.353,166.467c-0.317-0.041-0.515-0.041-0.911-0.041
	c-0.358,0-2.503,0.08-4.17,0.636c-0.873,0.318-3.414,1.269-3.414,4.088c0,2.819,2.74,4.845,6.988,4.845
	c3.81,0,5.836-1.83,5.836-4.287C654.683,169.679,653.373,168.611,650.353,166.467z M651.505,158.923
	c0.913-0.915,0.992-2.183,0.992-2.898c0-2.859-1.707-7.305-5.001-7.305c-1.033,0-2.144,0.516-2.781,1.311
	c-0.674,0.834-0.872,1.904-0.872,2.938c0,2.659,1.549,7.066,4.964,7.066C649.799,160.035,650.868,159.559,651.505,158.923z
	 M628.181,165.831c-6.301,0-9.67-4.914-9.67-9.355c0-5.192,4.241-9.63,10.267-9.63c5.825,0,9.472,4.557,9.472,9.354
	C638.249,160.876,634.643,165.831,628.181,165.831 M633.134,162.621c0.954-1.269,1.192-2.853,1.192-4.401
	c0-3.487-1.665-10.146-6.581-10.146c-1.308,0-2.616,0.516-3.566,1.35c-1.546,1.386-1.825,3.13-1.825,4.835
	c0,3.923,1.943,10.382,6.739,10.382C630.639,164.641,632.225,163.889,633.134,162.621z M606.698,165.831
	c-6.302,0-9.671-4.914-9.671-9.355c0-5.192,4.242-9.63,10.267-9.63c5.825,0,9.472,4.557,9.472,9.354
	C616.766,160.876,613.159,165.831,606.698,165.831 M611.652,162.621c0.952-1.269,1.19-2.853,1.19-4.401
	c0-3.487-1.665-10.146-6.58-10.146c-1.307,0-2.616,0.516-3.567,1.35c-1.546,1.386-1.823,3.13-1.823,4.835
	c0,3.923,1.941,10.382,6.738,10.382C609.157,164.641,610.743,163.889,611.652,162.621z M593.999,165.21v-4.862
	c0-0.398,0.038-1.554,0.079-1.913c0.08-0.316,0.118-0.399,0.399-0.637l1.035-0.995h-8.448l-3.186,1.713l6.016-0.318v6.414
	c-1.195,0.48-2.509,0.996-5.061,0.996c-8.686,0-14.106-7.053-14.106-14.542c0-6.973,4.743-11.757,11.038-11.757
	c4.701,0,7.173,2.431,8.527,3.744l-0.996,1.596l1.394-0.318l3.308-3.148c-0.877-0.598-2.271-1.634-5.261-2.471
	c-1.872-0.519-3.943-0.836-6.095-0.836c-10.162,0-16.099,7.171-16.099,14.9c0,6.337,4.183,14.426,15.182,14.426
	c2.191,0,4.262-0.318,6.574-0.677L593.999,165.21 M665.769,164.063c-1.317-0.12-1.592-0.359-1.592-1.912v-22.555
	c0.007-0.086,0.014-0.174,0.023-0.257c0.159-1.394,0.558-1.633,1.793-2.351h-5.699l-2.989,1.435h3.047v0.018l-0.003-0.014v24.6
	c0,0.797-0.158,0.916-1.075,2.11h7.053l1.475-0.875C667.125,164.182,666.447,164.142,665.769,164.063 M681.983,164.43
	c-0.434,0.237-0.87,0.515-1.304,0.713c-1.308,0.593-2.654,0.751-3.841,0.751c-1.265,0-3.244-0.08-5.264-1.543
	c-2.807-1.979-4.036-5.382-4.036-8.351c0-6.133,4.987-9.14,9.062-9.14c1.424,0,2.891,0.356,4.078,1.109
	c1.977,1.304,2.491,3.005,2.768,3.915l-9.298,3.76l-3.049,0.238c0.988,5.026,4.394,7.954,8.152,7.954
	c2.019,0,3.483-0.712,4.828-1.384L681.983,164.43 M678.264,152.635c0.751-0.277,1.147-0.514,1.147-1.068
	c0-1.581-1.78-3.404-3.917-3.404c-1.585,0-4.551,1.227-4.551,5.501c0,0.673,0.079,1.385,0.119,2.098L678.264,152.635z"/>
</svg>
