<?xml version="1.0" encoding="UTF-8" standalone="no"?>
<!-- Generator: Adobe Illustrator 17.0.2, SVG Export Plug-In . SVG Version: 6.00 Build 0)  -->

<svg
   xmlns:dc="http://purl.org/dc/elements/1.1/"
   xmlns:cc="http://creativecommons.org/ns#"
   xmlns:rdf="http://www.w3.org/1999/02/22-rdf-syntax-ns#"
   xmlns:svg="http://www.w3.org/2000/svg"
   xmlns="http://www.w3.org/2000/svg"
   xmlns:sodipodi="http://sodipodi.sourceforge.net/DTD/sodipodi-0.dtd"
   xmlns:inkscape="http://www.inkscape.org/namespaces/inkscape"
   version="1.1"
   id="Layer_1"
   x="0px"
   y="0px"
   width="356.4375"
   height="352.01758"
   viewBox="0 0 356.4375 352.01757"
   enable-background="new 0 0 318 315.333"
   xml:space="preserve"
   inkscape:version="0.48.5 r10040"
   sodipodi:docname="bluemix-logo.svg"><title
     id="title3974">Bluemix logo</title><metadata
     id="metadata17"><rdf:RDF><cc:Work
         rdf:about=""><dc:format>image/svg+xml</dc:format><dc:type
           rdf:resource="http://purl.org/dc/dcmitype/StillImage" /><dc:title>Bluemix logo</dc:title><dc:creator><cc:Agent><dc:title>Avi Alkalay (precise redesign)</dc:title></cc:Agent></dc:creator><dc:publisher><cc:Agent><dc:title>http://bluemix.net</dc:title></cc:Agent></dc:publisher><dc:source>http://avi.alkalay.net</dc:source><dc:description>This is a redraw of the Bluemix logo using precise geometric primitives.</dc:description><dc:contributor><cc:Agent><dc:title>Avi Alkalay</dc:title></cc:Agent></dc:contributor><cc:license
           rdf:resource="http://creativecommons.org/licenses/by/3.0/" /></cc:Work><cc:License
         rdf:about="http://creativecommons.org/licenses/by/3.0/"><cc:permits
           rdf:resource="http://creativecommons.org/ns#Reproduction" /><cc:permits
           rdf:resource="http://creativecommons.org/ns#Distribution" /><cc:requires
           rdf:resource="http://creativecommons.org/ns#Notice" /><cc:requires
           rdf:resource="http://creativecommons.org/ns#Attribution" /><cc:permits
           rdf:resource="http://creativecommons.org/ns#DerivativeWorks" /></cc:License></rdf:RDF></metadata><defs
     id="defs15" /><sodipodi:namedview
     pagecolor="#ffffff"
     bordercolor="#666666"
     borderopacity="1"
     objecttolerance="10000"
     gridtolerance="10000"
     guidetolerance="10000"
     inkscape:pageopacity="0"
     inkscape:pageshadow="2"
     inkscape:window-width="2048"
     inkscape:window-height="1232"
     id="namedview13"
     showgrid="false"
     showguides="true"
     inkscape:guide-bbox="true"
     inkscape:zoom="0.90621309"
     inkscape:cx="277.41119"
     inkscape:cy="319.13161"
     inkscape:window-x="0"
     inkscape:window-y="0"
     inkscape:window-maximized="1"
     inkscape:current-layer="Layer_1"
     fit-margin-top="0"
     fit-margin-left="0"
     fit-margin-right="0"
     fit-margin-bottom="0" /><g
     id="g3956"
     transform="translate(3.21875,-52.721671)"><path
       inkscape:transform-center-y="-86.602542"
       inkscape:transform-center-x="-50.000002"
       transform="matrix(-0.42595391,0.73777382,0.73777382,0.42595391,254.77123,234.18861)"
       d="m -32.09419,42.774808 -117.38359,-6e-6 -58.69179,-101.657174 58.6918,-101.657168 117.38359,10e-6 58.69179,101.65717 z"
       inkscape:randomized="0"
       inkscape:rounded="0"
       inkscape:flatsided="true"
       sodipodi:arg2="1.5707963"
       sodipodi:arg1="1.0471976"
       sodipodi:r2="101.65717"
       sodipodi:r1="117.38359"
       sodipodi:cy="-58.882366"
       sodipodi:cx="-90.78598"
       sodipodi:sides="6"
       id="engine-northeast"
       style="fill:#00b198;fill-opacity:1;stroke:none"
       sodipodi:type="star"><title
         id="title3942">Northeast engine</title></path><path
       inkscape:connector-curvature="0"
       style="fill:#ffffff;fill-opacity:1;stroke:none"
       d="m 198.375,52.721666 -51.59375,89.406254 51.59375,89.40625 103.25001,0 51.59375,-89.40625 -51.59375,-89.406254 -103.25001,0 z m 3.25,5.625 96.75001,0 48.40625,83.781254 -48.40625,83.8125 -96.75001,0 -48.40625,-83.8125 48.40625,-83.781254 z"
       id="crown-engine-northeast"><title
         id="title3950">Crown for northeast engine</title></path><path
       inkscape:transform-center-y="86.602537"
       inkscape:transform-center-x="-49.999999"
       transform="matrix(-0.42595391,-0.73777382,-0.73777382,0.42595391,167.88749,273.43465)"
       d="m -32.09419,42.774808 -117.38359,-6e-6 -58.69179,-101.657174 58.6918,-101.657168 117.38359,10e-6 58.69179,101.65717 z"
       inkscape:randomized="0"
       inkscape:rounded="0"
       inkscape:flatsided="true"
       sodipodi:arg2="1.5707963"
       sodipodi:arg1="1.0471976"
       sodipodi:r2="101.65717"
       sodipodi:r1="117.38359"
       sodipodi:cy="-58.882366"
       sodipodi:cx="-90.78598"
       sodipodi:sides="6"
       id="engine-southeast"
       style="fill:#00aed1;fill-opacity:1;stroke:none"
       sodipodi:type="star"><title
         id="title3944">Southeast engine</title></path><path
       id="crown-engine-southeast"
       d="m 198.375,225.92674 -51.59375,89.40626 51.59375,89.40625 103.25001,0 51.59375,-89.40625 -51.59375,-89.40626 -103.25001,0 z m 3.25,5.625 96.75001,0 48.40625,83.78126 -48.40625,83.8125 -96.75001,0 -48.40625,-83.8125 48.40625,-83.78126 z"
       style="fill:#ffffff;fill-opacity:1;stroke:none"
       inkscape:connector-curvature="0"><title
         id="title3952">Crown for southeast engine</title></path><path
       sodipodi:type="star"
       style="fill:#3b4b54;fill-opacity:1;stroke:none"
       id="engine-west"
       sodipodi:sides="6"
       sodipodi:cx="-90.78598"
       sodipodi:cy="-58.882366"
       sodipodi:r1="117.38359"
       sodipodi:r2="101.65717"
       sodipodi:arg1="1.0471976"
       sodipodi:arg2="1.5707963"
       inkscape:flatsided="true"
       inkscape:rounded="0"
       inkscape:randomized="0"
       d="m -32.09419,42.774808 -117.38359,-6e-6 -58.69179,-101.657174 58.6918,-101.657168 117.38359,10e-6 58.69179,101.65717 z"
       transform="matrix(0.85190783,0,0,-0.85190783,177.34129,178.56811)"><title
         id="title3940">West engine</title></path><path
       inkscape:connector-curvature="0"
       id="crown-engine-west"
       d="M 48.375,139.3125 -3.21875,228.71875 48.375,318.125 l 103.25,0 51.59375,-89.40625 -51.59375,-89.40625 -103.25,0 z m 3.25,5.625 96.75,0 48.40625,83.78125 -48.40625,83.8125 -96.75,0 L 3.21875,228.71875 51.625,144.9375 z"
       style="fill:#ffffff;fill-opacity:1;stroke:none"><title
         id="title3954">Crown for west engine</title></path><path
       id="triangle"
       transform="translate(0,-3.90625e-6)"
       d="m 148.375,139.3125 0,178.8125 L 303.21875,228.71875 148.375,139.3125 z m 5.59375,9.71875 138.0625,79.6875 -138.0625,79.71875 0,-159.40625 z"
       style="fill:#ffffff;fill-opacity:1;stroke:none"
       inkscape:connector-curvature="0"><title
         id="title3948">Triangle</title></path><path
       id="circle"
       d="m 200,128.71875 c -55.22848,0 -100,44.77152 -100,100 0,55.22848 44.77152,100 100,100 55.22848,0 100,-44.77152 100,-100 0,-55.22848 -44.77152,-100 -100,-100 z m 0,5.625 c 52.13513,0 94.40625,42.23987 94.40625,94.375 0,52.13513 -42.27112,94.40625 -94.40625,94.40625 -52.13513,0 -94.40625,-42.27112 -94.40625,-94.40625 0,-52.13513 42.27112,-94.375 94.40625,-94.375 z"
       style="fill:#ffffff;fill-opacity:1;stroke:none"
       inkscape:connector-curvature="0"><title
         id="title3946">Circle</title></path></g></svg>