<svg xmlns="http://www.w3.org/2000/svg" viewBox="0 0 50 50">
    <path d="M24.985,0C37.556,0,46,4.576,46,8.849c0,4.274-8.444,8.85-21.015,8.85c-12.572,0-21.017-4.576-21.017-8.85 C3.968,4.576,12.413,0,24.985,0z M46,39.151C46,43.424,37.556,48,24.985,48c-12.572,0-21.017-4.576-21.017-8.849v-5.195 c3.676,3.753,11.597,6.302,21.017,6.302c9.418,0,17.34-2.549,21.015-6.302V39.151z M46,29.196c0,4.272-8.444,8.849-21.015,8.849 c-12.572,0-21.017-4.576-21.017-8.849v-5.286c3.676,3.752,11.597,6.301,21.017,6.301c9.418,0,17.34-2.549,21.015-6.301V29.196z M46,19.15C46,23.424,37.556,28,24.985,28c-12.572,0-21.017-4.576-21.017-8.85v-5.541c3.676,3.753,11.597,6.301,21.017,6.301 c9.418,0,17.34-2.547,21.015-6.301V19.15z"></path>
</svg>
