<svg xmlns="http://www.w3.org/2000/svg" version="1" width="24" height="24" viewBox="0 0 24 24">
    <path fill="rgba(255, 255, 255, 0.6)" style="text-indent:0;text-align:start;line-height:normal;text-transform:none;block-progression:tb;-inkscape-font-specification:Bitstream Vera Sans" d="M 20.5 0 C 19.119288 0 18 1.1192881 18 2.5 C 18 3.8807119 19.119288 5 20.5 5 C 21.880712 5 23 3.8807119 23 2.5 C 23 1.1192881 21.880712 0 20.5 0 z M 12.84375 1 A 1.0001 1.0001 0 0 0 12.8125 1.03125 L 7.8125 2.03125 A 1.0001 1.0001 0 1 0 8.1875 3.96875 L 12.75 3.0625 L 15.1875 5.3125 L 10.5 8.1875 C 9.4 8.9875 8.5 9.7875 9.5 11.1875 L 12.90625 16 L 8 16 A 1.0001 1.0001 0 1 0 8 18 L 15 18 A 1.0001 1.0001 0 0 0 15.875 16.5 L 15.59375 16 L 13.5 11.3125 L 17.3125 8.90625 L 17.875 10.6875 L 18.03125 11.25 A 1.0001 1.0001 0 0 0 19 12 L 23 12 A 1.0001 1.0001 0 1 0 23 10 L 19.84375 10 L 18.90625 6.09375 L 17.90625 4.40625 C 17.727404 4.2274038 17.557501 4.0963 17.40625 4.03125 L 13.59375 1.1875 A 1.0001 1.0001 0 0 0 12.84375 1 z M 0 6 L 0 7 L 9.3125 7 L 10.90625 6 L 0 6 z M 0 9 L 0 10 L 7 10 C 7 9.6 7.1125 9.3 7.3125 9 L 0 9 z M 0 12 L 0 13 L 8.5 13 L 7.8125 12 L 0 12 z M 11.59375 19 L 8.3125 22.3125 C 7.9125 22.7125 7.9125 23.2875 8.3125 23.6875 C 8.5125 23.8875 8.7 24 9 24 C 9.3 24 9.4875 23.8875 9.6875 23.6875 L 14.90625 19 L 11.59375 19 z" color="#000" overflow="visible" enable-background="accumulate" font-family="Bitstream Vera Sans"></path>
</svg>
