<svg version="1.1" xmlns="http://www.w3.org/2000/svg" xmlns:xlink="http://www.w3.org/1999/xlink" x="0px" y="0px" viewBox="0 0 48 48" enable-background="new 0 0 48 48" xml:space="preserve">
<g>
	<path fill="#2196F3" d="M40.977,22.892c-0.15,3.471-1.008,6.226-2.573,8.266s-3.671,3.059-6.313,3.059
		c-1.167,0-2.173-0.251-3.021-0.752c-0.847-0.499-1.486-1.22-1.921-2.154c-1.355,1.897-3.125,2.847-5.307,2.847
		c-1.979,0-3.511-0.835-4.594-2.502c-1.084-1.668-1.492-3.869-1.221-6.607c0.244-2.236,0.811-4.227,1.699-5.969
		c0.887-1.74,2.009-3.08,3.364-4.015c1.355-0.935,2.819-1.403,4.392-1.403c1.938,0,3.592,0.448,4.961,1.344l1.281,0.873
		L30.688,27.63c-0.136,1.07-0.018,1.891,0.356,2.459c0.372,0.57,0.965,0.854,1.778,0.854c1.247,0,2.291-0.729,3.131-2.187
		c0.84-1.456,1.301-3.362,1.383-5.723c0.23-4.731-0.721-8.368-2.855-10.907c-2.136-2.541-5.298-3.813-9.485-3.813
		c-2.617,0-4.948,0.664-6.994,1.993c-2.047,1.329-3.661,3.217-4.839,5.664c-1.18,2.445-1.845,5.247-1.994,8.406
		c-0.216,4.798,0.746,8.509,2.888,11.131c2.141,2.623,5.347,3.934,9.617,3.934c1.125,0,2.304-0.124,3.538-0.376
		c1.232-0.251,2.298-0.587,3.191-1.006l0.773,3.13c-0.827,0.543-1.941,0.981-3.346,1.313C26.429,42.836,25.015,43,23.592,43
		c-3.579,0-6.628-0.723-9.149-2.164c-2.521-1.444-4.402-3.571-5.642-6.385c-1.24-2.813-1.779-6.173-1.617-10.074
		C7.346,20.634,8.2,17.28,9.747,14.313c1.544-2.969,3.648-5.264,6.313-6.881C18.722,5.811,21.728,5,25.076,5
		c3.401,0,6.33,0.729,8.783,2.186c2.452,1.456,4.289,3.54,5.51,6.251C40.59,16.148,41.125,19.299,40.977,22.892z M20.542,25.047
		c-0.15,1.789,0.007,3.148,0.468,4.076c0.459,0.929,1.206,1.395,2.236,1.395c0.664,0,1.294-0.292,1.891-0.876
		c0.596-0.583,1.092-1.422,1.484-2.521l0.854-9.617c-0.527-0.177-1.071-0.264-1.626-0.264c-1.559,0-2.769,0.664-3.629,1.992
		C21.358,20.56,20.799,22.5,20.542,25.047z"></path>
</g>
</svg>
