<?xml version="1.0" encoding="UTF-8" standalone="no"?>
<svg xmlns="http://www.w3.org/2000/svg" version="1.1" height="128.25" width="523.59">
 <path fill-rule="nonzero" fill="#131b28" d="m223.9,46.171l0.001-0.005s-3.352,11.88-3.352,11.88,3.3508-11.875,3.3508-11.875z"/>
 <path fill-rule="nonzero" fill="#131b28" d="m241.14,71.962s-3.6938-0.022-3.6938-0.022,3.6938,0.022,3.6938,0.022z"/>
 <path fill-rule="nonzero" fill="#131b28" d="m240.19,89.703h0.004s-22.131,0.0806-22.131,0.0806,22.128-0.0806,22.128-0.0806z"/>
 <path fill-rule="nonzero" fill="#131b28" d="m244.83,71.984s-3.6951-0.022-3.6951-0.022,3.6951,0.022,3.6951,0.022z"/>
 <path fill-rule="nonzero" fill="#131b28" d="m242.13,88.195s3.855-14.702,3.855-14.702-3.855,14.705-3.855,14.705v-0.002z"/>
 <path fill-rule="nonzero" fill="#131b28" d="m323.61,20.49s-7.1814,33.76-7.1814,33.76,7.1814-33.76,7.1814-33.76z"/>
 <path fill-rule="nonzero" fill="#131b28" d="m305.15,20.49s-5.4517,25.22-5.4517,25.22,5.4517-25.222,5.4517-25.222v0.002z"/>
 <path fill-rule="nonzero" fill="#131b28" d="m322.38,18.971h-15.356c-0.85205,0-1.698,0.68359-1.8799,1.5161,0,0-5.4516,25.222-5.4516,25.222s-5.4517,25.222-5.4517,25.222c-0.18066,0.83251-1.0254,1.5137-1.8774,1.5137h-9.3176-1.5515c-10.753,0-9.5093-7.4365-7.3071-17.627,0.022-0.1025,0.044-0.20263,0.0659-0.30761,0,0,0.24169-1.2842,0.24169-1.2842,0.0146-0.083,0.0317-0.16603,0.0451-0.2417,0,0,0.49072-2.6148,0.49072-2.6148s0.52612-2.8027,0.52612-2.8027c0.15992-0.84473,0.40283-2.0801,0.56153-2.8564,0,0,2.478-12.109,2.478-12.109s2.4805-12.109,2.4805-12.109c0.1709-0.83496-0.38819-1.521-1.2402-1.521h-15.762c-0.85206,0-1.6956,0.68604-1.8701,1.5186,0,0-3.3887,16.079-3.3887,16.079s-3.3887,16.077-3.3887,16.077c-0.003,0.007-0.004,0.0171-0.005,0.0244,0,0-0.31494,1.4942-0.31494,1.4942-3.9038,17.822-2.8686,34.817,18.347,35.349,0.3467,0.01,0.61525,0.0125,0.61525,0.0125h33.302c0.85206,0,1.6956-0.6836,1.8738-1.5186,0,0,7.1814-33.757,7.1814-33.757s7.1814-33.76,7.1814-33.76c0.17701-0.83497-0.37598-1.5186-1.228-1.5186z"/>
 <path fill-rule="nonzero" fill="#131b28" d="m383.64,72.621c0.85327,0,1.4111,0.6836,1.2402,1.5186,0,0-1.4917,7.2876-1.4917,7.2876"/>
 <path fill-rule="nonzero" fill="#131b28" d="m381.9,88.719s1.4905-7.2925,1.4905-7.2925-1.4917,7.2949-1.4917,7.2949c0-0.002,0.00099-0.002,0.00099-0.002z"/>
 <path fill-rule="nonzero" fill="#131b28" d="m380.03,90.253c0.002,0,0.005-0.002,0.007-0.002-4.519,0.0366-18.099,0.13916-28.306,0.13916,12.422,0,28.298-0.13672,28.298-0.13672z"/>
 <path fill-rule="nonzero" fill="#131b28" d="m342.57,63.234c-0.0125-0.79835,0.896-2.1729,1.7493-2.1729,0,0-1.9177-0.0317-1.9177-0.0317-0.86426,8.6914,0.16845,2.2046,0.16845,2.2046z"/>
 <path fill-rule="nonzero" fill="#131b28" d="m353.13,90.387c-0.0976,0-0.19775,0-0.29542,0.002,0.0976-0.002,0.19777-0.002,0.29542-0.002z"/>
 <path fill-rule="nonzero" fill="#131b28" d="m383.64,72.621c0.85327,0,1.4111,0.6836,1.2402,1.5186,0,0-1.4917,7.2876-1.4917,7.2876s-0.24293,1.189-0.24293,1.189"/>
 <path fill-rule="nonzero" fill="#131b28" d="m360.4,90.37h-0.0623,0.0623z"/>
 <path fill-rule="nonzero" fill="#131b28" d="m356.63,90.382h-0.21852,0.21852z"/>
 <path fill-rule="nonzero" fill="#131b28" d="m355.48,90.385c-0.12201,0-0.2417,0-0.36134,0.002,0.11963-0.002,0.23927-0.002,0.36134-0.002z"/>
 <path fill-rule="nonzero" fill="#131b28" d="m354.31,90.387h-0.31737,0.31737z"/>
 <path fill-rule="nonzero" fill="#131b28" d="m356.41,90.382c-0.31127,0-0.62255,0.002-0.93016,0.002,0.30761,0,0.61889-0.002,0.93016-0.002z"/>
 <path fill-rule="nonzero" fill="#131b28" d="m360.34,90.37c-1.2427,0.005-2.4829,0.01-3.7048,0.0125,1.2219-0.002,2.4634-0.007,3.7048-0.0125z"/>
 <path fill-rule="nonzero" fill="#131b28" d="m380.04,90.25h0.001c-3.3118,0.0269-11.49,0.0879-19.646,0.11963,8.1518-0.0292,16.332-0.0927,19.645-0.11963z"/>
 <path fill-rule="nonzero" fill="#131b28" d="m381.9,88.722s1.2488-6.106,1.2488-6.106-1.25,6.1108-1.25,6.1108c0-0.002,0.001-0.002,0.001-0.005z"/>
 <path fill-rule="nonzero" fill="#131b28" d="m355.12,90.387h-0.81054,0.81054z"/>
 <path fill-rule="nonzero" fill="#131b28" d="m352.83,90.389h-1.0962,1.0962z"/>
 <path fill-rule="nonzero" fill="#131b28" d="m353.99,90.387h-0.86426,0.86426z"/>
 <path fill-rule="nonzero" fill="#131b28" d="m129.36,63.417s2.3852-10.574,2.3852-10.574-2.727,12.087-2.727,12.087-2.6172,12.312-2.6172,12.312,2.2937-10.793,2.2937-10.793c0.177-0.83497,0.4773-2.1997,0.66529-3.0322z"/>
 <path fill-rule="nonzero" fill="#131b28" d="m157.91,18.793h-16.864c-0.85326,0-1.7041,0.68115-1.8945,1.5112,0,0-1.5991,7.0581-1.5991,7.0581s-1.5991,7.0606-1.5991,7.0606c-0.18799,0.83008,0.35523,1.5112,1.2085,1.5112h16.995c0.85205,0,1.6992-0.68115,1.8823-1.5137,0,0,1.5454-7.0581,1.5454-7.0581s1.5454-7.0532,1.5454-7.0532v-0.002c0.18189-0.83253-0.36621-1.5137-1.2195-1.5137z"/>
 <path fill-rule="nonzero" fill="#131b28" d="m154.24,42.272v-0.002s-4.9463,22.883-4.9463,22.883,4.9463-22.881,4.9463-22.881z"/>
 <path fill-rule="nonzero" fill="#131b28" d="m105.25,118.09s8.501,0.10988,13.905,0.10988c-4.1052,0-10.885-0.0756-13.912-0.11225,0.003,0,0.005,0.002,0.008,0.002z"/>
 <path fill-rule="nonzero" fill="#131b28" d="m134.13,42.269s-2.3877,10.574-2.3877,10.574,2.3877-10.574,2.3877-10.574z"/>
 <path fill-rule="nonzero" fill="#131b28" d="m153.02,40.756h-16.997c-0.85205,0-1.7041,0.68117-1.8921,1.5137,0,0-2.3877,10.574-2.3877,10.574s-2.3852,10.574-2.3852,10.574c-0.18799,0.83253-0.48829,2.1973-0.66529,3.0322,0,0-2.2937,10.793-2.2937,10.793s-2.2925,10.793-2.2925,10.793c-0.17822,0.83252-0.54443,2.1777-0.81787,2.9858,0,0-3.175,9.4482-8.5132,9.3408-0.22705-0.005-0.448-0.007-0.6665-0.0125-2.5867-0.0489-4.6191-0.0855-4.6191-0.0855h-0.004c-0.85083-0.0125-1.7066,0.65185-1.9055,1.4795,0,0-1.7627,7.4097-1.7627,7.4097s-1.7603,7.4072-1.7603,7.4072c-0.19775,0.82762,0.33692,1.5112,1.1841,1.5259,3.0274,0.0366,9.8071,0.11225,13.912,0.11225,13.334,0,20.363-7.3877,24.869-28.647,0,0,5.2734-24.399,5.2734-24.399s4.9463-22.883,4.9463-22.883c0.17945-0.83251-0.3711-1.5137-1.2232-1.5137z"/>
 <path fill-rule="nonzero" fill="#131b28" d="m394.47,89.525c-0.85205,0-1.405-0.6836-1.2256-1.5186,0,0,12.786-59.89,12.786-59.89"/>
 <path fill-rule="nonzero" fill="#131b28" d="m412.24,88.004s5.1709-25.562,5.1709-25.562-5.1709,25.562-5.1709,25.562z"/>
 <path fill-rule="nonzero" fill="#131b28" d="m393.43,88.766c-0.10375-0.41749-0.0428-1.4404,0.13793-2.2754,0,0,6.0681-28.428,6.0681-28.428s-6.3928,29.944-6.3928,29.944c-0.17944,0.83495,0.37354,1.5186,1.2256,1.5186h1.5528c-0.85328,0-2.489-0.3418-2.5916-0.75927z"/>
 <path fill-rule="nonzero" fill="#131b28" d="m411.23,89.183c-0.46388,0.18799-1.543,0.3418-2.3962,0.3418h1.5527c0.85205,0,1.6894-0.6836,1.8579-1.521,0,0,0.30761-1.5186,0.30761-1.5186-0.16967,0.83496-0.85692,2.5098-1.322,2.6978z"/>
 <path fill-rule="nonzero" fill="#131b28" d="m414.83,75.223s2.2827-11.282,2.2827-11.282c-0.001,0.007-0.002,0.0171-0.004,0.022,0,0-2.279,11.26-2.279,11.26z"/>
 <path fill-rule="nonzero" fill="#131b28" d="m465.28,32.128s0.70434,2.9102,0.70434,2.9102c0.1941,0.83251-0.34424,1.5088-1.1951,1.5112"/>
 <path fill-rule="nonzero" fill="#131b28" d="m412.55,86.486s2.2766-11.262,2.2766-11.262-2.2766,11.262-2.2766,11.262z"/>
 <path fill-rule="nonzero" fill="#131b28" d="m464.58,29.147s0.69703,2.981,0.69703,2.981-0.69703-2.981-0.69703-2.981z"/>
 <path fill-rule="nonzero" fill="#131b28" d="m417.11,63.942c0.16969-0.83496,0.45045-2.1875,0.62746-3.0151,0,0,2.4377-11.421,2.4377-11.421s-2.7612,12.937-2.7612,12.937-0.30397,1.499-0.30397,1.499z"/>
 <path fill-rule="nonzero" fill="#131b28" d="m406.24,27.135c-0.16967,0.80567-0.38696,1.8237-0.53101,2.4976,0,0-6.0681,28.43-6.0681,28.43s6.3928-29.946,6.3928-29.946,0.2063-0.98145,0.2063-0.98145z"/>
 <path fill-rule="nonzero" fill="#131b28" d="m465.98,35.038s-0.70434-2.9102-0.70434-2.9102-0.69703-2.981-0.69703-2.981-0.35278-1.5088-0.35278-1.5088c-1.3806-5.3638-5.4334-8.4595-14.233-8.4595,0,0-13.7-0.0146-13.7-0.0146s-12.617-0.0146-12.617-0.0146h-1.0828-13.114c-0.85205,0-1.6956,0.68115-1.8713,1.5161h-0.001s-0.62743,2.9663-0.62743,2.9663-0.74096,3.5034-0.74096,3.5034-0.2063,0.98145-0.2063,0.98145-6.3928,29.946-6.3928,29.946-6.0681,28.428-6.0681,28.428c-0.18065,0.83496-0.24169,1.8579-0.13792,2.2754,0.1025,0.41747,1.7383,0.75927,2.5915,0.75927h12.808c0.85327,0,1.9324-0.15381,2.3962-0.3418,0.46508-0.18799,1.1523-1.8628,1.322-2.6978,0,0,2.2766-11.262,2.2766-11.262s2.279-11.26,2.279-11.26c0.001-0.005,0.002-0.0146,0.004-0.022,0,0,0.30396-1.499,0.30396-1.499s2.7612-12.937,2.7612-12.937,2.439-11.426,2.439-11.426c0.18068-0.83007,1.0205-1.5088,1.8713-1.5112,0,0,40.3-0.0195,40.3-0.0195,0.85083-0.002,1.3892-0.67872,1.1951-1.5112z"/>
 <path fill-rule="nonzero" fill="#131b28" d="m517.86,8.7244c-0.85326,0.006-2.2485,0.0113-3.1018,0.0113h-12.899c-0.85328,0-1.9458,0.57618-2.4268,1.2805,0,0-28.523,41.787-28.523,41.787-0.48218,0.70557-1.0315,0.60059-1.2207-0.22949,0,0-2.0984-9.2065-2.0984-9.2065-0.18921-0.83252-1.0437-1.5112-1.8958-1.5112h-18.337c-0.85327,0-1.3586,0.66895-1.1255,1.4893,0,0,8.2166,28.784,8.2166,28.784,0.23437,0.82032,0.25147,2.168,0.0403,2.9932,0,0-3.5815,13.931-3.5815,13.931-0.2124,0.82764,0.3125,1.5039,1.1658,1.5039h18.123c0.85205,0,1.7236-0.67627,1.9348-1.5039,0,0,3.5828-13.931,3.5828-13.931,0.21119-0.82519,0.80445-2.0605,1.3184-2.7417,0,0,46.306-61.459,46.306-61.459,0.51393-0.68115,0.2356-1.2354-0.61645-1.2292,0,0-4.8608,0.0317-4.8608,0.0317z"/>
 <path fill-rule="nonzero" fill="#131b28" d="m372.18,44.774s-0.001-0.0171-0.001-0.0171c-0.10737,0.92528-0.96069,1.604-1.8128,1.604h-23.248c-0.80323,0-1.2122-0.54688-1.0938-1.2207,0.007-0.0195,0.01-0.0366,0.022-0.0537,0,0-0.008,0.002-0.0146,0.007,0.005-0.0269,0.005-0.0512,0.0125-0.0781,0,0,0.044-0.16358,0.10625-0.39552,2.2204-5.9033,6.7432-9.7778,15.243-9.7778,9.5691,0,11.437,4.6753,10.787,9.9316zm-6.8201-26.834c-29.841,0-36.912,18.113-40.879,36.394-3.9673,18.633-3.6255,36.055,27.253,36.055h1.0962c0.0976-0.002,0.19777-0.002,0.29542-0.002h0.86426,0.31737,0.81055c0.11963-0.002,0.23927-0.002,0.36133-0.002,0.30762,0,0.6189-0.002,0.93017-0.002h0.21852c1.2219-0.002,2.4622-0.008,3.7048-0.0125h0.0623c8.1555-0.0317,16.334-0.0927,19.647-0.11962,0.84717-0.0125,1.676-0.6958,1.8506-1.5234,0,0,1.25-6.1108,1.25-6.1108s0.24293-1.189,0.24293-1.189,1.4917-7.2876,1.4917-7.2876c0.1709-0.83496-0.38696-1.5186-1.2402-1.5186h-27.761c-11.041,0-14.32-2.9346-13.112-11.56h44.377s-0.004,0.005-0.004,0.005c0.0113,0,0.0208-0.005,0.0305-0.005,0.70556-0.0125,1.3574-0.49804,1.6162-1.145,0.0489-0.1245,0.0904-0.25391,0.10737-0.38818,0,0-0.005,0.005-0.005,0.005,6.5894-24.854,4.6997-41.592-23.528-41.592z"/>
 <path fill-rule="nonzero" fill="#131b28" d="m224.32,44.679s-0.41993,1.4868-0.41993,1.4868c0,0.005-0.001,0.005-0.001,0.005s-3.3508,11.875-3.3508,11.875-3.3496,11.873-3.3496,11.873c-0.23193,0.82031-1.1182,1.4917-1.9727,1.4917h-17.736c-13.453,0-16.729-10.522-13.453-26.042,3.2752-15.874,9.6973-25.742,22.938-26.741,18.094-1.3648,21.714,11.362,17.345,26.052zm12.163,25.818s8.3618-20.303,10.261-32.031c2.59-15.699-5.27-38.466-35.63-38.466-30.187,0-43.295,21.737-48.297,45.367-5.0012,23.801,1.5515,44.675,31.567,44.504,0,0,23.679-0.0879,23.679-0.0879s22.131-0.0806,22.131-0.0806c0.85205-0.007,1.7236-0.6836,1.9409-1.5064,0,0,3.855-14.705,3.855-14.705,0.21485-0.8252-0.30639-1.5039-1.1584-1.5088,0,0-3.6951-0.022-3.6951-0.022s-3.6938-0.022-3.6938-0.022c-0.7251-0.005-1.1401-0.47364-1.0522-1.0962,0.0159-0.11225,0.0415-0.22705,0.0904-0.34668z"/>
 <path fill-rule="nonzero" fill="#131b28" d="m385.92,56.908c0,0.56153-0.45532,1.0181-1.0181,1.0181-0.56152,0-1.0181-0.45654-1.0181-1.0181,0-0.56152,0.45655-1.0156,1.0181-1.0156,0.56274,0,1.0181,0.4541,1.0181,1.0156z"/>
 <path fill-rule="nonzero" fill="#0868ac" d="m5.9785,30.509c-8.335,11.98-7.2974,27.566-0.93018,40.295,0.15138,0.30518,0.31006,0.60546,0.46631,0.90576,0.10012,0.19043,0.19409,0.38574,0.29785,0.57373,0.05862,0.11225,0.1245,0.22216,0.18555,0.32959,0.10862,0.20263,0.21972,0.39551,0.33202,0.59326,0.19776,0.34912,0.4004,0.6958,0.60791,1.0425,0.11475,0.19042,0.22828,0.38085,0.34669,0.57128,0.22949,0.37109,0.46509,0.7373,0.70556,1.1035,0.10012,0.15625,0.19775,0.3125,0.30029,0.46386,0.33204,0.49561,0.67139,0.98877,1.0217,1.4746,0.0087,0.0125,0.01825,0.0269,0.02925,0.039,0.055,0.0781,0.116,0.15381,0.17212,0.23194,0.30274,0.41747,0.61524,0.83007,0.9314,1.2378,0.116,0.14892,0.23315,0.29785,0.35034,0.44677,0.28199,0.35401,0.56885,0.70558,0.8606,1.0571,0.10862,0.13184,0.2185,0.26366,0.32836,0.39306,0.39185,0.46143,0.79101,0.92041,1.1987,1.3696,0.0075,0.007,0.01713,0.0171,0.02437,0.0244,0.01713,0.0195,0.03175,0.0317,0.04637,0.0512,0.39795,0.43457,0.80566,0.85937,1.2183,1.2842,0.12816,0.13184,0.25879,0.26368,0.39062,0.39308,0.31982,0.32226,0.64452,0.63965,0.9729,0.95458,0.13305,0.12695,0.26489,0.25635,0.39795,0.37842,0.43822,0.4126,0.88134,0.81787,1.333,1.2134,0.0075,0.007,0.01337,0.0125,0.02075,0.0171,0.07688,0.0684,0.15625,0.13184,0.23194,0.19775,0.39795,0.34424,0.80322,0.68604,1.2109,1.023,0.16601,0.13428,0.33448,0.26612,0.50171,0.40039,0.33325,0.26611,0.67016,0.52979,1.0095,0.78858,0.17945,0.13672,0.35889,0.27343,0.53956,0.41016,0.37475,0.27587,0.75195,0.54687,1.1328,0.81299,0.13915,0.10012,0.27344,0.19775,0.41259,0.29296,0.039,0.0269,0.0745,0.0537,0.1135,0.0806,0.36134,0.24902,0.7312,0.48827,1.0999,0.72754,0.15869,0.105,0.31616,0.21483,0.47608,0.31737,0.5664,0.35889,1.1414,0.7129,1.7224,1.0547,0.15746,0.0904,0.31738,0.17822,0.47606,0.26856,0.42725,0.24658,0.85694,0.48828,1.2927,0.7251,0.2356,0.12695,0.4773,0.24658,0.71534,0.36865,0.30761,0.16113,0.61279,0.3247,0.92529,0.48095,0.07075,0.0343,0.14405,0.0684,0.21362,0.1025,0.12574,0.061,0.25269,0.11963,0.37842,0.18311,0.48461,0.23194,0.9729,0.45899,1.4661,0.67872,0.105,0.0464,0.2063,0.0928,0.31006,0.13916,0.56518,0.24657,1.1352,0.48339,1.7102,0.71045,0.13794,0.0561,0.2771,0.10987,0.41626,0.16356,0.53222,0.20509,1.0718,0.40773,1.6138,0.59815,0.06838,0.0244,0.13429,0.0464,0.20264,0.0707,0.59449,0.20753,1.1951,0.40039,1.7993,0.58838,0.14404,0.0415,0.2893,0.0879,0.43456,0.1294,0.61524,0.18555,1.2232,0.40771,1.8579,0.5249,40.31,7.3511,52.019-24.224,52.019-24.224-9.834,12.812-27.29,16.191-43.829,12.429-0.62622-0.1416-1.2341-0.33691-1.8457-0.51758-0.15504-0.0464-0.30762-0.0927-0.46021-0.13916-0.59692-0.1831-1.189-0.37597-1.7773-0.57861-0.08062-0.0292-0.16236-0.0586-0.24415-0.0879-0.52734-0.18555-1.0486-0.38086-1.5674-0.58105-0.14649-0.0586-0.29298-0.11475-0.43945-0.17334-0.56885-0.22461-1.134-0.45899-1.6919-0.70312-0.11475-0.0489-0.22461-0.10013-0.33814-0.14894-0.47974-0.21728-0.95459-0.437-1.427-0.66406-0.13671-0.0659-0.27344-0.12939-0.4126-0.19775-0.371-0.181-0.738-0.374-1.104-0.562-0.245-0.129-0.494-0.251-0.737-0.386-0.447-0.239-0.886-0.488-1.323-0.742-0.148-0.083-0.298-0.163-0.447-0.249-0.581-0.342-1.155-0.696-1.723-1.055-0.157-0.1-0.31-0.207-0.465-0.31-0.412-0.266-0.822-0.537-1.226-0.815-0.134-0.091-0.263-0.188-0.395-0.278-0.39-0.276-0.776-0.555-1.159-0.838-0.174-0.129-0.345-0.259-0.514-0.388-0.351-0.269-0.7-0.54-1.046-0.818-0.15625-0.1245-0.3125-0.24902-0.46631-0.37354-0.43945-0.36132-0.87402-0.7251-1.3025-1.0986-0.04512-0.039-0.094-0.0781-0.14282-0.11963-0.46386-0.40771-0.91919-0.8252-1.3696-1.2451-0.13062-0.1245-0.25758-0.24659-0.38575-0.3711-0.33325-0.31738-0.66161-0.6372-0.98389-0.96435-0.12939-0.1294-0.25879-0.25635-0.38574-0.38575-0.41015-0.41991-0.81299-0.84473-1.2073-1.2768-0.0195-0.022-0.04025-0.0415-0.05975-0.0635-0.41749-0.45655-0.8252-0.92285-1.2244-1.394-0.10862-0.12939-0.21362-0.2539-0.32105-0.38085-0.29785-0.35889-0.59326-0.72266-0.88135-1.0889-0.108-0.132-0.216-0.267-0.323-0.403-0.347-0.45-0.686-0.899-1.018-1.355-9.1823-12.525-12.481-29.8-5.142-43.987"/>
 <path fill-rule="nonzero" fill="#0868ac" d="m31.852,20.416c-6.0278,8.6743-5.7007,20.286-0.99854,29.46,0.78858,1.5381,1.6748,3.0298,2.666,4.4507,0.90331,1.2939,1.9043,2.8345,3.103,3.8745,0.43458,0.47852,0.88868,0.94482,1.3525,1.4038,0.11712,0.11963,0.23681,0.23438,0.35645,0.35157,0.45044,0.43701,0.9082,0.8667,1.3818,1.2842,0.0195,0.0146,0.03663,0.0341,0.05613,0.0489,0.005,0.005,0.01,0.007,0.01337,0.0125,0.52368,0.45899,1.0644,0.90089,1.6138,1.3354,0.12212,0.0927,0.24292,0.19044,0.36621,0.28565,0.55054,0.42237,1.1121,0.8374,1.6882,1.2329,0.01713,0.0125,0.03175,0.0244,0.04888,0.0366,0.25391,0.17578,0.5127,0.33936,0.77026,0.50781,0.12325,0.0806,0.24049,0.16602,0.365,0.2417,0.41138,0.26367,0.82762,0.52002,1.2512,0.7666,0.05987,0.0366,0.11838,0.0684,0.177,0.1025,0.365,0.20995,0.73486,0.41747,1.106,0.61767,0.12939,0.0732,0.26122,0.13672,0.39306,0.20508,0.25635,0.13427,0.5127,0.271,0.77392,0.40039,0.039,0.0195,0.07937,0.0366,0.11712,0.0538,0.53101,0.26122,1.0669,0.5127,1.6138,0.75195,0.11712,0.0513,0.23804,0.0976,0.35644,0.14648,0.43701,0.18555,0.87891,0.36622,1.3232,0.53712,0.18799,0.0708,0.37841,0.13916,0.5664,0.20751,0.40284,0.14892,0.80689,0.28565,1.2146,0.42236,0.18432,0.0586,0.365,0.11963,0.54932,0.17579,0.57982,0.18066,1.1523,0.40771,1.7566,0.50781,31.123,5.1562,38.308-18.806,38.308-18.806-6.477,9.3286-19.02,13.779-32.405,10.305-0.59449-0.15625-1.1804-0.32715-1.7627-0.51027-0.17822-0.0537-0.35279-0.11225-0.52979-0.17088-0.41381-0.13429-0.82519-0.27589-1.2329-0.42482-0.18676-0.0684-0.37352-0.13671-0.55664-0.20751-0.44678-0.1709-0.88868-0.34912-1.3269-0.53467-0.11962-0.0513-0.24049-0.0976-0.35768-0.15137-0.54931-0.23926-1.0901-0.49072-1.6235-0.7544-0.27466-0.13427-0.54444-0.27587-0.81421-0.41503-0.15625-0.0805-0.31372-0.16113-0.46998-0.2417-0.34668-0.18799-0.69091-0.3833-1.0303-0.58105-0.0805-0.0464-0.16479-0.0904-0.24658-0.13917-0.42115-0.24658-0.83619-0.50048-1.2476-0.76171-0.12695-0.0806-0.24902-0.16846-0.37598-0.25147-0.271-0.17578-0.54199-0.354-0.8081-0.53467-0.57374-0.39551-1.1316-0.81055-1.6821-1.2305-0.12695-0.10013-0.2539-0.19775-0.37841-0.29785-5.859-4.626-10.503-10.947-12.711-18.115-2.314-7.434-1.815-15.779,2.194-22.551"/>
 <path fill-rule="nonzero" fill="#0868ac" d="m53.613,12.875c-3.5535,5.2295-3.9026,11.724-1.4368,17.5,2.6001,6.1304,7.9285,10.94,14.147,13.22,0.25635,0.0953,0.5127,0.18066,0.77271,0.26855,0.1135,0.0342,0.22582,0.0733,0.34058,0.10737,0.36621,0.11475,0.72998,0.24903,1.1084,0.31983,17.185,3.3203,21.846-8.8184,23.087-10.605-4.0832,5.8789-10.945,7.29-19.364,5.2466-0.665-0.162-1.396-0.402-2.037-0.629-0.822-0.293-1.632-0.627-2.419-1.005-1.495-0.718-2.92-1.59-4.241-2.588-7.534-5.716-12.214-16.621-7.298-25.502"/>
 <path fill-rule="nonzero" fill="#0868ac" d="m247.16,114.73s-4.9536,11.282-4.9536,11.282h-5.4688s0.448-10.251,0.448-10.251-4.0259,10.251-4.0259,10.251h-5.2954s-0.13916-11.282-0.13916-11.282,0.58471-2.7856,0.58471-2.7856h3.75s-0.72264,11.143-0.72264,11.143,4.1626-11.143,4.1626-11.143h5.2283s-0.37841,11.282-0.37841,11.282,4.1284-11.282,4.1284-11.282h3.2666s-0.58471,2.7856-0.58471,2.7856z"/>
 <path fill-rule="nonzero" fill="#0868ac" d="m255.79,118.07c0.48217-2.2022,0.34424-2.6148-0.79103-2.6148h-1.72s-1.1011,5.1611-1.1011,5.1611-1.6858,5.398-1.6858,5.398h-3.1982s2.6135-12.244,2.6135-12.244,0.37964-1.7896,0.37964-1.7896h2.9236s0.37841,0.82518,0.37841,0.82518,1.6858-0.99608,3.335-0.99608c3.5095,0,3.2348,2.6465,2.4768,6.2598h-3.6108z"/>
 <path fill-rule="nonzero" fill="#0868ac" d="m266.18,110.19c-1.4087,0-2.3035-0.4126-1.9604-2.1314,0.37841-1.7212,1.4795-2.1338,2.854-2.1338,1.3782,0,2.3059,0.41259,1.9275,2.1338-0.34424,1.6846-1.4441,2.1314-2.821,2.1314zm-1.5124,15.823h-3.1665s0.62011-5.5029,0.62011-5.5029,1.1011-5.0903,1.1011-5.0903-2.2009-0.4834-2.2009-0.4834,0.6189-2.9907,0.6189-2.9907h6.0181s-2.9907,14.067-2.9907,14.067z"/>
 <path fill-rule="nonzero" fill="#0868ac" d="m278.39,114.93s-3.9551,0.4834-3.9551,0.4834-1.1365,5.3662-1.1365,5.3662c-0.31005,1.4795-0.31005,1.8921,0.99853,1.8921h2.6477s-0.55054,2.8198-0.55054,2.8198-2.406,0.72265-3.4399,0.72265c-4.0588,0-4.0247-2.2363-3.3008-5.5737,0,0,1.1011-5.2612,1.1011-5.2612s-2.2022-0.48096-2.2022-0.48096,0.65308-2.9932,0.65308-2.9932h2.3059s1.3074-3.5449,1.3074-3.5449h3.1299s-0.75805,3.5449-0.75805,3.5449h3.8525s-0.65308,3.0249-0.65308,3.0249z"/>
 <path fill-rule="nonzero" fill="#0868ac" d="m286.61,115.11c-1.8567,0-2.821,0.96436-3.1982,2.6831,0,0,5.2966-0.44677,5.2966-0.44677,0.24048-1.1694,0-2.2363-2.0984-2.2363zm-3.7134,5.227c-0.24293,1.7212,0.41138,2.3047,2.6123,2.3047h5.5371s-0.54933,2.6148-0.54933,2.6148-3.3362,0.92774-5.813,0.92774c-6.1572,0-6.2268-3.4717-5.4346-7.1875,0.791-3.6475,2.2009-7.2559,8.1506-7.2559,5.7459,0,6.0217,3.4717,4.6106,8.5962h-9.1138z"/>
 <path fill-rule="nonzero" fill="#0868ac" d="m304.63,126.01h-3.1628s0.61888-5.5029,0.61888-5.5029,2.2363-10.457,2.2363-10.457-2.2034-0.51514-2.2034-0.51514,0.65431-2.9932,0.65431-2.9932h6.0205s-4.1638,19.468-4.1638,19.468z"/>
 <path fill-rule="nonzero" fill="#0868ac" d="m316.06,115.11c-1.8591,0-2.821,0.96436-3.2007,2.6831,0,0,5.2978-0.44677,5.2978-0.44677,0.23925-1.1694,0-2.2363-2.0972-2.2363zm-3.7158,5.227c-0.24049,1.7212,0.41381,2.3047,2.6135,2.3047h5.5383s-0.55054,2.6148-0.55054,2.6148-3.3374,0.92774-5.8142,0.92774c-6.1572,0-6.2244-3.4717-5.4334-7.1875,0.79222-3.6475,2.2021-7.2559,8.1519-7.2559,5.7446,0,6.0193,3.4717,4.6106,8.5962h-9.1162z"/>
 <path fill-rule="nonzero" fill="#0868ac" d="m335.97,115.28s-4.0246,0.0343-5.1245,0.0343c-2.3401,0-2.5806,0.72021-2.7515,1.477,0,0-0.13915,0.68847-0.13915,0.68847s7.4304,0.55177,7.4304,0.55177,0.0341,2.373-0.27587,3.7134c-0.44677,2.2363-2.7515,4.5044-6.9128,4.5044-2.0654,0-5.4016-0.78857-5.4016-0.78857s0.58471-2.7173,0.58471-2.7173h5.1257c2.2705,0,2.5806-0.62013,2.7197-1.2378,0,0,0.17088-0.89355,0.17088-0.89355s-7.2925-0.55176-7.2925-0.55176-0.27466-1.8237,0.1025-3.645c0.55176-2.478,2.8198-4.6094,6.9824-4.6094,2.0642,0,5.4004,0.75439,5.4004,0.75439s-0.6189,2.7197-0.6189,2.7197z"/>
 <path fill-rule="nonzero" fill="#0868ac" d="m349.8,115.28s-4.0234,0.0343-5.1245,0.0343c-2.3389,0-2.5793,0.72021-2.7515,1.477,0,0-0.13917,0.68847-0.13917,0.68847s7.4316,0.55177,7.4316,0.55177,0.0341,2.373-0.27587,3.7134c-0.44678,2.2363-2.7515,4.5044-6.9141,4.5044-2.063,0-5.4004-0.78857-5.4004-0.78857s0.58471-2.7173,0.58471-2.7173h5.1257c2.2693,0,2.5793-0.62013,2.7185-1.2378,0,0,0.1709-0.89355,0.1709-0.89355s-7.2925-0.55176-7.2925-0.55176-0.27465-1.8237,0.1025-3.645c0.55175-2.478,2.8198-4.6094,6.9836-4.6094,2.063,0,5.3992,0.75439,5.3992,0.75439s-0.6189,2.7197-0.6189,2.7197z"/>
 <path fill-rule="nonzero" fill="#0868ac" d="m354.13,128.25h-2.7502s0.1025-2.0654,0.1025-2.0654c-0.99854-0.0659-1.5137-0.78858-1.2732-1.9946,0.37842-1.7188,1.4453-2.1313,2.8552-2.1313,1.3757,0,2.3022,0.41259,1.9263,2.1313,0,0-0.8606,4.0601-0.8606,4.0601z"/>
 <path fill-rule="nonzero" fill="#0868ac" d="m372.53,115.42c-2.063,0-2.7844,1.2378-3.2666,3.5083-0.48218,2.2705-0.34424,3.6108,1.7188,3.6108h2.8552s1.5832-7.1191,1.5832-7.1191h-2.8906zm4.7131,8.7695s-0.37964,1.8237-0.37964,1.8237-2.887-0.0341-2.887-0.0341-0.41381-0.89356-0.41381-0.89356-2.5464,1.0986-4.2639,1.0986c-4.4043,0-4.6106-3.6108-3.8196-7.2559,0.79102-3.7158,2.511-7.2241,6.8799-7.2241,1.5832,0,3.7146,0.79102,3.7146,0.79102s1.7542-5.9497,1.7542-5.9497h3.1653s-3.75,17.644-3.75,17.644z"/>
 <path fill-rule="nonzero" fill="#0868ac" d="m388.63,115.28c-2.6819,0-3.5437,1.5112-4.0247,3.7134-0.44677,2.2363-0.23925,3.75,2.4072,3.75,2.7527,0,3.5791-1.4795,4.0588-3.75,0.48339-2.1338,0.34424-3.7134-2.4414-3.7134zm-2.3376,10.938c-5.6763,0-6.1243-3.5425-5.3674-7.2241,0.79224-3.6792,2.7869-7.1875,8.4631-7.1875,5.6396,0,6.1572,3.5083,5.3638,7.1875-0.78979,3.75-2.7856,7.2241-8.4595,7.2241z"/>
 <path fill-rule="nonzero" fill="#0868ac" d="m418.49,126.01s0.62012-5.4346,0.62012-5.4346,0.30883-1.5478,0.30883-1.5478c0.448-2.063,0.72266-3.5767-1.4453-3.5767h-1.6846c0.0696,1.0669-0.13794,2.2705-0.41259,3.5425,0,0-1.4783,7.0166-1.4783,7.0166h-3.1995s0.6189-5.4346,0.6189-5.4346,0.30883-1.5478,0.30883-1.5478c0.44799-2.063,0.72143-3.5767-1.4429-3.5767h-1.377s-2.2705,10.559-2.2705,10.559h-3.6816s2.9932-14.067,2.9932-14.067h2.8894s0.44678,0.85937,0.44678,0.85937,1.9617-1.0327,3.5437-1.0327c1.2036,0,2.0984,0.55176,2.4084,1.2378,0.68726-0.37842,2.6489-1.2378,4.0601-1.2378,4.3994,0,4.2639,3.5767,3.4717,7.2241,0,0-1.4783,7.0166-1.4783,7.0166h-3.1995z"/>
 <path fill-rule="nonzero" fill="#0868ac" d="m433.11,115.28c-2.6843,0-3.5437,1.5112-4.0247,3.7134-0.44677,2.2363-0.23925,3.75,2.4072,3.75,2.7515,0,3.5791-1.4795,4.0601-3.75,0.48096-2.1338,0.34301-3.7134-2.4426-3.7134zm-2.3389,10.938c-5.6775,0-6.123-3.5425-5.3662-7.2241,0.79101-3.6792,2.7856-7.1875,8.4619-7.1875,5.6421,0,6.1572,3.5083,5.365,7.1875-0.7898,3.75-2.7856,7.2241-8.4607,7.2241z"/>
 <path fill-rule="nonzero" fill="#0868ac" d="m448.79,118.07c0.48096-2.2022,0.34424-2.6148-0.7898-2.6148h-1.7212s-1.1011,5.1611-1.1011,5.1611-1.6858,5.398-1.6858,5.398h-3.1982s2.6135-12.244,2.6135-12.244,0.37963-1.7896,0.37963-1.7896h2.9236s0.3772,0.82518,0.3772,0.82518,1.6858-0.99608,3.3386-0.99608c3.5071,0,3.2312,2.6465,2.4744,6.2598h-3.6108z"/>
 <path fill-rule="nonzero" fill="#0868ac" d="m461.11,115.11c-1.8555,0-2.8198,0.96436-3.197,2.6831,0,0,5.2942-0.44677,5.2942-0.44677,0.24292-1.1694,0-2.2363-2.0972-2.2363zm-3.7146,5.227c-0.23925,1.7212,0.4126,2.3047,2.6135,2.3047h5.5383s-0.54932,2.6148-0.54932,2.6148-3.3374,0.92774-5.813,0.92774c-6.1572,0-6.2256-3.4717-5.437-7.1875,0.79223-3.6475,2.2034-7.2559,8.1531-7.2559,5.7434,0,6.0205,3.4717,4.6094,8.5962h-9.115z"/>
 <path fill-rule="nonzero" fill="#0868ac" d="m469.6,126.22c-1.4453,0-2.3376-0.41259-1.9592-2.0972,0.34179-1.7236,1.4087-2.1338,2.8552-2.1338,1.3403,0,2.2681,0.41015,1.9263,2.1338-0.38086,1.6504-1.4795,2.0972-2.8223,2.0972z"/>
</svg>
