<?xml version="1.0" encoding="UTF-8" standalone="no"?>
<!-- Created with Inkscape (http://www.inkscape.org/) -->

<svg
   xmlns:dc="http://purl.org/dc/elements/1.1/"
   xmlns:cc="http://creativecommons.org/ns#"
   xmlns:rdf="http://www.w3.org/1999/02/22-rdf-syntax-ns#"
   xmlns:svg="http://www.w3.org/2000/svg"
   xmlns="http://www.w3.org/2000/svg"
   xmlns:xlink="http://www.w3.org/1999/xlink"
   version="1.1"
   width="961.0625"
   height="429"
   id="svg3059">
  <defs
     id="defs3061">
    <linearGradient
       x1="464.315"
       y1="532.26703"
       x2="464.315"
       y2="108.459"
       id="SVGID_1_"
       gradientUnits="userSpaceOnUse"
       gradientTransform="matrix(1,0,0,-1,0.14,777.638)">
      <stop
         id="stop13"
         style="stop-color:#2a4f84;stop-opacity:1"
         offset="0.1497" />
      <stop
         id="stop15"
         style="stop-color:#294e82;stop-opacity:1"
         offset="0.38839999" />
      <stop
         id="stop17"
         style="stop-color:#172e4e;stop-opacity:1"
         offset="1" />
    </linearGradient>
    <linearGradient
       x1="464.315"
       y1="532.26703"
       x2="464.315"
       y2="108.459"
       id="linearGradient3057"
       xlink:href="#SVGID_1_"
       gradientUnits="userSpaceOnUse"
       gradientTransform="matrix(1,0,0,-1,-110.8195,852.7348)" />
  </defs>
  <metadata
     id="metadata3064">
    <rdf:RDF>
      <cc:Work
         rdf:about="">
        <dc:format>image/svg+xml</dc:format>
        <dc:type
           rdf:resource="http://purl.org/dc/dcmitype/StillImage" />
        <dc:title></dc:title>
      </cc:Work>
    </rdf:RDF>
  </metadata>
  <g
     transform="translate(130.53125,-317.84375)"
     id="layer1">
    <path
       d="m 778.7625,662.5338 c 0,44.958 -36.784,81.742 -81.742,81.742 H 9.9705001 C -34.9875,744.2758 -71.7715,707.4918 -71.7715,662.5338 V 402.20979 c 0,-44.958 36.784,-81.742 81.7420001,-81.742 H 697.0205 c 44.958,0 81.742,36.784 81.742,81.742 V 662.5338 z"
       id="path19"
       style="fill:url(#linearGradient3057)" />
    <path
       d="m 635.0385,526.8108 c 35.909,12.563 53.856,34.088 53.856,64.543 0,20.046 -7.443,35.957 -22.296,47.725 -14.838,11.776 -36.005,19.084 -63.557,19.084 -27.552,0 -53.037,-7.983 -76.51,-21.088 0.254,-6.95 2.091,-14.575 5.463,-22.852 3.372,-8.277 7.363,-14.853 11.936,-19.656 21.573,11.211 40.346,16.826 56.281,16.826 7.531,0 13.358,-1.264 17.414,-3.809 4.063,-2.536 6.083,-5.94 6.083,-10.217 0,-8.039 -6.226,-14.051 -18.638,-18.058 l -22.296,-8.421 c -33.73,-12.293 -50.596,-32.323 -50.596,-60.146 0,-20.316 7.085,-36.418 21.255,-48.33 14.17,-11.895 33.269,-22.137 57.283,-22.137 11.88,0 24.96,1.67 39.272,5.01 14.297,3.348 26.042,11.594 35.218,16.125 0.541,7.49 -0.962,15.712 -4.452,24.665 -3.515,8.961 -7.824,15.306 -12.969,19.052 -22.685,-10.162 -41.562,-15.243 -56.686,-15.243 -5.415,0 -9.494,1.201 -12.357,3.618 -2.831,2.41 -4.223,5.478 -4.223,9.224 0,6.417 5.121,11.49 15.386,15.235 l 25.133,8.85 z"
       id="path21"
       style="fill:#f6f6f6" />
    <path
       d="m 455.6835,526.8108 c 35.909,12.563 53.848,34.088 53.848,64.543 0,20.046 -7.443,35.957 -22.272,47.725 -14.853,11.776 -36.028,19.084 -63.572,19.084 -27.528,0 -53.045,-7.983 -76.51,-21.088 0.254,-6.95 2.091,-14.575 5.47,-22.852 3.372,-8.277 7.347,-14.853 11.936,-19.656 21.597,11.211 40.362,16.826 56.289,16.826 7.538,0 13.366,-1.264 17.406,-3.809 4.048,-2.536 6.083,-5.94 6.083,-10.217 0,-8.039 -6.226,-14.051 -18.638,-18.058 l -22.281,-8.421 c -33.738,-12.293 -50.611,-32.323 -50.611,-60.146 0,-20.316 7.085,-36.418 21.27,-48.33 14.162,-11.895 33.253,-22.137 57.267,-22.137 11.872,0 24.984,1.67 39.265,5.01 14.313,3.348 26.042,11.594 35.225,16.125 0.541,7.49 -0.962,15.712 -4.452,24.665 -3.507,8.961 -7.824,15.306 -12.961,19.052 -22.694,-10.162 -41.571,-15.243 -56.702,-15.243 -5.407,0 -9.502,1.201 -12.349,3.618 -2.823,2.41 -4.23,5.478 -4.23,9.224 0,6.417 5.128,11.49 15.394,15.235 l 25.125,8.85 z"
       id="path23"
       style="fill:#f6f6f6" />
    <path
       d="m 324.8885,529.6408 c 0,-12.293 -1.956,-23.656 -5.868,-34.089 -3.904,-10.432 -9.51,-19.378 -16.794,-26.868 -7.292,-7.49 -16.126,-13.367 -26.511,-17.645 -10.401,-4.27 -22.074,-10.711 -35.027,-10.711 -15.387,0 -28.816,6.966 -40.282,12.317 -11.466,5.344 -20.913,12.691 -28.332,22.05 -7.435,9.366 -12.969,20.388 -16.611,33.086 -3.642,12.699 -5.463,26.534 -5.463,41.499 0,15.49 1.479,29.818 4.453,42.914 2.966,13.08 8.03,24.435 15.18,34.073 7.156,9.621 16.467,17.104 27.941,22.439 11.474,5.344 25.715,9.447 42.716,9.447 31.305,0 57.752,-9.065 79.348,-24.292 -2.139,-15.49 -7.657,-27.807 -16.523,-36.896 -11.029,4.142 -20.786,7.108 -29.246,8.93 -8.468,1.798 -15.935,2.704 -22.383,2.704 -12.906,0 -22.193,-3.284 -27.83,-9.915 -5.631,-6.608 -8.72,-14.424 -9.267,-26.296 h 105.265 c 3.477,-11.243 5.234,-26.438 5.234,-42.747 z m -110.9,2.776 c 0.802,-13.645 3.292,-28.244 7.435,-34.255 4.151,-6.019 10.504,-9.025 19.083,-9.025 8.835,0 15.466,3.197 19.879,9.614 4.422,6.417 6.631,19.346 6.631,29.237 l 0.008,4.429 h -53.036 l 0,0 z"
       id="path25"
       style="fill:#f6f6f6" />
    <path
       d="m 799.9545,559.0938 c -11.442,9.995 -18.082,24.379 -18.082,43.185 v 70.037 c 0,23.282 -7.157,40.99 -23.322,53.164 -16.15,12.158 -34.979,18.177 -56.472,18.757 l -12.738,-0.096 v -34.899 c 11.228,-3.276 15.839,-7.084 20.308,-11.41 8.095,-7.315 14.297,-19.219 14.297,-35.75 v -56.543 c 0.302,-19.219 1.781,-34.279 8.778,-45.157 7.022,-10.878 20.69,-20.388 41.006,-28.602 -22.439,-10.273 -37.508,-23.688 -45.189,-40.235 -4.516,-9.828 -4.604,-23.091 -4.604,-39.774 v -51.85201 c 0,-17.128 -5.606,-29.126 -12.5,-35.973 -4.484,-4.469 -9.701,-8.039 -22.113,-10.734 v -32.761 c 15.18,0.159 22.845,-0.015 31.687,0 13.613,-0.111 25.016,7.332 34.939,15.084 10.807,8.5 18.487,19.991 22.988,34.454 2.56,8.357 2.926,16.341 2.926,23.942 v 59.97101 c 0,21.182 6.258,36.927 16.953,47.208 6.028,5.964 14.536,11.418 29.143,16.341 v 27.091 c -12.944,3.579 -21.071,8.429 -28.005,14.552 z"
       id="path27"
       style="fill:#f6f6f6;stroke:#404040;stroke-width:5.15089989;stroke-miterlimit:10" />
    <path
       d="m -5.2445,320.46879 v 0.047 c -4.349,-0.024 -8.286,-0.04 -11.434,-0.032 -13.621,-0.119 -25.023,7.324 -34.938,15.084 -10.822,8.5 -20.085,19.593 -22.987,34.454 -1.654,8.715 -1.304,16.332 -1.304,23.942 v 59.97101 c 0,21.175 -7.88,36.911 -18.567,47.209 -6.02,5.963 -18.87,11.409 -33.485,16.331 v 27.09 c 12.953,3.571 25.422,8.405 32.339,14.544 11.45,10.003 19.703,24.396 19.703,43.2 v 70.037 c 0,23.267 5.551,40.991 21.7,53.148 16.15,12.15 34.971,18.193 56.464,18.781 l 14.384,-0.096 v -34.923 c -11.22,-3.284 -17.45299995,-7.093 -21.946,-11.403 -8.087,-7.324 -12.667,-19.219 -12.667,-35.742 v -56.551 c -0.31,-19.234 -3.411,-34.279 -10.416,-45.165 -7.005,-10.862 -20.674,-20.388 -41.014,-28.594 22.448,-10.281 37.508,-23.688 45.189,-40.227 4.525,-9.836 6.242,-23.099 6.242,-39.781 v -51.85201 c 0,-17.128 3.975,-29.126 10.862,-35.98 3.737,-3.721 10.3840001,-6.783 19.617,-9.263 l 14.599,0.102 c 0,-12.566 0,-20.432 0,-34.334 h -32.339 v 0.003 h -0.002 z"
       id="path29"
       style="fill:#f6f6f6;stroke:#404040;stroke-width:5.15089989;stroke-miterlimit:10" />
    <path
       d="m 129.3525,604.6078 h -10.933 c -11.887,0 -16.364,-6.25 -16.364,-18.805 V 355.05779 c 0,-13.875 -4.007,-23.616 -9.137,-29.229 -5.129,-5.598 -14.034,-5.542 -26.717,-5.542 h -24.69 l -2.91,-0.056 v 0.238 l -0.024,34.343 V 596.9678 c 0,19.258 4.326,33.349 12.022,42.318 7.705,8.953 20.722,13.422 39.074,13.422 12.691,0 27.131,-1.336 43.32,-4.016 0.811,-2.704 1.217,-8.492 1.217,-17.374 0,-8.906 -1.621,-17.788 -4.858,-26.71 z"
       id="path31"
       style="fill:#f6f6f6" />
  </g>
</svg>
