<?xml version="1.0" encoding="utf-8"?>
<!-- Generator: Adobe Illustrator 16.0.0, SVG Export Plug-In . SVG Version: 6.00 Build 0)  -->
<!DOCTYPE svg PUBLIC "-//W3C//DTD SVG 1.1//EN" "http://www.w3.org/Graphics/SVG/1.1/DTD/svg11.dtd">
<svg version="1.1" id="Layer_1" xmlns="http://www.w3.org/2000/svg" xmlns:xlink="http://www.w3.org/1999/xlink" x="0px" y="0px"
	 width="745.199px" height="161.769px" viewBox="0 0 745.199 161.769" enable-background="new 0 0 745.199 161.769"
	 xml:space="preserve">
<g>
	<path fill="#262727" d="M48.849,126.552L69.07,1.363h28.173v159.042H79.521V28.855L57.709,160.406h-18.63L17.268,28.855v131.551H0
		V1.363h28.627L48.849,126.552z"/>
	<path fill="#262727" d="M164.491,1.363v16.813h-31.809v52.711h30.672v16.586h-30.672v56.119h32.263v16.813h-50.439V1.363H164.491z"
		/>
	<path fill="#262727" d="M196.298,160.406V18.176h-23.856V1.363h65.889v16.813h-23.856v142.229H196.298z"/>
	<path fill="#262727" d="M307.627,160.406h-17.949l-3.862-26.583h-29.31l-3.635,26.583h-17.495L259.914,0.909h23.175
		L307.627,160.406z M258.778,117.464h24.765l-12.269-87.928L258.778,117.464z"/>
	<path fill="#262727" d="M338.294,1.363v142.229h29.991v16.813h-48.167V1.363H338.294z"/>
	<path fill="#262727" d="M442.352,109.058v23.175c0,19.767-9.77,29.537-29.536,29.537h-4.999c-19.54,0-29.082-9.77-29.082-29.082
		V99.288h17.722v34.081c0,8.179,3.863,12.042,12.042,12.042h3.635c8.179,0,12.042-3.862,12.042-12.042v-23.856
		c0-7.952-2.726-11.36-7.952-15.223l-22.266-16.131c-11.814-8.407-15.223-16.586-15.223-29.537V29.537
		C378.735,9.77,388.505,0,408.272,0h4.544c19.54,0,29.082,9.77,29.082,29.082V57.71h-17.722V28.4
		c0-8.179-3.862-12.042-12.042-12.042h-3.181c-8.179,0-12.042,3.862-12.042,12.042v19.994c0,7.952,2.954,11.36,8.179,15.223
		l22.039,15.904C438.717,87.928,442.352,95.426,442.352,109.058z"/>
	<path fill="#262727" d="M507.328,126.552L527.549,1.363h28.173v159.042H538V28.855l-21.812,131.551h-18.63L475.747,28.855v131.551
		h-17.268V1.363h28.627L507.328,126.552z"/>
	<path fill="#262727" d="M591.389,160.406h-18.176V1.363h18.176V160.406z"/>
	<path fill="#262727" d="M626.375,160.406V18.176h-23.856V1.363h65.889v16.813h-23.856v142.229H626.375z"/>
	<path fill="#262727" d="M727.022,70.661V1.363h18.177v159.042h-18.177V87.701h-29.536v72.705H679.31V1.363h18.177v69.297H727.022z"
		/>
</g>
</svg>
