<svg xmlns="http://www.w3.org/2000/svg" width="16" height="16" viewBox="0 0 50 50">
    <path style="text-indent:0;text-align:start;line-height:normal;text-transform:none;block-progression:tb;-inkscape-font-specification:Bitstream Vera Sans" d="M 21.09375 0 L 20.96875 0.84375 L 19.90625 7.40625 C 18.595387 7.7826883 17.330512 8.2621723 16.15625 8.90625 L 10.75 5.0625 L 10.0625 4.5625 L 9.46875 5.15625 L 5.21875 9.40625 L 4.625 10 L 5.125 10.6875 L 8.90625 16.125 C 8.2558769 17.301813 7.7599264 18.557268 7.375 19.875 L 0.84375 20.96875 L 0 21.09375 L 0 21.96875 L 0 27.96875 L 0 28.78125 L 0.8125 28.9375 L 7.34375 30.09375 C 7.7270515 31.411369 8.2533453 32.664899 8.90625 33.84375 L 5.0625 39.25 L 4.5625 39.9375 L 5.15625 40.53125 L 9.40625 44.78125 L 10 45.375 L 10.6875 44.875 L 16.09375 41.0625 C 17.278442 41.71689 18.551064 42.210635 19.875 42.59375 L 20.96875 49.15625 L 21.09375 50 L 21.9375 50 L 27.9375 50 L 28.78125 50 L 28.9375 49.1875 L 30.09375 42.625 C 31.409096 42.239205 32.636364 41.684943 33.8125 41.03125 L 39.3125 44.875 L 40 45.375 L 40.59375 44.78125 L 44.84375 40.53125 L 45.4375 39.9375 L 44.9375 39.21875 L 41.03125 33.8125 C 41.67083 32.648275 42.185776 31.392917 42.5625 30.09375 L 49.1875 28.9375 L 50 28.78125 L 50 27.96875 L 50 21.96875 L 50 21.09375 L 49.15625 20.96875 L 42.59375 19.90625 C 42.214301 18.596329 41.675813 17.360931 41.03125 16.1875 L 44.875 10.6875 L 45.375 10 L 44.78125 9.40625 L 40.53125 5.15625 L 39.9375 4.5625 L 39.21875 5.0625 L 33.84375 8.9375 C 32.668539 8.2844523 31.411254 7.7906733 30.09375 7.40625 L 28.9375 0.8125 L 28.78125 0 L 27.9375 0 L 21.9375 0 L 21.09375 0 z M 22.8125 2 L 27.125 2 L 28.21875 8.28125 L 28.3125 8.90625 L 28.96875 9.0625 C 30.573153 9.4619521 32.06175 10.104512 33.4375 10.9375 L 34 11.28125 L 34.53125 10.90625 L 39.6875 7.1875 L 42.75 10.21875 L 39.09375 15.46875 L 38.71875 16 L 39.03125 16.5625 C 39.855736 17.934444 40.475974 19.436089 40.875 21.03125 L 41.0625 21.65625 L 41.6875 21.78125 L 48 22.8125 L 48 27.125 L 41.6875 28.21875 L 41.03125 28.34375 L 40.875 28.96875 C 40.480078 30.562575 39.855527 32.065902 39.03125 33.4375 L 38.71875 34 L 39.09375 34.53125 L 42.8125 39.71875 L 39.78125 42.75 L 34.53125 39.09375 L 34 38.71875 L 33.4375 39.0625 C 32.069259 39.895302 30.567544 40.531906 28.96875 40.9375 L 28.34375 41.09375 L 28.21875 41.71875 L 27.125 48 L 22.78125 48 L 21.75 41.75 L 21.65625 41.09375 L 21 40.9375 C 19.393889 40.540685 17.883819 39.925173 16.5 39.09375 L 15.96875 38.75 L 15.40625 39.125 L 10.21875 42.75 L 7.1875 39.6875 L 10.84375 34.5625 L 11.21875 34.03125 L 10.90625 33.46875 C 10.066177 32.080886 9.4005086 30.581151 9 28.96875 L 8.84375 28.34375 L 8.21875 28.21875 L 2 27.125 L 2 22.8125 L 8.21875 21.78125 L 8.875 21.65625 L 9.03125 21.03125 C 9.4360125 19.413143 10.069062 17.885885 10.90625 16.5 L 11.25 15.9375 L 10.875 15.40625 L 7.25 10.21875 L 10.28125 7.1875 L 15.4375 10.84375 L 15.96875 11.25 L 16.53125 10.90625 C 17.908621 10.078322 19.424128 9.4567353 21.03125 9.0625 L 21.6875 8.90625 L 21.78125 8.25 L 22.8125 2 z M 25 16 C 20.041484 16 16 20.041484 16 25 C 16 29.958516 20.041484 34 25 34 C 29.958516 34 34 29.958516 34 25 C 34 20.041484 29.958516 16 25 16 z M 25 18 C 28.877484 18 32 21.122516 32 25 C 32 28.877484 28.877484 32 25 32 C 21.122516 32 18 28.877484 18 25 C 18 21.122516 21.122516 18 25 18 z" color="#000" overflow="visible" enable-background="accumulate" font-family="Bitstream Vera Sans"></path>
</svg>