<?xml version="1.0" encoding="UTF-8" standalone="no"?>
<!-- Created with Inkscape (http://www.inkscape.org/) -->

<svg
   xmlns:dc="http://purl.org/dc/elements/1.1/"
   xmlns:cc="http://creativecommons.org/ns#"
   xmlns:rdf="http://www.w3.org/1999/02/22-rdf-syntax-ns#"
   xmlns:svg="http://www.w3.org/2000/svg"
   xmlns="http://www.w3.org/2000/svg"
   xmlns:sodipodi="http://sodipodi.sourceforge.net/DTD/sodipodi-0.dtd"
   xmlns:inkscape="http://www.inkscape.org/namespaces/inkscape"
   width="16px"
   height="16px"
   id="svg2985"
   version="1.1"
   inkscape:version="0.48.2 r9819"
   sodipodi:docname="passportjs.svg">
  <defs
     id="defs2987" />
  <sodipodi:namedview
     id="base"
     pagecolor="#ffffff"
     bordercolor="#666666"
     borderopacity="1.0"
     inkscape:pageopacity="0.0"
     inkscape:pageshadow="2"
     inkscape:zoom="48"
     inkscape:cx="8"
     inkscape:cy="8"
     inkscape:current-layer="svg2985"
     showgrid="false"
     inkscape:grid-bbox="true"
     inkscape:document-units="px"
     inkscape:snap-grids="false"
     inkscape:snap-page="true"
     inkscape:window-width="1680"
     inkscape:window-height="987"
     inkscape:window-x="-8"
     inkscape:window-y="-8"
     inkscape:window-maximized="1"
     inkscape:object-nodes="true"
     showborder="false">
    <inkscape:grid
       type="xygrid"
       id="grid2993"
       empspacing="4"
       visible="true"
       enabled="true"
       snapvisiblegridlinesonly="true"
       spacingx="0.5px"
       spacingy="0.5px" />
  </sodipodi:namedview>
  <metadata
     id="metadata2990">
    <rdf:RDF>
      <cc:Work
         rdf:about="">
        <dc:format>image/svg+xml</dc:format>
        <dc:type
           rdf:resource="http://purl.org/dc/dcmitype/StillImage" />
        <dc:title />
      </cc:Work>
    </rdf:RDF>
  </metadata>
  <g
     inkscape:groupmode="layer"
     id="layer"
     inkscape:label="layer">
    <path
       style="fill:#333333;fill-opacity:1;stroke:none"
       d="M 8.75,0 0,3.875 5.375,16 8.875,14.4375 16,13.5 14,1.5 9.65625,2.0625 8.75,0 z m -0.84375,2.03125 0.5625,1.28125 -5.875,2.59375 -0.5625,-1.25 5.875,-2.625 z m 5.25,0.59375 1.6875,10 L 12.1875,13 14.125,12.125 10.09375,3.03125 13.15625,2.625 z m -4.375,2.53125 c 0,0 0.8156671,2.4105384 0.46875,3.3125 C 9.0765414,8.9197308 8.1875,9.4375 8.1875,9.4375 c 0,0 0.5059899,0.052535 0.59375,0.25 0.1755207,0.394931 -0.46875,1.1875 -0.46875,1.1875 0,0 -1.0119793,-0.07382 -1.1875,-0.46875 C 7.03724,10.208785 7.34375,9.8125 7.34375,9.8125 c 0,0 -0.9865192,0.329709 -1.4375,0.15625 -0.9019616,-0.3469171 -2.125,-2.5625 -2.125,-2.5625 l 3.0625,0.125 1.9375,-2.375 z M 5.8125,5.25 6.875,5.34375 7.3125,6.3125 6.6875,7.1875 5.625,7.0625 5.1875,6.09375 5.8125,5.25 z m 3.71875,6.09375 0.1875,0.375 -0.5625,0.25 C 9.0759235,11.844786 8.889222,11.813125 8.75,11.875 8.6107771,11.936875 8.5555644,12.076057 8.59375,12.21875 l -0.5625,0.25 -0.15625,-0.375 1.65625,-0.75 z M 9.75,11.8125 l 0.15625,0.375 -1.65625,0.75 -0.1875,-0.375 0.5625,-0.25 c 0.080325,0.123963 0.2357771,0.186875 0.375,0.125 0.139222,-0.06188 0.2256853,-0.232308 0.1875,-0.375 l 0.5625,-0.25 z m -0.9375,0.125 c 0.1060329,-0.04712 0.2341253,0.01897 0.28125,0.125 0.047125,0.106033 -0.018967,0.234125 -0.125,0.28125 -0.1060329,0.04712 -0.2341253,-0.01897 -0.28125,-0.125 -0.047125,-0.106033 0.018967,-0.234125 0.125,-0.28125 z"
       id="path3196"
       inkscape:connector-curvature="0" />
  </g>
</svg>
