<?xml version="1.0" encoding="utf-8"?>
<!-- Generator: Adobe Illustrator 19.1.0, SVG Export Plug-In . SVG Version: 6.00 Build 0)  -->
<svg version="1.1" id="Layer_1" xmlns:sketch="http://www.bohemiancoding.com/sketch/ns"
	 xmlns="http://www.w3.org/2000/svg" xmlns:xlink="http://www.w3.org/1999/xlink" x="0px" y="0px" viewBox="60 -8 143 40"
	 style="enable-background:new 60 -8 143 40;" xml:space="preserve">
<style type="text/css">
	.st0{fill:#430098;}
</style>
<g id="Page-1" sketch:type="MSPage">
	<g id="main" transform="translate(-25.000000, -23.000000)" sketch:type="MSArtboardGroup">
		<g id="nav" transform="translate(25.000000, 23.000000)" sketch:type="MSLayerGroup">
			<path id="logo" sketch:type="MSShapeGroup" class="st0" d="M92.3-8H63.6c-2,0-3.6,1.6-3.6,3.6v32.8c0,2,1.6,3.6,3.6,3.6h28.7
				c2,0,3.6-1.6,3.6-3.6V-4.4C95.9-6.4,94.3-8,92.3-8z M93.9,28.4c0,0.9-0.7,1.6-1.6,1.6H63.6c-0.9,0-1.6-0.7-1.6-1.6V-4.4
				C62-5.3,62.7-6,63.6-6h28.7c0.9,0,1.6,0.7,1.6,1.6V28.4z M69,26l4.5-4L69,18V26z M85.2,9.8C84.4,9,82.9,8,80.4,8
				c-2.7,0-5.5,0.7-7.5,1.4V-2h-4v17.3l2.8-1.3c0,0,4.6-2.1,8.6-2.1c2,0,2.5,1.1,2.5,2.1V26h4V14C86.9,13.7,86.9,11.5,85.2,9.8z
				 M79.9,4.5h4c1.8-2.1,2.7-4.2,3-6.5h-4C82.5,0.3,81.5,2.4,79.9,4.5z M190.4,13.9V5.1h4v8.8c0,2,0.7,3,2.3,3c1.6,0,2.2-0.9,2.2-3
				V5.1h3.9v8.9c0,3.9-1.9,6.2-6.2,6.2C192.3,20.1,190.4,17.8,190.4,13.9z M173.6,5.1h4v5.4l4.1-5.4h4.6l-5,5.8l5.4,9h-4.5l-3.5-5.9
				l-1.1,1.3v4.6h-4V5.1z M154.6,12.4c0-5.4,3.7-7.7,7.3-7.7c3.6,0,7.3,2.3,7.3,7.7c0,5.4-3.7,7.7-7.3,7.7
				C158.3,20.1,154.6,17.9,154.6,12.4z M165.1,12.4c0-2.7-1.2-4.4-3.3-4.4c-2.1,0-3.3,1.7-3.3,4.4c0,2.7,1.2,4.5,3.3,4.5
				C163.9,16.9,165.1,15.2,165.1,12.4z M138.5,5.1h5.8c3.8,0,6.1,1.3,6.1,4.8c0,2.3-1,3.7-2.9,4.3l3.1,5.7h-4.2l-2.9-5.1h-1.1v5.1
				h-3.9V5.1z M144.2,11.7c1.6,0,2.4-0.5,2.4-1.7c0-1.2-0.7-1.7-2.4-1.7h-1.7v3.4H144.2z M123.2,5.1h10.6v3.3h-6.6v2.4h4.7v3.1h-4.7
				v2.7h6.9v3.2h-10.9V5.1z M105.1,5.1h4v5.5h4.9V5.1h4v14.8h-4v-6h-4.9v6h-4V5.1z"/>
		</g>
	</g>
</g>
</svg>
