<svg version="1.1" xmlns="http://www.w3.org/2000/svg" xmlns:xlink="http://www.w3.org/1999/xlink" x="0px" y="0px" width="48px" height="48px" viewBox="0 0 48 48" enable-background="new 0 0 48 48" xml:space="preserve">
<rect x="6" y="6.001" fill="#009688" width="36" height="22"></rect>
<path fill="#00796B" d="M39,10v18H9V10h31 M42,8H6v20h36V8L42,8z"></path>
<path fill="#DD7C12" d="M40,8v19H8V8H40 M42,6H6v22h36V6L42,6z"></path>
<path fill="#773D04" d="M44,31v-2c0-1.104-0.896-2-2-2H7c-1.104,0-2,0.896-2,2v2H44z"></path>
<polygon fill="#FFFFFF" points="35,27 28,27 28,25 35,25 36,26 "></polygon>
<g>
	<path fill="#FFB74D" d="M10,15c-2.206,0-4-1.795-4-4c0-2.206,1.794-4,4-4s4,1.794,4,4C14,13.205,12.206,15,10,15"></path>
	<polygon fill="#FFB74D" points="7,34 4,32 4,28 7,28 	"></polygon>
	<polygon fill="#FFB74D" points="28.023,17 28.224,20.6 25.023,23 23.224,20.6 	"></polygon>
</g>
<path fill="#455A64" d="M7.214,42.001h7.506l0.793-16.406V23l5.344,3.427c0.218,0.084,1.119,0.123,1.596-0.239l4.771-3.978
	l-2.465-3.338l-3.569,2.725c0,0-5.39-4.241-6.377-4.831C14.785,16.75,13.156,16,11.078,16c-0.017,0-0.027,0.002-0.043,0.002
	C11.023,16.002,11.012,16,11,16c-5,0-7,2-7,6v8l2.625,1.75L7.214,42.001z"></path>
<g>
	<path fill="#FFA726" d="M13,34.5c0,1.38-1.119,2.5-2.5,2.5S8,35.88,8,34.5c0-1.381,1.119-2.5,2.5-2.5S13,33.119,13,34.5"></path>
	<path fill="#FFA726" d="M22,34.5c0,1.38-1.119,2.5-2.5,2.5S17,35.88,17,34.5c0-1.381,1.119-2.5,2.5-2.5S22,33.119,22,34.5"></path>
	<path fill="#FFA726" d="M31,34.5c0,1.38-1.119,2.5-2.5,2.5S26,35.88,26,34.5c0-1.381,1.119-2.5,2.5-2.5S31,33.119,31,34.5"></path>
	<path fill="#FFA726" d="M40,34.5c0,1.38-1.12,2.5-2.5,2.5S35,35.88,35,34.5c0-1.381,1.12-2.5,2.5-2.5S40,33.119,40,34.5"></path>
</g>
<g>
	<path fill="#607D8B" d="M15,41c0,0-1.246-3-4.5-3C7.246,38,6,41,6,41v1h9V41z"></path>
	<path fill="#607D8B" d="M24,41c0,0-1.246-3-4.5-3c-3.254,0-4.5,3-4.5,3v1h9V41z"></path>
	<path fill="#607D8B" d="M33,41c0,0-1.246-3-4.5-3S24,41,24,41v1h9V41z"></path>
	<path fill="#607D8B" d="M42,41c0,0-1.245-3-4.5-3c-3.254,0-4.5,3-4.5,3v1h9V41z"></path>
</g>
</svg>
