<?xml version="1.0" standalone="no"?>
<!DOCTYPE svg PUBLIC "-//W3C//DTD SVG 20010904//EN"
 "http://www.w3.org/TR/2001/REC-SVG-20010904/DTD/svg10.dtd">
<svg version="1.0" xmlns="http://www.w3.org/2000/svg"
 width="618.000000pt" height="618.000000pt" viewBox="0 0 618.000000 618.000000"
 preserveAspectRatio="xMidYMid meet">
<metadata>
Created by potrace 1.11, written by Peter Selinger 2001-2013
</metadata>
<g transform="translate(0.000000,618.000000) scale(0.100000,-0.100000)"
fill="#000000" stroke="none">
<path d="M2270 5086 c-30 -13 -125 -56 -210 -96 -216 -101 -284 -133 -450
-210 -80 -37 -181 -84 -225 -105 -44 -21 -107 -50 -140 -65 -152 -70 -1135
-530 -1177 -551 -52 -25 -65 -47 -48 -79 16 -31 59 -49 451 -191 200 -73 367
-135 371 -138 4 -3 -175 -91 -397 -194 -222 -104 -411 -197 -421 -208 -24 -27
-6 -62 45 -88 21 -11 202 -80 402 -152 200 -72 367 -134 371 -138 4 -3 -177
-91 -400 -195 -224 -104 -414 -196 -421 -204 -24 -25 -1 -64 54 -93 63 -34
3479 -1277 3560 -1296 36 -9 95 -13 150 -11 l90 3 1135 529 c624 291 1141 534
1148 539 19 15 14 52 -10 74 -31 26 -67 41 -458 183 -184 67 -341 125 -348
129 -9 5 2 15 35 29 26 11 93 42 148 68 291 137 588 274 594 274 4 0 18 11 31
25 20 21 22 28 12 50 -16 35 -67 57 -462 200 -195 71 -358 131 -362 134 -4 4
179 93 407 200 286 133 416 199 420 212 9 28 -11 57 -56 80 -53 26 -3482 1275
-3557 1294 -88 23 -216 19 -282 -9z"/>
</g>
</svg>
